<?xml version="1.0" encoding="utf-8"?>
<svg baseProfile="tiny" fill="#ececec" height="597" stroke="black" stroke-linecap="round" stroke-linejoin="round" stroke-width=".1" version="1.2" viewBox="0 0 1000 597" width="1000" xmlns="http://www.w3.org/2000/svg">
  <g transform="matrix(1.337608, 0, 0, 1.312216, -301.561181, 32.776256)" style="">
    <path d="M669.5 192.1l1-0.1 0.2-1.3 0.5 0.5 0.2 1.1 0 0.9 0.4 0.9 1.2 1.1-0.3 0.3 0 1.6-0.4 1.5 0.3 2.6 0.2 0.7-3.3 0.2-1.3 0.1-3.8 0.3-1.1 0.1-1.7 0.1-2.2 0.2-0.9 0.1-1.3 0.1-2.6 0.2-1.3 0.1-0.9 0-0.8 0.1-0.1-0.4 0-1 1.6 0.1-0.2-1.7-0.6-0.3-0.5 0.7-0.6-0.7 0.3-0.5-0.2-0.4-0.3-1.2-0.8 0.2-0.1-0.8 2-0.1-0.1-2 4-0.2 5.8-0.5 0.1 2 1.9-0.1-0.1-2 4-0.4-0.2-2.5 0.7-0.1 0.9 0.2 0.4 0.3z" id="WI01" name="WI01 District"/>
    <path d="M652 195.4l0.1 2-2 0.1 0.1 0.8 0.8-0.2 0.3 1.2 0.2 0.4-0.3 0.5 0.6 0.7 0.5-0.7 0.6 0.3 0.2 1.7-1.6-0.1 0 1 0.1 0.4-1.6 0.1-0.7 0-3 0.2-1.7 0-4.7 0.3-0.4 0-5.1 0.3-0.6 0-4.9 0.3-0.4-6.3-0.5-7.8-0.1-1.8 1.3-0.2 1 0 0.5 0.1 0.7 0.5 0.5 0.2-0.4-6.9 0.7 0.1 0.3-0.9 0.9 0.3-0.2-3.6 4.7-0.3 0.4 0.8 0.8 0.1-0.1 0.7 0.9-0.1 1.2 0.2 0.3 4-0.9 0.6-0.4 0-0.6 1 0 0.6 5.9-0.4 0 0.2 4.2-0.3 1.7-0.2 0.2 2.2 0.5 7.9z" id="WI02" name="WI02 District"/>
    <path d="M637.9 178.1l-4.7 0.3 0.2 3.6-0.9-0.3-0.3 0.9-0.7-0.1 0.4 6.9-0.5-0.2-0.7-0.5-0.5-0.1-1 0-1.3 0.2 0.1 1.8 0.5 7.8 0.4 6.3-0.8 0.1-2.8 0.1-0.1-0.7-0.8-1.2-0.3-0.8-0.3-0.3-4-0.8-0.7-0.6-1-0.5-0.2-0.4-0.8-2.9-0.7-0.4-0.1-1.4-0.6-1.7-0.1-0.7 0-1.5 0.3-0.2 0.6-1.3 0.6-0.7 0.3-0.6-0.5-0.9-0.8-0.7-1.2-0.5-0.2-0.3 0.2-0.7-0.1-0.6-0.5-0.9 0.2-0.9-0.5-1.1 0.1-0.9-0.6-0.6-0.1-2.2 0.3-1.5-0.3-0.4-0.4-1.2-1.3-1.5-0.1-0.5-0.7-0.6-0.7-0.8-1.1-0.4-1.2-0.1-1.1-0.8-1.1-1.2-1.8-1-1-0.7-0.3-0.8 0.1-0.4-0.8-1.9-0.5-0.5-1.3-0.6-0.3-0.3-1.2-0.4-1.6-0.4-1-0.8-0.3-0.4-0.3-1.1-0.5-0.3-1.1 0-0.4 0.2-1.3-0.5-0.4 0.2-0.5-0.8-0.8-0.3-0.1-0.5-0.7-0.5-1.1-1.2-1.3-0.8 0.7-2-0.1-0.5 6.4-0.2 2.2 0 1.6-0.1-0.2-6-0.3 0-0.1-2 7.9-0.3 0.1 2 0.2 0 0.1 2 2-0.1 0.1 2 1.7-0.1 0.4-0.5 1.2 0 1.5 0.3 0.2 2.1 1.9-0.1-0.1-2 3-0.2 0.4 8-2 0.1 0.2 3.9 2-0.1 0.4-0.2 0.9-0.1 0.4 0.6 0.3-0.4 3.9-0.2 0.3 4 0.1 0 0.3 6 0.3 0 0.4-0.9 0.7 0.5 0.5 0.2 2.1 0 1.9-0.1 0.2 1.9 0.6 0.3 0.6-0.9 0.6 0 0.7-0.3 0.1 0.5 1.3-0.5-0.3-1.2-0.7-0.6 0-0.3-0.3-0.6-0.2-1 0.8-0.7 0-1 0.5 0 0.6-0.5-0.3-0.6 0.3-0.5-0.1-0.4-2.9 0.2-0.2-4 1.8-0.1-0.3-6 3.4-0.2 4.2-0.3 2.4-0.1 2-0.1 0.2 2.6 0.5 7.4-3.9 0.3-2.2 0.1 0.5 8.3 0.4 5.4-3.1 0.3z" id="WI03" name="WI03 District"/>
    <path d="M670.7 190.7l-0.2 1.3-1 0.1-0.1-1-0.4 0.2-1-0.1 0-1.2-0.6-0.1-0.3-3.7 2.9-0.2 0.2 0.5-0.3 0.9 0.8 1.3-0.5 0.7 0.1 0.8 0.4 0.5z" id="WI04" name="WI04 District"/>
    <path d="M669.5 192.1l-0.4-0.3-0.9-0.2-0.7 0.1 0.2 2.5-4 0.4 0.1 2-1.9 0.1-0.1-2-5.8 0.5-4 0.2-0.5-7.9-0.2-2.2-0.2-3.9 1.9-0.2 1 0.4 0.4-1-0.1-0.5 0.6 0 0.1 1 5.2-0.4-0.1-1.1-0.6 0.1-0.1-0.8-0.5-0.1 7.9-0.6 0.4 4-0.4 0 0.3 4 0.3 3.7 0.6 0.1 0 1.2 1 0.1 0.4-0.2 0.1 1z" id="WI05" name="WI05 District"/>
    <path d="M651.3 185.3l-1.7 0.2-4.2 0.3 0-0.2-5.9 0.4 0-0.6 0.6-1 0.4 0 0.9-0.6-0.3-4-1.2-0.2-0.9 0.1 0.1-0.7-0.8-0.1-0.4-0.8 3.1-0.3-0.4-5.4-0.5-8.3 2.2-0.1 3.9-0.3 6.1-0.4 1.3-0.2 0.2 1.7 0.4-0.4 0.6 0.3 0.6 0 0.6 0.3 0.4-0.4-0.1-0.7 0.7 0-0.1-1 2.6-0.2 0.5 5.5 4.1-0.3 0.1 0.5 1.8-0.2-0.6-6 2.6-0.2-0.2-1.9 5.6-0.5 0.1 0.8 0.7 1.4-0.1 1.1-0.6 0.9-0.6 0.3-0.7 0.7-0.1 1.2-0.4 0.8-0.1 1.2-0.3 0.7-0.1 1.3 0.3 1.6 0.6 1.1-0.2 0.6 0.2 1.1-1.2 3 0.1 1.6-0.1 0.7-1 1.8-0.1 1.9-0.3 1.3 0.5 1.3-2.9 0.2-0.3-4 0.4 0-0.4-4-7.9 0.6 0.5 0.1 0.1 0.8 0.6-0.1 0.1 1.1-5.2 0.4-0.1-1-0.6 0 0.1 0.5-0.4 1-1-0.4-1.9 0.2 0.2 3.9z" id="WI06" name="WI06 District"/>
    <path d="M645.5 153.7l-2 0.1-2.4 0.1-4.2 0.3-3.4 0.2 0.3 6-1.8 0.1 0.2 4 2.9-0.2 0.1 0.4-0.3 0.5 0.3 0.6-0.6 0.5-0.5 0 0 1-0.8 0.7 0.2 1 0.3 0.6 0 0.3 0.7 0.6 0.3 1.2-1.3 0.5-0.1-0.5-0.7 0.3-0.6 0-0.6 0.9-0.6-0.3-0.2-1.9-1.9 0.1-2.1 0-0.5-0.2-0.7-0.5-0.4 0.9-0.3 0-0.3-6-0.1 0-0.3-4-3.9 0.2-0.3 0.4-0.4-0.6-0.9 0.1-0.4 0.2-2 0.1-0.2-3.9 2-0.1-0.4-8-3 0.2 0.1 2-1.9 0.1-0.2-2.1-1.5-0.3-1.2 0-0.4 0.5-1.7 0.1-0.1-2-2 0.1-0.1-2-0.2 0-0.1-2-7.9 0.3 0.1 2 0.3 0 0.2 6-1.6 0.1-2.2 0-6.4 0.2-0.1-0.6 0.3-1.1-0.3-0.8 0.1-1.2-0.7-0.8 0.1-0.5 0.8-0.6-0.2-1.6-0.2-0.2 0.2-0.8-0.2-1.5 0.4-0.3 0.5-0.9-0.1-0.4 0.9-1 0-1-0.6-0.5-0.7-1.1-0.1-0.6-0.7-0.6-0.8 0.2-1-0.3-0.1-1.2 0.2-2.1 0.9-0.6 0.4-0.5 0.4-1.1-0.1-0.3 0.8-1.5 1.1-1.1 1.4-0.4 0.4-0.7 0.8 0.2 0.5-1 0.5-0.3 1 0.2 0.2-1 0.6-0.4-0.3-8.3-0.2-5.1 0.4 0.3 0.9 0 0.5-0.9-0.2-0.7 0.7 0.1 0.1-0.6 0.7-0.2 0.9 0.8 0.3 0.1 1.2 0.5 1.3-0.3 1.1-0.1 0.6-0.4 1.6-0.6 1.1-0.6 1 0 1.3-0.6 0.3-0.3 0.6 0 0.5-0.6 1.2-0.5 0.4-0.6 0.7 0.3 0.8-0.4 0.6 0 0.9-0.7 0-0.3 0.6-0.4 0.5-0.6 0.5 0.2 1-0.7 0.5 0.1 0.1 0.5 0.6 0 0.4 1.2-0.2 0.9-0.7 1.2-0.3 0-0.4 0.8 0.5 1.3-0.2 0.4-0.7 0.5-0.1 0.8-0.4 0.6 0.7 0.4 1.3-0.9 0.5-0.2 1.2-1 0.5 0.2 1.6 1.2 0.8 0.4 0.5-0.2 1.1 0.5 0.3-0.1 0.4 0.7 0.7-0.2 0.6 0.1 0.8 0.7 0.7 0 1.1 2 0.7 1.1 0 0.5 3.2 0.7 7.4 1.5 6 1.2 4 2 1.1 0.5 0.7-0.3 1 0.2 0.3 0.5 0.7 0 0.8-0.7 0.9-0.1 0.2 0.5 0.5-0.2 0.7 0.4 0.6-0.3 1.4 0.7 0.7-0.2 0.4 0.3 0.8-0.1 0.9 0.6 0.4 0 0.1 0.8 0.5 0.2-0.9 1.2 0.1 0.3 0.6 0.5 0.6 0.1 0.1 1.5-1.9 0.1-4 0.2 0.5 5.9 0.1 2-4 0.2 0.3 4 0.6 0 0.1 1.9-5.5 0.4 0.2 2.1-3.9 0.3 0.6 7.9z m-26.1-49.6l0.2-0.4 1.7-0.7 0.3 0.3-0.5 0.7-1.5 0.5-0.2-0.4z m2.8-2l0.1-0.9 0.3-0.7 0.6-0.1 0 1.2-0.6 0.6-0.4-0.1z m-8 1l0.5-0.3 0.3 0.6-0.6 0.1-0.2-0.4z m3.4 0.6l0.4-0.4 0.4 0.1 0.4 0.9-0.7 0.1-0.5-0.7z m-0.2 3.7l0.9-0.4 0.3-0.5 0.8-0.6 0.6-0.7 0.8 0.5-1.6 0.8 0.3 0.7-0.9 0.1-0.8 0.8-0.4-0.7z" id="WI07" name="WI07 District"/>
    <path d="M646.2 163.7l-0.5-7.4-0.2-2.6-0.6-7.9 3.9-0.3-0.2-2.1 5.5-0.4-0.1-1.9-0.6 0-0.3-4 4-0.2-0.1-2-0.5-5.9 4-0.2 1.9-0.1-0.1-1.5 0.9-0.4 0.6 0.8 1.3-0.1 0.8 0.8 0.4 0.1 0.6 0.8-0.7 0.4 0.3 0.5 0.6 0.8-0.4 1.3 0.3 1-0.2 0.9-0.7 0.7 0.2 0.6-0.5 1.1 0.6 0.3 1-0.3 0.6 0.1 0.8-1 0.7 0.4 0.2 0.6-0.6 1.1-0.4 2.1-0.1 0.7 0.9 0.7 0.4 0.7 1.2 0.3-0.5 1.1 0.1 1.4-0.7 0.3-1.6 0.4-0.6 0.3-0.4 0.8 0.2 0.5-0.5 1.3-0.4 0.3-0.5 1.5-0.7 1.1-0.1 0.8-0.3 1.2 0.1 1.2-0.2 0.6 1.1 0.5 0.6-0.1 0.6-1.4 0.4-0.6 0.8-0.5 0.7-0.2 0.6-1.3-0.1-0.6 0.9-1.4 0.7-1.4 0.5-0.4 0.3 0.2 0.9-0.4 0.7-0.5 0.4-0.1 0.9 1-0.1-1.2-0.5-0.4 0.6-1.9 0.5-1.2 0.9-1.2 0-0.6 0.2-1.4 0.7 0.1 0.7-0.7 0.5 0-0.2-0.7 0.2-0.8 0.5 0 0.3-0.8 0.9-0.3 0.5 0.4-0.2 0.3 0.1 1.1-0.8 0.1-0.1 1 0.1 0.8-0.2 0.3 0.2 0.7-0.6 0-0.5 0.7-0.2 1.3-0.3 0.2-0.4 0.8 0.3 0.9-0.6 0.8 0.3 0.5-0.9 0.6-0.3 0.9-0.5 0.6-0.3 1.6-0.6 1.9-0.6 0.9-0.4 1.2-0.2 1-0.3 3.1-0.3 1.2-5.6 0.5 0.2 1.9-2.6 0.2 0.6 6-1.8 0.2-0.1-0.5-4.1 0.3-0.5-5.5-2.6 0.2 0.1 1-0.7 0 0.1 0.7-0.4 0.4-0.6-0.3-0.6 0-0.6-0.3-0.4 0.4-0.2-1.7-1.3 0.2-6.1 0.4z m34.5-28.4l0.1-1.4 0.5 0.1 0.6-0.2 0.8 0.1-0.5 1.7-1 0.2-0.5-0.5z m-6.4 4.5l0-0.3 0.7-0.3 0 0.9-0.7-0.3z" id="WI08" name="WI08 District"/>
    <path d="M526.4 128.9l-10.5-0.1-4.1 0-8.7-0.2-6.2-0.1-5.5-0.2-8.6-0.4-7.4-0.2-8.7-0.5-7-0.3-4.7-0.2-6-0.4-5.8-0.3-5.4-0.4-5.1-0.3-8.6-0.6-6.1-0.5-6-0.5-4.8-0.4 0.1-1.2 0-0.2 0.1-0.8 0.2-1.7 0.3-3.3 0-0.5 0.1-0.9 0-0.3 0.1-0.7 0.2-3 0.3-3 0.4-5.2 0-0.6 0.1 0 0-0.3 0.3-3.3 0-0.4 0.1-1.3 0.1-0.5 0.2-2.6 0-0.2 0.4-5.1 0.2-1.5 0.1-1.4 0.1-1.7 0.1-0.5 0.3-2.9 0.4-5.2 0.1-1.8 0.1-0.8 0-0.6 0-0.1 0.1-0.8 0.1-1.5 0.1-1.5 0.5-5.5 0-0.6 0.2-1.6 0.1-1.4 0.1-1.6 0-0.3 0.1-1.2 0.1-1.2 0.1-0.3 8.7 0.8 7.5 0.5 6.2 0.5 5.4 0.4 9 0.5 7.5 0.4 9.1 0.5 9 0.4 6.7 0.3 3.8 0.1 9.5 0.3 7.6 0.2 10 0.1 3.6 0.1-0.2 0.7 0.2 0.2-0.1 0.3 0.5 1.5 0.4 0.7-0.1 1.1 0.3 0.3 0.8 2.2 0.1 0.7-0.5 0.6-0.2 1.1-0.4 0.7 0.2 0.5 0.2 1.5-0.1 0.5 0.2 0.8-0.4 0.5 0.1 0.5 0.4 0.5-0.1 0.5 0.2 0.9-0.3 1 0.1 0.6-0.3 0.5 0 1 0.4 0.8 0.3 0.2 0 0.6 0.5 0.6 0.2 2.2 0.6 0.7 0 1.1 0.5 0.9 0 0.6 0.6 0.8 0.3 1.3 0.3 0.5 0.2 1.1 0.6 1.1-0.2 1.2 0 1.1 0.1 0.7-0.1 1 0.3 0.8-0.2 0.1 0.3 0.9-0.2 1 0.2 1.3-0.1 0.5 0.2 0.7-0.2 0.8 0.3 0.9-0.1 0.7 0.1 0.6-0.3 1 0.2 0.9 0.3 0 0.2 0.8 0 0.1 0.5 0-0.1 0 0.1 0.1 0.1 0-0.2 0 0.1 0.1 0 0.1 0.1 0-0.1 0-0.3 0.5 0 0.8-0.1 0.1 0 0.4-0.1 0.1-0.1 0.1-0.1 0.1 0.1 0.5-0.1 0.1 0.2 0.2 0.1 1.5-0.2 1.1-0.1 0.4 0.4 1.4 0.3 0.2 0.3 2.4 0.3 0.4 0.7 2 1.1 1 0 2.3 0.2 0.6 0 0.6 0.5 1.9-0.1 0.7-0.3 0.9 0.2 2z" id="ND00" name="ND00 District"/>
    <path d="M529.8 233.1l-2.7-0.1-1.4-0.9-1.1 0-1 0.2-0.9-0.6-1.2 0.2-1.5-0.3-0.1 4.4 0 5 7.6 0.1 0 0.6 1.9 0 0-0.6 0.5 0 0.6 0.5 0.6 0.1 0.8 0.5 1-0.5 0.6-0.7 1-0.4 0.8 0.1 0-1.6-0.1 0-2.5 0 0-1.3 4-0.1 1 0.1-0.3 0.8 0.4 1.4-0.4 0.6 0.4 0.6 0 1 0.5 0.3-0.1 1.4 0.4 0.9-0.6 0.4 0.2 0.7-0.1 0.7 0.2 0.4 0 0.1-0.1 0-0.2 0-0.1 0-1.1 0-3.5 0-3.3 0-2.6 0 0 6-7.7-0.1 0-4-7.8-0.1 0.1-10.7-3.3-0.1 0.1-1.6-0.4 0 0.1-2.3-0.4 0.1 0.1-1.5-1.8 0 0-3.1-2.1 0 0-5 0.2-7.9 0.3 0 6.8 0 5.4 0.1 9 0.1 0 8 1.9 0 0 5 0.3 1 1 1.1 0.6 0 0 1z" id="NE01" name="NE01 District"/>
    <path d="M397.5 236.2l0.8-9.1 0.4-4.4 0.6-7.4 0.5-5.8 0.6-7.6 0.4-3.7 0.6-7.7 6.7 0.5 2.9 0.2 9.7 0.8 4.4 0.3 8.3 0.6 4.4 0.2 3.8 0.4 6.8 0.3 0.6 0 5 0.3 6 0.3 8.2 0.4 6.7 0.2 7.3 0.3 5.1 0.2 6.5 0.1 0.5 1.2 0.4 0.5 0.4-0.1 1.2 0.7 0.3 0.4 1.1 0.3 0.7 0.5 0.8 0.4 0.4-0.1 0.3 0.5 1.5 1.3 1.5-0.1 1-1.1 0.2-0.9 0.7-0.2 1 0.4 1.5 0.2 1.3-0.3 0.7 0.2 1-0.2 1.1 0.3 0.4-0.5 1.2 0.3 0.6-0.3 0.3 0.3 0.7 0 0.5 0.3 0.1 0.7 1 0.4 0.3 0.6 1 0 1.5 0.3 0.5 0.9 0.6-0.3 1.8 0.7 0.1 0.7 0.6 0.3 0.6-0.2 0.7 0.4-0.4 1 0.4 0.7 0.8 0.6 0.2 0.9 0.4 0.2 0.8-0.4 0.5 0.3 0.4 0.6 1-0.2 0.7 0.1 0.3 0.9-0.5 0.8 0.1 1.7 0.6 0.7 0 0.4 0.6 0.7 0.2 0.7-0.6 0.5 0.2 1 0.6 0.8 0.7 0.5-0.2 0.8 0.2 0.7 0.6 0.1 0.2 0.4 0.6 0.4-0.1 0.4 1 0.5-0.2 1.2-0.3 0.2 0.4 0.9 0.4 0.4 0.1 0.6 0.7 0.7-0.2 0.7-0.5 0.5 0.6 0.7-0.8 0.4 0 0.3 0.4 0.7-0.4 0.6 0.1 0.5 0.5 0.6-0.2 0.7 0.6 0.8 0.4-0.1 0.2-0.6 0.4 0 0.1 0.6-0.4 0.5 0.2 0.4 1.2 0.2 0 1.7-6.7 0 0-1-0.6 0-1-1.1-0.3-1 0-5-1.9 0 0-8-9-0.1-5.4-0.1-6.8 0-0.3 0-0.2 7.9 0 5 2.1 0 0 3.1 1.8 0-0.1 1.5 0.4-0.1-0.1 2.3 0.4 0-0.1 1.6 3.3 0.1-0.1 10.7 7.8 0.1 0 4 7.7 0.1 0-6 2.6 0 3.3 0 3.5 0 1.1 0 0.1 0 0.2 0 0.1 0 0-0.1 0 0.1-0.1 0.1-0.2 0.3-0.5 0.3-0.1 0.8 0.6 0.4 0.1 0.5 0.9 0.4 0.4 0.9 0.3 0.4 0 0.4-0.4 0.2 0.3 1.2 1-0.1 0.1-0.6 0.4-0.1 0.3 0.5-0.1 0.5-0.7 0.3 0.1 0.8 0.6 0.6 0 0.6 0.3 1.1 0.3 0.6-0.5 0.5 1.7 0.7 0 0.5 0.7 0.5 0.6 0.1 0.2 0.5-0.1 0.9 0.6 0.5 0.2 0.5 0.6 0.3-0.4 1.7 0.5 0.6 0.5-0.1 0.9 0.7-6.2 0-9.9 0-4.7 0-9.4-0.1-6.4-0.1-7.2-0.1-5.6-0.2-9.9-0.2-10.2-0.3-8-0.3-8-0.4-4.6-0.2-9.6-0.5-10-0.5-7.4-0.5 0.3-4.9 0.4-6.5 0.4-5.6 0.3-5.9-8.6-0.6-4.6-0.3-9.2-0.7-5.2-0.4-6.6-0.6z" id="NE03" name="NE03 District"/>
    <path d="M536.7 237.7l-4 0.1 0 1.3 2.5 0 0.1 0 0 1.6-0.8-0.1-1 0.4-0.6 0.7-1 0.5-0.8-0.5-0.6-0.1-0.6-0.5-0.5 0 0 0.6-1.9 0 0-0.6-7.6-0.1 0-5 0.1-4.4 1.5 0.3 1.2-0.2 0.9 0.6 1-0.2 1.1 0 1.4 0.9 2.7 0.1 6.7 0 0.1 0.5-0.5 0.5 0.6 0.6 0.7 0.1 0.1 0.8-0.9 0 0.3 1-0.2 1.1z" id="NE02" name="NE02 District"/>
    <path d="M745.1 261.7l0.4 7.3-4.4 0.2-0.9 1.1 0.1 0.3 0.7 0.2-0.3 0.7 0 3.5-0.7-0.4-1.2-0.1-0.4-1.2-0.8-0.1-0.4 0.6-0.8 0-0.3 0.4-1 0.2-1.1-0.5-0.4-0.5 0.3 0.1 1.5-0.1-0.3-0.7 0.6-0.4 0-0.9 0.5-0.2 1 0.1 0-0.5 0.8-0.1-0.2-0.9 0.3-0.2 0.7 0 0-0.5 0.6-0.2-0.2-3.8-0.2-2.1-0.5 0.2-0.2-1.1 1.4-0.1 5.4-0.3z" id="OH01" name="OH01 District"/>
    <path d="M745.1 261.7l-5.4 0.3-1.4 0.1-1.9 0.2-1.1-7.4 3.7-0.6 2-0.2 0.1 0.8 1.9-0.1 0 0.7 2-0.1-0.1-1.1 0.6-0.4 0-0.9 0.7 0 0.4-0.4-0.1-0.6 1.2 0 0 0.4 1.1 0.1 0.2 3.9 1.2-0.1 0.3 5.2-5.4 0.2z" id="OH10" name="OH10 District"/>
    <path d="M783.4 213.3l-1.7 0.2 0.1 1.2-0.7 0.1-0.8-0.1-0.8-0.6-0.7-0.1-1.2 0.3-0.2-1-0.5 0.5-0.1 0.5-0.7 0.2-0.4 0.7-0.3-0.2 0.2-0.7 0.5-0.7-0.5-0.7 1-0.3 0.6 0.1 0.8-0.8 1.4-1.2 1-1.4 0.6-0.5 0.2 1.4 1.7-0.3 0.5 3.4z" id="OH11" name="OH11 District"/>
    <path d="M785.4 264.4l-0.5 0.9-5.6 0.5-3.3 0.2-0.2-2-0.7 0-0.2-4.1 1.9-0.1-0.1-2.1-1.8 0.2-0.1-0.7-2.1 0.2-0.1-1.4-2 0.2 0.1 1.3-2.1 0.2 0.1 1-2 0.2 0.1 0.3-2 0.1-0.2-2-0.2-3.4 0.3-0.6-0.2-2.1-0.3-0.4 0.5-0.3 0-0.8-0.3-3.5-2.1 0.2-0.2-0.3-0.9 0.1-0.4-4.8 4.9-0.4-0.4-4.1-0.2-0.6 4.6-0.7 2.6-0.8-0.1-0.6 3.8-0.5 0.5-0.2 2-0.2 0-1.2 0.9-0.3 0-0.3 2.2-0.4 0.2 0.8 2.3-0.8 0.2 1.7 0.8 1.7-0.2 0.5-1.1 0.2 0.1 1.2 0.8-0.1 0.1 0.5 1-0.1 0 0.6 0.9 0.1 1.1-0.1 0.4 0.6 1-0.1 0.1 0.6-1 0.2 0.4 3 1.9-0.3 0.7 5-2 0.3-0.6 0.1 0 0.7-1.3 0.2 0.1 0.6-2 0.3 0.2 1.3-2 0.2 0.3 2 1-0.1 0.2 2 1-0.1 0.2 1.8-1.7 0.1-0.4 0.3-0.1 0.8 0.4 0.3 0.1 1.2-0.9 0.1-1.1-0.1 0.1 1-0.3 0 0.3 3.1 0.7 0.2 0 0.7 1.7-0.2 0.2 1.3z" id="OH12" name="OH12 District"/>
    <path d="M783.6 215l1 6.5 0.4 0.7 0.2 0.8 1.3-0.1 0.4 4.1-0.2 0.6-1.1 0.7-0.5 0.5-0.2-1.7-1.1 0.1-0.1 0.8-0.4 0.6 0.3 0.7-2.2 0.3-0.8-5.8-0.7 0.1-1-6.5 2.1-0.4-0.9-1.5 3.5-0.5z" id="OH13" name="OH13 District"/>
    <path d="M783.4 213.3l-0.5-3.4-1.7 0.3-0.2-1.4 0.6-1.1 0.8-0.9 1.6-1.4 1-0.4 1.4-1.2 2-1.3 1.6-0.6 1.2-0.8 0.3-0.4 0.5-0.1 2.3-1.2 1.7-1 0.8 5.1 1.3 7.9 1 6.1-8.1 1.3 0.5 3.3-5 0.8-1.3 0.1-0.2-0.8-0.4-0.7-1-6.5-0.2-1.7z" id="OH14" name="OH14 District"/>
    <path d="M750.5 261.5l-0.3-5.2-1.2 0.1-0.2-3.9-1.1-0.1 0-0.4-1.2 0 0.1 0.6-0.4 0.4-0.7 0 0 0.9-0.6 0.4 0.1 1.1-2 0.1 0-0.7-1.9 0.1-0.1-0.8-2 0.2-0.2-1.6 1.5-0.2-0.6-0.5-1.4 0.1-0.2-1.7-2.3 0.3-0.7-5.2 2.6-0.5 0 0.7 0.6-0.4-0.1-0.9 0.7 0.1 0.1 0.7 0.9-0.1 0.4 0.1 0.9-0.8 0.6 0 0.6 0.3 0.3 6.4 9.1-0.4-0.1-2.4 5.8-0.7-0.1-0.8 1.8-0.1 0.2 0.8-0.6 0.1 0.1 1.1 0.3 1 0.6 0.6 1 0 0.7 1 0.1 0.5 0.7-0.4 0.9-0.1 0.2-0.5 0.8 0 0.3 0.4 0.2 2.1-0.3 0.6-3.7 0.3-3.6 0.3 0.5 6.8-1.4 3.5-0.3-1-1.1-1-0.9 0.3-0.3 0.5-1.3 0.8-0.1-3-1.7 0.1z" id="OH15" name="OH15 District"/>
    <path d="M785.4 267.1l-1 1 1 0.9-0.2 1.2 0.6 0.7-0.5 0.2-0.6-0.4-0.4 0.5 0 0.7-0.7 0.7-0.7-0.5 0.4-0.9-0.8-1.1-0.8 0-0.6-0.8-0.5 0.3-0.2 0.7-0.6 0.5-0.4 1.6-0.2 0.3 0.1 1.3-0.7 0.7-0.4 0.7 0.4 0.6 0.5 1.1-0.1 0.7 0.6 1.2-0.1 0.6-0.7 0.3-0.9 0-0.3 0.5 0.1 1.8-0.2 1.2-1.1 0.5-0.3-0.1-2.2 1.1-0.6 0.1-0.5-0.3-0.5-1.1-1-0.7-0.7-0.7-0.6-0.3-1.2 0.1-1-0.6-0.4-1.6-0.4-0.4 0-1-0.6-0.6-0.7 0.4-0.5 0.4-1 0.2-0.5 0.9-0.7 0.5-0.3 1-0.3 0.4-0.9 0.1-0.6-0.2-0.4 0.2-0.4 0.7-0.4 0-0.5-0.9-0.6-0.3-1.9-0.2-0.8-0.5-0.5 0.1-1.2 0.5-0.4 0.4-0.1 0.8-0.4 0.3-1-0.4-0.9 0-0.4-1-1-0.4-0.4-0.7-2.2-0.5-1.1 0.5-0.9 0.1-1.2-0.4-1-0.1-0.3-0.4-0.4-1.6-1-1.2-0.4-1-0.4-0.5 0-3.5 0.3-0.7-0.7-0.2-0.1-0.3 0.9-1.1 4.4-0.2-0.4-7.3 5.4-0.2 1.7-0.1 0.1 3 1.3-0.8 0.3-0.5 0.9-0.3 1.1 1 0.3 1 1.4-3.5-0.5-6.8 3.6-0.3 3.7-0.3 0.2 3.4 0.2 2 2-0.1-0.1-0.3 2-0.2-0.1-1 2.1-0.2-0.1-1.3 2-0.2 0.1 1.4 2.1-0.2 0.1 0.7 1.8-0.2 0.1 2.1-1.9 0.1 0.2 4.1 0.7 0 0.2 2 3.3-0.2 5.6-0.5 0.3 0.6 0.2 1.2z" id="OH02" name="OH02 District"/>
    <path d="M762.3 246.4l2.1-0.2 0.3 3.5 0 0.8-0.5 0.3-0.8 0-0.2 0.5-0.9 0.1-0.7 0.4-0.1-0.5-0.7-1-1 0-0.6-0.6-0.3-1-0.1-1.1 0.6-0.1-0.2-0.8 3.1-0.3z" id="OH03" name="OH03 District"/>
    <path d="M772.2 234.2l0.1 0.6-2.6 0.8-4.6 0.7 0.2 0.6 0.4 4.1-4.9 0.4 0.4 4.8 0.9-0.1 0.2 0.3-3.1 0.3-1.8 0.1 0.1 0.8-5.8 0.7 0.1 2.4-9.1 0.4-0.3-6.4-0.6-0.3-0.6 0-0.9 0.8-0.4-0.1-0.9 0.1-0.1-0.7-0.7-0.1 0.1 0.9-0.6 0.4 0-0.7-2.6 0.5-0.1-0.7-0.4 0-0.9-7.5 1-0.1-0.4-3 1-0.1-0.1-1 3.9-0.6-0.1-1 1.9-0.2 0-0.3 2-0.3 0.3 2.3 8.2-1-0.3 0.3 0.2 1.7 1.9-0.3 0.1 0.7 5.7-0.8 1.9-0.3 0-0.2 2.2-0.3-0.8-6.5 4.9-0.6-0.3-1.6 4.5-0.7 0.2 1.7 0.8-0.1 0.4 2.4 0.2 1.8 0.5 3.1-1.6 0.3 0.3 1.6z" id="OH04" name="OH04 District"/>
    <path d="M771.4 223.4l-4.5 0.7 0.3 1.6-4.9 0.6 0.8 6.5-2.2 0.3 0 0.2-1.9 0.3-5.7 0.8-0.1-0.7-1.9 0.3-0.2-1.7 0.3-0.3-8.2 1-0.3-2.3-2 0.3 0 0.3-1.9 0.2 0.1 1-3.9 0.6 0.1 1-1 0.1 0.4 3-1 0.1 0.9 7.5 0.4 0-2.8 0.4-3.5 0.4-0.8-6.3-0.8-7.1-0.9-7.2 5.9-0.7 0.1 1 2-0.2 0.1 1 1.9-0.3-0.7-5.9-1.9 0.2-0.2-1.3 4.8-0.6 3-0.4 0.2 1.6 0.5 0 1.6-1.4 0.5-0.7 0-0.5 1.1 0 0.1 0.7 2-0.3-0.1-0.8 1.9-0.3 0.7 6 2.9-0.4 2-0.3 4.9-0.7-0.1-0.8 6.7-0.8 1.7-0.3-0.6-3.2 1.6-0.4 1.2-1 2.6-1.4 0.8 0.1 0.5 3.5 1.5-0.2 0.3 1.7-1.6 0.2 0.2 1.7-1.6 0.3 0.1 1.4-1.6 0.3 0.2 1.6z" id="OH05" name="OH05 District"/>
    <path d="M801 228.7l-1 0.7-0.8 0.1-0.5 0.7 0.1 0.5 0.7 0.7 0.3 0.7 0.5 0.7-0.1 1 0.1 0.6-0.3 0.2 0.5 0.5 0 0.5 0.3 0.7-0.2 1.3-0.5 0.8 0 0.7-0.5 1.2 0.1 1.2-0.4 0.7 0.3 0.6-0.1 0.9 0.2 0.8-0.3 0.7 0.2 0.7-0.7-0.1-0.2 0.4 0.5 0.9-0.5 0.6 0.1 1-0.6 0.9 0.9 1-0.5 0.7 0.1 0.8-0.1 0.8-0.9 0.3-1.4 1.6-1 1.5-0.5 1.3-0.8 0.4-0.4 1-0.9 0.3-1.2 1.1-0.7 0.2-0.5-1-0.5-0.3-0.4 0-0.7 0.8-0.9 1 0.1 1.5-1.9 0.3-0.3 0.5 0.2 0.6-0.5 0.4-0.2-1.3-1.7 0.2 0-0.7-0.7-0.2-0.3-3.1 0.3 0-0.1-1 1.1 0.1 0.9-0.1-0.1-1.2-0.4-0.3 0.1-0.8 0.4-0.3 1.7-0.1-0.2-1.8-1 0.1-0.2-2-1 0.1-0.3-2 2-0.2-0.2-1.3 2-0.3-0.1-0.6 1.3-0.2 0-0.7 0.6-0.1 2-0.3-0.7-5-1.9 0.3-0.4-3 1-0.2-0.1-0.6-1 0.1-0.4-0.6-1.1 0.1-0.9-0.1 0-0.6-1 0.1-0.1-0.5-0.8 0.1-0.1-1.2 1.1-0.2 0.2-0.5-0.8-1.7-0.2-1.7-2.3 0.8-0.2-0.8-0.2-1.5 2.2-0.3-0.3-0.7 0.4-0.6 0.1-0.8 1.1-0.1 0.2 1.7 0.5-0.5 1.1-0.7 0.2-0.6-0.4-4.1 5-0.8-0.5-3.3 8.1-1.3 1.1 6.4 0.8 4.8z" id="OH06" name="OH06 District"/>
    <path d="M775.6 212.9l0.5 0.7-0.5 0.7-0.2 0.7 0.3 0.2 0.4-0.7 0.7-0.2 0.1-0.5 0.5-0.5 0.2 1 1.2-0.3 0.7 0.1 0.8 0.6 0.8 0.1 0.7-0.1-0.1-1.2 1.7-0.2 0.2 1.7-3.5 0.5 0.9 1.5-2.1 0.4 1 6.5 0.7-0.1 0.8 5.8 0.2 1.5-2.2 0.4 0 0.3-0.9 0.3 0 1.2-2 0.2-0.5 0.2-3.8 0.5-0.3-1.6 1.6-0.3-0.5-3.1-0.2-1.8-0.4-2.4-0.8 0.1-0.2-1.7-0.2-1.6 1.6-0.3-0.1-1.4 1.6-0.3-0.2-1.7 1.6-0.2-0.3-1.7-1.5 0.2-0.5-3.5 0.4 0.2 1.4 0 0.4-0.2z" id="OH07" name="OH07 District"/>
    <path d="M738.3 262.1l0.2 1.1 0.5-0.2 0.2 2.1 0.2 3.8-0.6 0.2 0 0.5-0.7 0-0.3 0.2 0.2 0.9-0.8 0.1 0 0.5-1-0.1-0.5 0.2 0 0.9-0.6 0.4 0.3 0.7-1.5 0.1-0.3-0.1-0.8-0.3-0.5 0.7-0.5 0.4-0.6-4.6-0.5-5-0.8-6.7-0.8-8.3-0.4-4 3.5-0.4 2.8-0.4 0.1 0.7 0.7 5.2 2.3-0.3 0.2 1.7 1.4-0.1 0.6 0.5-1.5 0.2 0.2 1.6-3.7 0.6 1.1 7.4 1.9-0.2z" id="OH08" name="OH08 District"/>
    <path d="M767.2 215.6l0.6 3.2-1.7 0.3-6.7 0.8 0.1 0.8-4.9 0.7-2 0.3-2.9 0.4-0.7-6-1.9 0.3 0.1 0.8-2 0.3-0.1-0.7-1.1 0 0 0.5-0.5 0.7-1.6 1.4-0.5 0-0.2-1.6-3 0.4-4.8 0.6 0.2 1.3 1.9-0.2 0.7 5.9-1.9 0.3-0.1-1-2 0.2-0.1-1-5.9 0.7-1.2-10.1 5.5-0.8 4.8-0.8 8.1-1.3 4.2-0.8-0.2 0.9 0.9 0 1.2-0.1 0.2-0.4 2.4 1.3 1 0.2 0.8 0.1 0.5 0.2 0.8 0.8 1.3 0.7 0.7 0.1 0.6-0.3 0.5-0.6-0.1-0.8 0.3-0.2 1 1 1.1-0.2 0 0.7-0.6 0.3-1.4 0.2-0.6 0.4-1.3 0.2-0.1 0.8 0.4 0.6 0.5 0.1 0.4-0.4 1-0.5 0.4-0.6 0.8 0.5 0.6-0.2 0.8-0.7 1.5 1.1 1.6 0.6 0.5 0 2.1-1.4z m-7-3.1l0.1-0.3 0.7 0 0 0.6-0.8-0.3z" id="OH09" name="OH09 District"/>
    <path d="M430.3 261.7l7.4 0.5 10 0.5 9.6 0.5 4.6 0.2 8 0.4 8 0.3 10.2 0.3 9.9 0.2 5.6 0.2 7.2 0.1 6.4 0.1 9.4 0.1 4.7 0-0.1 10 9.1 0 2.6 0.9 0 2.5 2-0.1 4.9 0 0 6.7-0.1 0 0.1 4.5-1.5 0.3-0.8-0.4-0.4-0.1 0-2-1.8-0.9-0.8 0.3-1.1-0.2-0.6 0.3-0.3-0.3 0.1-1.4 0-2-7.8 0 0 2-0.9-0.6 0.5-0.3-0.5-0.6-0.4-0.2-0.3 0.3-0.9 0-0.3-0.4-0.7-0.1-0.6 0.7-0.5-0.4-0.5 0.3-0.1 0.4-0.5 0.2-0.5-0.4-0.1 3-1.9 0 0-0.7-3.6 0 0-0.4-0.7 0.1-1.9-0.1 0.4-0.7-0.3-0.4 0-1.9-2 0-0.1 5.9 0.7-0.4 0 2.5 0.6 0.1 0 1.3-0.7 0 0 2.7-0.1 0.8 0 1.2-7.8-0.1-0.1 10-5.9-0.1-0.2 8 0.1 2.1-3 0-5.5-0.1-5.3-0.1 0.1-2.2-0.2 0 0.2-7.4 0.1-2.6-9.8-0.3 0 0.5-1.2 1.2-0.8 0.2-7.8-0.3-0.3 8.1 0.2 0-0.3 10 0.2 0.2-0.2 4.3-0.1 4.5 3.2 0.1-3.5-0.1-8.2-0.4-0.5 0-6.1-0.3-6.5-0.2-8.7-0.4-7-0.4-4.8-0.2-3.2-0.2-0.2 0 0.2 0 0.2-3.2 0.2-2.1 0.3-4.3 0.4-6.6 0.3-6.6 0.5-6.9 0.4-6.5 0.6-9.5 0.5-9 0.5-8.7 0.4-5.8z" id="KS01" name="KS01 District"/>
    <path d="M531.3 265.1l9.9 0 6.2 0 1.1 1.2 0.7 0.1 0 0.7 0.3 0.3 0.8-0.1 0.1 0.5 1 0.4 0.8-0.1 0.4-0.8 1 0 0.4 0.2-0.1 0.9 0.8 0.4 0.3 0.6-0.2 0.4-0.5 0-0.3 0.4 0.4 0.4 0.7-0.4 0.2 0.5-0.3 0.5-0.4 0.2-0.8-0.5-0.4 0.4 0 0.8-0.9 0.6-0.6 1 0 1-0.9 0.2 0 0.7 1 1 0.3 0.8 0.8 0.4 0.3 0.5 1 0.9 0.5-0.2 0.2 0.4-0.6 0.5 0.3 1.3 0.9 0.6 0.3 0.5-0.1 0.7 0.9 0.2 0.5 0.8 0.7 0.1 0.5-0.3 0.5 0.2 0.1 0.4 0.9-0.1-0.1 1.6-0.7 0.3-0.5-0.5-0.6 0.1-0.5-0.3-1.3 0.2-0.7-0.4-1 0.1 0.1 2.8-0.5-0.2-0.2 0.4-1.3-0.3-0.1 0.4-0.5 0 0 5.6-7.9 0-0.1 1.9 0.1 9.2-0.2 0 0 5.1 7.9-0.1 0-5.1 0.2 0-0.1-3 8.1-0.1 0 3.9 0.1 5.7 0 4.5 0.1 6.4 0 3.1 0.1 8.4-6.2 0.1-10.4 0.1-5.2 0-2.5 0 0-8.9 0-1.4 0.1-8.6-0.1-8.1-7.1 0 0 2-10.5-0.1-3.7-0.1 0.1-2-3.9 0 0.1-10 7.8 0.1 0-1.2 0.1-0.8 0-2.7 0.7 0 0-1.3-0.6-0.1 0-2.5-0.7 0.4 0.1-5.9 2 0 0 1.9 0.3 0.4-0.4 0.7 1.9 0.1 0.7-0.1 0 0.4 3.6 0 0 0.7 1.9 0 0.1-3 0.5 0.4 0.5-0.2 0.1-0.4 0.5-0.3 0.5 0.4 0.6-0.7 0.7 0.1 0.3 0.4 0.9 0 0.3-0.3 0.4 0.2 0.5 0.6-0.5 0.3 0.9 0.6 0-2 7.8 0 0 2-0.1 1.4 0.3 0.3 0.6-0.3 1.1 0.2 0.8-0.3 1.8 0.9 0 2 0.4 0.1 0.8 0.4 1.5-0.3-0.1-4.5 0.1 0 0-6.7-4.9 0-2 0.1 0-2.5-2.6-0.9-9.1 0 0.1-10z" id="KS02" name="KS02 District"/>
    <path d="M560.1 302l-8.1 0.1 0.1 3-0.2 0 0 5.1-7.9 0.1 0-5.1 0.2 0-0.1-9.2 0.1-1.9 7.9 0 0-5.6 0.5 0 0.1-0.4 1.3 0.3 0.2-0.4 0.5 0.2-0.1-2.8 1-0.1 0.7 0.4 1.3-0.2 0.5 0.3 0.6-0.1 0.5 0.5 0.7-0.3 0.1 5.6 0 5.5 0.1 5z" id="KS03" name="KS03 District"/>
    <path d="M536.1 334.2l-3.4 0-6.3 0-11.1-0.1-3.6 0-5.2-0.1-0.7 0-1.7-0.1-4.8 0-6.4-0.2-5.5-0.1-8.2-0.3-4.7-0.2-3.2-0.1 0.1-4.5 0.2-4.3-0.2-0.2 0.3-10-0.2 0 0.3-8.1 7.8 0.3 0.8-0.2 1.2-1.2 0-0.5 9.8 0.3-0.1 2.6-0.2 7.4 0.2 0-0.1 2.2 5.3 0.1 5.5 0.1 3 0-0.1-2.1 0.2-8 5.9 0.1 3.9 0-0.1 2 3.7 0.1 10.5 0.1 0-2 7.1 0 0.1 8.1-0.1 8.6 0 1.4 0 8.9z" id="KS04" name="KS04 District"/>
    <path d="M733.6 273.4l0.4 0.5 1.1 0.5 1-0.2 0.3-0.4 0.8 0 0.4-0.6 0.8 0.1 0.4 1.2 1.2 0.1 0.7 0.4 0.4 0.5 0.4 1 1 1.2 0.4 1.6 0.3 0.4 1 0.1 1.2 0.4 0.9-0.1 1.1-0.5 2.2 0.5 0.4 0.7 1 0.4 0.4 1 0.9 0 1 0.4 0.4-0.3 0.1-0.8 0.4-0.4 1.2-0.5 0.5-0.1 0.8 0.5 1.9 0.2 0.6 0.3 0.5 0.9 0.4 0 0.4-0.7 0.4-0.2 0.6 0.2 0.9-0.1 0.3-0.4 0.3-1 0.7-0.5 0.5-0.9 1-0.2 0.5-0.4 0.7-0.4 0.6 0.6 0 1 0.4 0.4 0.4 1.6 1 0.6 1.2-0.1 0.6 0.3 0.7 0.7-1.6 2-0.1 0.4-0.5 0.6-0.1 0.4-1.7-0.3-1 0.2-0.6-0.3-0.1 0.6-0.8 0.1-1 0.8 0 0.4-0.7 0.1-1.1 0.5-1 0.6-1.3-0.2-0.2-0.4-1.1-1.1-0.6 0.4-0.3-0.4-2.1-0.4 0-0.7-0.6-1-0.4 0.1-0.3-0.5-1.4 0.7-2.3 1.4-1.3-0.7-1.2 1.6-1.2-0.4-0.5 0-1.4 2.2-1.4 1.5-1 0.8-0.8 0.2-0.8-0.3-0.5-0.8-0.2-1-0.8-0.8-0.6-0.3 0-0.4-0.7-0.9-1 1.6-0.4 0.3-0.8 1.2-0.6 0.5-0.9 0.4-0.8-0.3-1 0.2-0.3-0.5-1.5 1.1 0.7 0-0.6 1.4 0.1 2.3 0.2 0.3-0.3 0.8-0.3 0.3-0.1 1-0.4 0.8-1.4 1.6 0.5 1.9-0.5 0.1-0.3 0.7-0.7 0.4-0.8 0.6-0.9 1.8-0.4 0-0.4 0.7-0.5 0.1-0.3-0.7-0.4-0.3 0.5-0.9-0.6-0.4-0.7 0.3-0.2-0.6-1.4-1.1 1.4-2.2-0.5-0.4 0.6-2 0.6-0.4 0.1-3.6-1.3-0.5-3.1-1.7 0.2-1.1 0.5-0.6 1.1-0.3 0.4-0.3 0.5-1 0.5-0.4 0.3-0.5-0.1-0.6-0.4-0.6-0.2-1.4-0.4-0.5 0-0.7 0.7-0.6 0.7 0 1.2-0.4 1 0.2 0.7 0.7 0.7 0.1 0.7-0.4 0.4-0.6 1.8-1.4 1-0.1 0.8-0.5 1.1 0.1 0.2-0.2-0.4-0.8 0.6-0.8 0-0.5-0.5-0.3-0.8 0.1-0.4-0.5 0.7-1-0.2-0.7-1.2-1.4 1.3-1.2 0.5-0.4 0.5-0.7 0.8 0.3z" id="KY04" name="KY04 District"/>
    <path d="M735.2 291.2l0.6-0.5 0.8-1.2 0.4-0.3 1-1.6 0.7 0.9 0 0.4 0.6 0.3 0.8 0.8 0.2 1 0.5 0.8 0.8 0.3 0.8-0.2 1-0.8 1.4-1.5 1.4-2.2 0.5 0 1.2 0.4 1.2-1.6 1.3 0.7 2.3-1.4 1.4-0.7 0.3 0.5 0.4-0.1 0.6 1 0 0.7 2.1 0.4 0.3 0.4-0.2 0.6-0.5 0.2 0.1 1.8-1.7 2.1-1 0-0.4-0.8-0.4-0.2-1.9 1.4-1-0.2-0.5-0.5-0.2 0.6 0.2 0.5 0.6 0.2 0.3-0.3 0.5 0.5 0.9 0.1 0.2 0.6 0.5 0.2 0.6 0 0.7 2-0.7 0.3-0.5 1 0 0.7 0.6 1 1.6 0.8 0.3 0.4 0.4 0.1-1 2.7-0.7 0.1-1.2 1.4-1.1 2.9-0.7-0.6-0.5-0.2-1.4 0.6-1.7 0.2-0.5 0.2-0.4 0.9-0.4 0-1.4 0.2-0.8-0.3-0.3 0.7 0.2 0.3-0.3 0.6-1.8-0.2-2.9-2-0.6-0.3-0.2-0.6-0.8-0.6-0.2-0.7-0.5-0.2-1.1-0.1-0.2 0.4-3.4 0.9-0.4 0.1-0.1-4.1-0.9-0.8-0.1-0.9-0.5-0.3 0.3-0.6-0.1-0.6 0.9 0 0.6-0.4 0.3-1.1 0-0.5 0.3-0.4 0.6-0.1 0.3-0.5 0-0.6 2.3-1.5-0.1-0.3-0.6-3.3z" id="KY06" name="KY06 District"/>
    <path d="M772.8 284.7l0.2 1.7 0.4 0.4 0 0.7 0.3 0.7-0.3 1.2-0.1 1-0.5 0.2 0.2 0.7 1 0.5 0.1 0.4 0.7 0.4 0.7 1.5 0.6 0 0.4 0.5-0.1 0.4-0.4 0.6 0.6 0.4 1 0.5 0.3 0.9 0.8 0.9 0.7 0.2 0.4 0.7 0.4 1 1.1 1.1 0.5 0 0.3 0.6 0.6-0.2 0.6 0.8 0.4-0.1 0.4 0.7 0.7 0 0.5 0.4 1.5-0.3-2.7 3.3-2.7 3.2-0.5 0.7-1 0.5-1.7 0.9-0.7 0.5-1.3 1.4-1.3 0.9-0.1 1.2 0.2 0.6-0.4 0.1-0.6 0.9-0.8 0.2-0.6 0.7 0.3 1.1-0.2 0.9-1.6 1-1.8 0.3-0.4 0.6 0.1 0.4-0.5 0.9 0 0.8-1 0.2-2.7 1.3-1.2 0.9-1.3 0.1-0.7 0.3-0.6 0.5-0.8 0.3-1 1-0.2 0.4-5.6 0.6-4.8 0.5-5 0.5-5.3 0.5-2.6 0-0.5-0.1-0.2-1.2-0.4-0.4 0-0.8 0.2-0.6-0.6-1.2-0.6-0.5-0.2-0.6 1.7-1.5 0.1-0.9 0.8 0.1 1.2-1.3-0.6-0.2-0.8-0.8-0.1-1.6 1.5-1.5 1.4-1.7-0.2-1.1 0.3-0.3-0.5-1.3-1.4-0.6-1.1-0.7-0.2-0.9-0.1-1.4 0.1-0.5 1.5-1.1 0.6-0.1 1-1.2 0.2 0.6 0.6 0.3 2.9 2 1.8 0.2 0.3-0.6-0.2-0.3 0.3-0.7 0.8 0.3 1.4-0.2 0.4 0 0.4-0.9 0.5-0.2 1.7-0.2 1.4-0.6 0.5 0.2 0.7 0.6 1.1-2.9 1.2-1.4 0.7-0.1 1-2.7-0.4-0.1-0.3-0.4-1.6-0.8-0.6-1 0-0.7 0.5-1 0.7-0.3-0.7-2-0.6 0-0.5-0.2-0.2-0.6-0.9-0.1-0.5-0.5-0.3 0.3-0.6-0.2-0.2-0.5 0.2-0.6 0.5 0.5 1 0.2 1.9-1.4 0.4 0.2 0.4 0.8 1 0 1.7-2.1-0.1-1.8 0.5-0.2 0.2-0.6 0.6-0.4 1.1 1.1 0.2 0.4 1.3 0.2 1-0.6 1.1-0.5 0.7-0.1 0-0.4 1-0.8 0.8-0.1 0.1-0.6 0.6 0.3 1-0.2 1.7 0.3 0.1-0.4 0.5-0.6 0.1-0.4 1.6-2 1 0.7 0.5 1.1z" id="KY05" name="KY05 District"/>
    <path d="M725.1 306.8l0.4-0.7 0.4 0 0.9-1.8 0.8-0.6 0.7-0.4 0.3-0.7 0.5-0.1-0.5-1.9 1.4-1.6 0.4-0.8 0.1-1 0.3-0.3 0.3-0.8-0.2-0.3-0.1-2.3 0.6-1.4-0.7 0 1.5-1.1 0.3 0.5 1-0.2 0.8 0.3 0.9-0.4 0.6 3.3 0.1 0.3-2.3 1.5 0 0.6-0.3 0.5-0.6 0.1-0.3 0.4 0 0.5-0.3 1.1-0.6 0.4-0.9 0 0.1 0.6-0.3 0.6 0.5 0.3 0.1 0.9 0.9 0.8 0.1 4.1 0.4-0.1 3.4-0.9 0.2-0.4 1.1 0.1 0.5 0.2 0.2 0.7 0.8 0.6-1 1.2-0.6 0.1-1.5 1.1-0.1 0.5 0.1 1.4 0.2 0.9 1.1 0.7 1.4 0.6 0.5 1.3-0.3 0.3 0.2 1.1-1.4 1.7-1.5 1.5 0.1 1.6 0.8 0.8 0.6 0.2-1.2 1.3-0.8-0.1-0.1 0.9-1.7 1.5 0.2 0.6 0.6 0.5 0.6 1.2-0.2 0.6 0 0.8 0.4 0.4 0.2 1.2 0.5 0.1-3.7 0.2-1.8 0.2-4 0.7-6 0.5-3.7 0.2-5.5 0.1-3.1 0.3-1 0.5-0.5-0.4-2.6 0.4-6.1 0.7-7.3 0.7-6.9 0.8 0-0.7-3-0.1-1 0.1 0.6 1.7 0.3 1.5-0.3 0.9-2.9 0.2-5 0.4-5.1 0.3-3.4 0.3-6.3 0.3-2.1 0.4 0.8-3 0.6-0.2 0.3 0.2 0.9 1.2 0.8-0.1 0.4-0.8 0-0.6 0.7-0.9-0.3-0.5-0.6-0.7 0-0.4 0.5-0.5 0.8 0.1 0.1-0.6-1.1-0.6 0.1-0.8 0.5-0.2 0.4-1 0.2-1.5-0.2-0.5-0.6-0.2-0.8-0.7 0-0.8 0.1-0.5 1-1.2 0.2-0.7 1.1-1.4 1-0.5 0.7 0 2.4 0.7 0.8 0.6 0.8 0.4 0.5 0 1.5 0.5 0.8 0.7 0.9 0.3 1.1-0.4 0.5-1.7-0.5-1.2-0.5-0.4-0.7-0.8-0.2-0.6 0.5-1.4 0.1-1.1 0.3-0.4 0.8-0.5 0.8 0.5 0.6-0.7 0.8-0.6 1.5-0.3 1.1-0.3 1-0.1 0.3-0.7-0.3-0.6-1.2-1-0.5-1.3-0.1-0.6 0.6-1.2 0.9-0.6 0.3-0.5 0.3-1.1 0.5 0 1 0.5 0.2-0.6 0.4-0.3-0.1-0.8-0.5-0.6-0.1-0.4 0.5-0.8 0.6-0.1 0.7 1 0.8 0 0.6-0.4 0.8-0.1 0.5-0.3 0.4 0.5-0.2 0.6 0.2 0.6 1-0.2 0.5-1-0.7-0.7-0.2-0.5 0.4-1 0.4 0.1 0.5 0.8 0.8 0.5 1-1 1.2 0 0.9 0.6 0.6 0.2-0.2 1.8 0.3 0.1 0.5 1.2-0.6 0.5-0.8 0.2-0.4 0.3-0.3 1.2-1 0.3-0.4 0.9 0.7 0.7 1.2 0 0.3 0.3 0.7 1.4-0.2 0.6 0.3 1.4 1.1 0.7-0.5 1.1-0.2 0.9-0.6 0-0.1 1.1 0.5 0.3 0.7 1.1 0.4 0-0.4 0.9 0.3 0.7 0.7 0.4 0.2 0.7 0.4 0 0.2 0.8 2.4-0.3 1.1-0.5 1.3-0.4 2.4 0.1 3.3 1-0.5 0.6-0.1 0.6-0.5 0.7 0.2 0.6 0.4 0.3 0.5 0.8 0.6-0.8 0.7-0.2 0.7 1.1 3.3 0.2 0 0.8 2.4-2.5-0.1-0.5 1-0.6 0.6-0.5 0.4 0.1 0.3 0.6 0.5 0.4 0.7 0-0.1 0.5 0.4 0.5-0.1 0.7 0.6 0.2-0.2 0.5 0.9 0.2 0.6 0.8 2.8-2.6 1.2-0.6-0.6-3.7-0.3-1.5-0.1-0.9-0.4-0.6 0.5-0.8 1-0.4 0.6 0.8 0.5 0.4 1.9 0.1 2.5-1.6 0.5-0.6-0.5-0.6-0.6 0 0.2-0.6-0.8-1.2-1.1-1.3-2-1.3-0.1-0.8 1 0.2 0.4-0.7 0.7 0.2-0.8-1.8-0.4 0 0.9-3.2 0.8-1.1z m-72 34.9l-0.4-0.5-0.2-0.8 0.7-0.6 0.9 0.2 0.3 1-0.3 0.7-1 0z" id="KY01" name="KY01 District"/>
    <path d="M722.4 294.1l1.3 0.5-0.1 3.6-0.6 0.4-0.6 2 0.5 0.4-1.4 2.2 1.4 1.1 0.2 0.6 0.7-0.3 0.6 0.4-0.5 0.9 0.4 0.3 0.3 0.7 0.5-0.1-0.8 1.1-0.9 3.2 0.4 0 0.8 1.8-0.7-0.2-0.4 0.7-1-0.2 0.1 0.8 2 1.3 1.1 1.3 0.8 1.2-0.2 0.6 0.6 0 0.5 0.6-0.5 0.6-2.5 1.6-1.9-0.1-0.5-0.4-0.6-0.8-1 0.4-0.5 0.8 0.4 0.6 0.1 0.9 0.3 1.5 0.6 3.7-1.2 0.6-2.8 2.6-0.6-0.8-0.9-0.2 0.2-0.5-0.6-0.2 0.1-0.7-0.4-0.5 0.1-0.5-0.7 0-0.5-0.4-0.3-0.6-0.4-0.1-0.6 0.5-1 0.6 0.1 0.5-2.4 2.5 0-0.8-3.3-0.2-0.7-1.1-0.7 0.2-0.6 0.8-0.5-0.8-0.4-0.3-0.2-0.6 0.5-0.7 0.1-0.6 0.5-0.6-3.3-1-2.4-0.1-1.3 0.4-1.1 0.5-2.4 0.3-0.2-0.8-0.4 0-0.2-0.7-0.7-0.4-0.3-0.7 0.4-0.9-0.4 0-0.7-1.1-0.5-0.3 0.1-1.1 0.6 0 0.2-0.9 0.5-1.1-1.1-0.7-0.3-1.4 0.2-0.6-0.7-1.4-0.3-0.3-1.2 0-0.7-0.7 0.4-0.9 1-0.3 0.3-1.2 0.4-0.3 0.8-0.2 0.6-0.5-0.5-1.2-0.3-0.1 0.2-1.8 1.6 1 1.1 0.1 0.7 1.2 0.6-0.1 0.4-0.4 0.3-1.6-0.1-0.4 0.6-0.8 0.7-0.4 0.9-0.1 0.9-1.2 0.6-0.4 0.6 0.2 0.4 0.8 0.9 1.2 0.8-0.5 0.6 0 0.2 0.4-0.3 0.9 0.5 0.2 0.7-0.6-0.2-0.8 0.2-0.5 1 0 0.4-0.2-0.4-0.9-0.1-1.4 0.2-0.4 0.8-0.1 0.5-0.5 0-0.4-0.5-0.3-0.1-0.5 0.5-0.2 0.6 0.4 0.4-0.6 0.9-0.2-0.1-0.4-0.9-0.3 0-0.6 0.8 0.2 0.7 0.4 0.5 0.6-0.1 0.8 0.3 1 0.9 0.5 0.8 0.4 1-0.3 0.8 0.3 0.4 0.7 0.8-0.8 1.1-0.2 1.2-1 2.8-1.4 2.6 0-0.1-0.6-0.3-0.7 0.6-0.4 0.6-0.8-0.1-2.1 0.4-0.5z" id="KY02" name="KY02 District"/>
    <path d="M719.3 292.4l3.1 1.7-0.4 0.5 0.1 2.1-0.6 0.8-0.6 0.4 0.3 0.7 0.1 0.6-2.6 0-2.8 1.4-1.2 1 0.4-0.7 0.2-1.4-0.2-1.2 0-0.7 1-1.6 0-0.9 0.8-0.3 0.9 0.3 1-0.9 0.3-0.5 0.2-1.3z" id="KY03" name="KY03 District"/>
    <path d="M401.4 190.5l0.8-9.6 0.8-9.9 0.7-7.5 0.6-7.7 0.7-8.1 0.2-2.8 0.2 0 0.2-0.9 0.5-5.8 0.1-1.5 0.1-1 0-0.4 0.2-2.8 0.2-2 0.4-5.5 0.1-1.7 4.8 0.4 6 0.5 6.1 0.5 8.6 0.6 5.1 0.3 5.4 0.4 5.8 0.3 6 0.4 4.7 0.2 7 0.3 8.7 0.5 7.4 0.2 8.6 0.4 5.5 0.2 6.2 0.1 8.7 0.2 4.1 0 10.5 0.1-0.2 2.1-0.1 0.6-0.9 1.1-0.5 0.9-1.3 0.7-0.1 0.2-1.3 1-0.3 0.9 1.5 2 0.5 1.4 0.8 1.1 0.9 0.1 2.1 1.1 0.6 1.3 0 7.8 0 5.6-0.1 9.5 0 10.3-0.1 8-2.4 0 0.3 0.8-0.4 0.4 0.2 0.4 1.2 1-0.1 1.8-0.5 0.4-0.4-0.1-0.1 0.5 0.6 0.6-0.1 0.5 0.6 0.2 0.7-0.1 0.1 1.5 0.6 0.9-0.3 0.5-0.2 0.8-0.8 0.3 0.3 0.9-0.5 0.7 0.4 0.5-0.7 0.7 0.2 0.7-0.3 0.5 0 0.6-0.5 0.4-0.5 1.1-0.2 0-0.3 1 0.1 0.8 0.5 0.1 1.4 1.7 0.3 1.1 0.3 0.5-0.2 1 0.2 0.5 0.6 0-1 0.2-0.4-0.6-0.5-0.3-0.8 0.4-0.4-0.2-0.2-0.9-0.8-0.6-0.4-0.7 0.4-1-0.7-0.4-0.6 0.2-0.6-0.3-0.1-0.7-1.8-0.7-0.6 0.3-0.5-0.9-1.5-0.3-1 0-0.3-0.6-1-0.4-0.1-0.7-0.5-0.3-0.7 0-0.3-0.3-0.6 0.3-1.2-0.3-0.4 0.5-1.1-0.3-1 0.2-0.7-0.2-1.3 0.3-1.5-0.2-1-0.4-0.7 0.2-0.2 0.9-1 1.1-1.5 0.1-1.5-1.3-0.3-0.5-0.4 0.1-0.8-0.4-0.7-0.5-1.1-0.3-0.3-0.4-1.2-0.7-0.4 0.1-0.4-0.5-0.5-1.2-6.5-0.1-5.1-0.2-7.3-0.3-6.7-0.2-8.2-0.4-6-0.3-5-0.3-0.6 0-6.8-0.3-3.8-0.4-4.4-0.2-8.3-0.6-4.4-0.3-9.7-0.8-2.9-0.2-6.7-0.5z" id="SD00" name="SD00 District"/>
    <path d="M667.9 232.1l-0.7-6 2-0.2 0.2 2 1.9-0.3-0.5-4.6-0.6-0.3-0.1-0.9 0.6-0.1-0.1-0.5 0.7 0.1 0.1-0.4 1.2 0.1 0.2 1.4 1 1 1.3-0.2 0.3-0.7-0.1-0.7 0.5-1.4 0.6 0 0-0.9-0.8-0.4 0-0.5 0.5-0.2 0.8 0 0-0.4 0.5-0.1 0-1.7 0.3 0.8 0.2 1.2 0.6 0.5-0.5 0.5-0.6 0.2 0.1 1.2-0.6 0.2-0.1 0.7-0.5 0.4-0.1 0.6-0.5 0.3 0 1.1-0.8 0 0.5 4-0.7 0.1 0.1 1 0.7 0.2 0.2 2.1-0.6-0.3-0.3 0.4 0.1 1.3-0.9 0.1-0.8-0.2-1-1-4.3 0.5z" id="IL01" name="IL01 District"/>
    <path d="M667.9 232.1l4.3-0.5 1 1 0.8 0.2 0.9-0.1-0.1-1.3 0.3-0.4 0.6 0.3-0.2-2.1-0.7-0.2-0.1-1 0.7-0.1-0.5-4 0.8 0 0-1.1 0.5-0.3 0.1-0.6 0.5-0.4 0.1-0.7 0.6-0.2-0.1-1.2 0.6-0.2 0.5-0.5-0.6-0.5-0.2-1.2 0.4 0.9 0.8 0.6 0.2 0.9 0.3 3.5 0 0.8 0.7 8.1 0.5 4.5 0 0.9 0.9 9.9 0.1 1.3 0.4 4.6 0.1 1 0 0.1 0 0.8 0 0.2 0.2 2.1-1.4 0.2-0.4 0.7-2.5 0.2-0.4-0.3-0.1-1-2.3 0.3-0.3-3.3 0.2 0-0.2-2-2.5 0.2 0 0.7-2.6 0.2-0.1-0.6-3.9 0.3-0.2-2 2-0.2-0.1-1.5-0.4 0-0.2-1.5-1.5 0.2-0.2-2-1.9 0.1-0.3-1.2-0.3-4.1-0.7 0-0.3-0.5-0.5 0.1-0.1-0.6 0.6 0.1 0.8-1.3-0.3-3.7 2.2-0.2 3.7-0.4-0.2-2z" id="IL02" name="IL02 District"/>
    <path d="M672.2 213.3l-0.4 0.2 0.1 0.6 1.4 0.2 0.8-0.1 1.4-0.6 0.3 0.6 0.1 0.8-0.1 0.3-0.8 0.2-0.3-0.5-1.1 0.2-0.6-0.5-1-0.2-0.1 0.4-0.7 0.1-0.4 0.6-0.8 0.1 0.1 0.4-1.1 0.6-0.1 1.1-0.6 0.1-0.3-0.4-0.6 0.3-1 0.2-0.1-1.3-0.4-4.3 0.6 0.3 0.1 0.7 1.4 0.1 0 0.4-0.6 0.1 0.2 1.5 1.7 0.6-0.1-0.8 0.5 0 0.8-0.7 0.6-0.1-0.3-1.5 1.3-0.3 0.1 0.6z" id="IL03" name="IL03 District"/>
    <path d="M676.1 218.4l-0.5 0.2 0 0.5-1.2 0.1 0.4-0.9-1.5-0.1-0.6-0.5-0.3 0.6-0.8-0.1-0.1-1.5 0.3-0.2-0.1-1 0.2-0.6 0.1-0.4 1 0.2 0.6 0.5-0.2 0.5-1.1 0-0.3 0.3 0.2 1.1 0.7-0.1 1.1-0.8 1.1-0.1 0.1 0.5 0.8-0.4 0.7-0.1 0.1 1.3-0.5 0.1-0.2 0.9z" id="IL04" name="IL04 District"/>
    <path d="M675.9 215l-0.1-0.8-0.3-0.6-1.4 0.6-0.8 0.1-1.4-0.2-0.1-0.6 0.4-0.2 0.7 0.1-0.6-1.2-1.8 0-0.2-0.3-0.2-2-0.3 0.4 0.1 0.7-0.7 0.3 0.1 0.7-1 0.1-0.2-0.9-0.9 0-0.1 0.3-0.8 0.1-0.1-1.4 0.6 0-0.1-1.1 0.5-0.3 1.2-0.1 0.7-0.2 0 0.5 0.9-0.1 0.4 0.7 0.2 1.2 0.8 0.7 0.8 0.3 0.8-0.1 0.1 0.5-0.3 0.4 0.9 0.5 0.8-0.3 0.1 0.3 1.4 0.1 0.2 0.8 0.4-0.1 0.5 1.4-1.2-0.3z" id="IL05" name="IL05 District"/>
    <path d="M675.6 219.1l0.8 0.4 0 0.9-0.6 0-0.5 1.4 0.1 0.7-0.3 0.7-1.3 0.2-1-1-0.2-1.4-0.2-1.4-0.9 0.1-0.7-0.1-0.6-1.1-0.8 0.2-0.5-0.9 0.1-1.1 1.1-0.6-0.1-0.4 0.8-0.1 0.4-0.6 0.7-0.1-0.2 0.6 0.1 1-0.3 0.2 0.1 1.5 0.8 0.1 0.3-0.6 0.6 0.5 1.5 0.1-0.4 0.9 1.2-0.1z" id="IL06" name="IL06 District"/>
    <path d="M677.4 216.2l0 1.7-0.5 0.1 0 0.4-0.8 0 0.2-0.9 0.5-0.1-0.1-1.3-0.7 0.1-0.8 0.4-0.1-0.5-1.1 0.1-1.1 0.8-0.7 0.1-0.2-1.1 0.3-0.3 1.1 0 0.2-0.5 1.1-0.2 0.3 0.5 0.8-0.2 0.1-0.3 1.2 0.3 0.3 0.9z" id="IL07" name="IL07 District"/>
    <path d="M672.2 213.3l-0.1-0.6-1.3 0.3 0.3 1.5-0.6 0.1-0.8 0.7-0.5 0 0.1 0.8-1.7-0.6-0.2-1.5 0.6-0.1 0-0.4-1.4-0.1-0.1-0.7-0.6-0.3 0.4 4.3-0.8 0.2 0.1-0.7-0.4-0.3-0.9 0-0.3-3.5-1.6 0.1-0.1-1.4 0.7 0.1-0.1-0.7 1.3-0.1 2-0.2 0.1 1.4 0.8-0.1 0.1-0.3 0.9 0 0.2 0.9 1-0.1-0.1-0.7 0.7-0.3-0.1-0.7 0.3-0.4 0.2 2 0.2 0.3 1.8 0 0.6 1.2-0.7-0.1z" id="IL08" name="IL08 District"/>
    <path d="M676.6 213.9l-0.4 0.1-0.2-0.8-1.4-0.1-0.1-0.3-0.8 0.3-0.9-0.5 0.3-0.4-0.1-0.5-0.8 0.1-0.8-0.3-0.8-0.7-0.2-1.2-0.4-0.7-0.9 0.1 0-0.5-0.7 0.2-1.2 0.1-0.5 0.3 0.1 1.1-0.6 0-2 0.2-0.2-2 2.7-0.2 0.3-0.6 0.5 0.2 0.8-0.2 0.5-0.2 1.1 0.5 0.2 0.6 0.6 0.4 0.2 1.3 0.5 0.6 0.9-0.1 1.8-0.4 0.1 1 1.3-0.2 0.4 0.5 0.1 0.7 0.6 1.6z" id="IL09" name="IL09 District"/>
    <path d="M661.6 202.7l1.7-0.1 1.1-0.1 3.8-0.3 1.3-0.1 3.3-0.2 0.2 2.3-0.3 0.8 0 1.3 0.1 0.7 0.6 1.3 1.3 2 0.8 0.8-1.3 0.2-0.1-1-1.8 0.4-0.9 0.1-0.5-0.6-0.2-1.3-0.6-0.4-0.2-0.6-1.1-0.5-0.5 0.2-0.2-1-0.3-0.5-0.7 0-0.6-0.3-1.1 0.1-0.1-0.5-0.7 0.3-0.2 0.6-0.4 0.1-0.2-0.7-0.5-0.2-1.5 0.1-0.2-2.9z" id="IL10" name="IL10 District"/>
    <path d="M672.6 221l-1.2-0.1-0.1 0.4-0.7-0.1-0.4 0.2-1.2 0.2-0.3 0.5-0.2-2.2-1.9 0.2-0.1-0.8-1.1 0.4-0.8 0.1-0.1-1.5-3.8 0.4-0.4-4.9-1.4-0.3-0.1-0.7-0.5 0.1-1.8 0.1-0.2-2-0.6 0.1-0.2-3 0.5-1.1 5.3-0.4-0.1-0.7 0.6-0.3 1.5-0.1 0.5 0.2 0.2 0.7 0.4-0.1 0.2-0.6 0.7-0.3 0.1 0.5 1.1-0.1 0.6 0.3 0.7 0 0.3 0.5 0.2 1-0.8 0.2-0.5-0.2-0.3 0.6-2.7 0.2 0.2 2-1.3 0.1 0.1 0.7-0.7-0.1 0.1 1.4 1.6-0.1 0.3 3.5 0.9 0 0.4 0.3-0.1 0.7 0.8-0.2 0.1 1.3 1-0.2 0.6-0.3 0.3 0.4 0.6-0.1 0.5 0.9 0.8-0.2 0.6 1.1 0.7 0.1 0.9-0.1 0.2 1.4z" id="IL11" name="IL11 District"/>
    <path d="M678.1 309.8l-0.3 1.1-0.3 0.5-0.9 0.6-0.6 1.2 0.1 0.6 0.5 1.3 1.2 1 0.3 0.6-0.3 0.7-1 0.1-1.1 0.3-1.5 0.3-0.8 0.6-0.6 0.7-0.8-0.5-0.8 0.5-0.3 0.4-0.1 1.1-0.5 1.4 0.2 0.6 0.7 0.8 0.5 0.4 0.5 1.2-0.5 1.7-1.1 0.4-0.9-0.3-0.8-0.7-1.5-0.5-0.5 0-0.8-0.4-0.8-0.6-2.4-0.7-0.7 0-1 0.5-1.1 1.4-0.2 0.7-1 1.2-0.1 0.5 0 0.8 0.8 0.7-0.5 0.4-0.5-0.2-0.2-0.8-1.1-1-0.9-0.1 0.2 0.6 0.8 0.6-0.1 0.5-0.5 0.1-0.5-0.5-1.1-0.5 0-0.9-0.3-0.7-0.5-0.3-1-1.7 0-1-0.6-0.1-0.5-0.8 0.1-0.6 0.6-0.6 0.7-0.2 0.2-1.2-0.5-0.9-0.6-0.7-0.9-1.5-0.1-1.1 0.7 0 0-0.4-0.8-0.9 0.1-1.1-0.3-0.2-1.1-0.3-0.6-0.8-0.6 0.1-0.3-0.3 0-0.6-1.5-1.3-1-0.3-0.1-0.4-0.8-0.5-0.9 0.8-1-0.2-0.5-0.8 0.3-0.5 0.5-0.2-0.2-0.5-0.9 0.3-1.4-1.2-0.4 0-0.8-0.5-0.1-0.5-0.7-0.1-1.3-0.9-0.7-1-0.7-0.5-0.7-0.7-0.1-0.1 0-0.1-0.1-0.2-0.1-0.6-0.2-1.8 0.6-1.4 0.7-0.9 0.3-2.1 0.1-0.3-0.1 0.3 0.9 0.8 0.5-1.1 0.9-0.1 0.6-0.5 1 0.4 0.2 1.1 1.7-0.1 0.2-0.5-0.1-1.5 0.2-0.5-1.3-0.2-0.4-1 0.4-0.3 4.6-0.2 2.3-0.2-0.2-2 2.2 0 3.9-0.4 2 0-0.1-2 1.8-0.1 6-0.5-0.2-2-2 0.2-0.5-7 5.9-0.4-0.4-5 1.9-0.2 0-0.9 0.4-0.3 1.5-0.1 0.1 1.1 1.2-0.1 0.2-0.6-0.1-0.9 0.4-0.2-0.2-3.3 1.3-0.2 0-0.6 1.6-0.3 0.5 4.7 4.8-0.5 0 0.2 2.7-0.2 0.3 2.9-1 0.4-0.2 0.6 0.1 1.1 0.4 0.1 0.2 0.7-0.2 0.6-0.5 0.4-0.6 1.2 0.8 0.6 0.9 1 0.1 1.7 0.8 0.2 0.3 0.4 0 0.5-0.5 1.7 0.5 0.3 0.1 0.7 0.6 0.7-0.3 2-0.2 0.4-1.1 0.5-0.5 1.7-0.2 0.9-0.3 0.2 0.3 0.6-0.5 0.7-1 0.4 0.3 0.6-0.2 0.9-0.6 1.1-0.4 0.1-0.4 1 0.1 0.5-0.3 0.6-1.5-0.2-0.8 1.5 0.4 0.8 1.1 0.6-0.6 0.9-0.5 0.4-0.6 0.2 0.2 0.4 0.7-0.4 0 0.8-1.2 0.9 0.5 1.2-0.4 0.5 0.6 1.4-1.5 0.1 0.7 1 0.6 0.2-0.5 0.9 0.6 0z" id="IL12" name="IL12 District"/>
    <path d="M641.9 292.6l-0.4 0.3 0.4 1 1.3 0.2-0.2 0.5 0.1 1.5-0.2 0.5-1.7 0.1-0.2-1.1-1-0.4-0.6 0.5-0.9 0.1-0.5 1.1-0.9-0.8 0.1-0.3 0.6-1 0.5-0.6 0.2-0.7-0.1-0.8-0.6-1 0.1-0.5 0.6-1 0.8-0.8 0-1-1.4-0.8-0.1-1.1 1.2 0 0.1-0.6-0.1-0.9-0.5 0-0.2-4-0.6-8 5.9-0.4-0.3-4 1.9-0.2 0-1-0.2-0.3-0.1-2.7 0.8 0 0.2 0.9 1.1-0.1-0.1 1.1 2.1-0.2-0.2-2 2-0.1 0-1 3.9-0.3-0.1-1 6.9-0.6-0.2-2.1 4.9-0.3-0.1-2 2.5-0.2 0.3-0.7 1.6-0.2 0.4 0.7 1-0.1 0.2 2-2 0.2 0.1 1-1.9 0.1 0 1-1 0.1 0.2 2-3.6 0.3 0.1 0.7-2.3 0.1 0-0.1-1.7 0.1-0.7-0.1-0.5 0.7-0.5 0.3-0.9-0.5 0-0.6 0.5-0.1 0-0.7-0.5 0-0.9 1.2 0 0.4-0.5 0.3-0.5 0.7-0.8 0.1-0.5-0.3-0.9 0.1-1.1 0.6-0.5 0.7-1.4 0.5-0.2 1.4-0.9 0.1 0.1 1-1 0 0.2 2.7-2.9 0.2 0.3 4.1-0.1 0 0.6 8-4 0.3 0.1 1.3-0.3 0.1 0 0.9 0.3 0 0.2 3.6-0.5-0.1 0 1-0.3 1z" id="IL13" name="IL13 District"/>
    <path d="M670.6 221.2l0.1 0.5-0.6 0.1 0.1 0.9 0.6 0.3 0.5 4.6-1.9 0.3-0.2-2-2 0.2-3.9 0.4-1.9 0.2 0.4 3.5-0.7 0.1-1.9-0.5-1.2-0.2-0.1 0.3 0 1.1-3.9 0.3 0.1 1.3-0.3 0.1-1.6 0.1 0 0.7-2.5 0.2 0-0.3-0.8-1.3-0.7 0-0.4-5.3 3.8-0.3-0.2-3 2-0.1 1.9-0.2-0.2-2-0.5-6 3.9-0.3-0.2-2 0.5-0.1 0.1 0.7 1.4 0.3 0.4 4.9 3.8-0.4 0.1 1.5 0.8-0.1 1.1-0.4 0.1 0.8 1.9-0.2 0.2 2.2 0.3-0.5 1.2-0.2 0.4-0.2z" id="IL14" name="IL14 District"/>
    <path d="M665.8 252.8l3.9-0.3 0.1 0.6 2.6-0.2 0-0.7 2.5-0.2 0.2 2-0.2 0 0.3 3.3 2.3-0.3 0.1 1 0.4 0.3 2.5-0.2 0.4-0.7 1.4-0.2 0.4 4.2 0.5 5.3 0.1 1.8 0.2 2.1-2.7 0.2 0-0.2-4.8 0.5-0.5-4.7-1.6 0.3 0 0.6-1.3 0.2 0.2 3.3-0.4 0.2 0.1 0.9-0.2 0.6-1.2 0.1-0.1-1.1-1.5 0.1-0.4 0.3 0 0.9-1.9 0.2 0.4 5-5.9 0.4 0.5 7 2-0.2 0.2 2-6 0.5-1.8 0.1 0.1 2-2 0-3.9 0.4-2.2 0 0.2 2-2.3 0.2-4.6 0.2 0.3-1 0-1 0.5 0.1-0.2-3.6-0.3 0 0-0.9 0.3-0.1-0.1-1.3 4-0.3-0.6-8 0.1 0-0.3-4.1 2.9-0.2-0.2-2.7 1 0-0.1-1 0.9-0.1 0.2-1.4 1.4-0.5 0.5-0.7 1.1-0.6 0.9-0.1 0.5 0.3 0.8-0.1 0.5-0.7 0.5-0.3 0-0.4 0.9-1.2 0.5 0 0 0.7-0.5 0.1 0 0.6 0.9 0.5 0.5-0.3 0.5-0.7 0.7 0.1 1.7-0.1 0 0.1 2.3-0.1-0.1-0.7 3.6-0.3-0.2-2 1-0.1 0-1 1.9-0.1-0.1-1 2-0.2-0.2-2-1 0.1-0.4-0.7-1.6 0.2-0.3 0.7-2.5 0.2 0.1 2-4.9 0.3 0.2 2.1-6.9 0.6 0.1 1-3.9 0.3 0 1-2 0.1 0.2 2-2.1 0.2 0.1-1.1-1.1 0.1-0.2-0.9-0.8 0 0.1 2.7 0.2 0.3 0 1-1.9 0.2 0.3 4-5.9 0.4 0.6 8 0.2 4 0.5 0 0.1 0.9-0.1 0.6-1.2 0 0.1 1.1-1.1-0.7-1 0-1.5-0.7-1.1-0.2-0.3 0.3-0.3 0.7-0.9 1.3-0.6 0.1-0.8-0.3-0.8-1.1-0.3-1.3-0.7-1.5 0.5-0.7-0.1-0.7-0.5-0.8-0.4-2.2-0.5-0.3-0.7-1-1-0.8-1.6-1-0.1-0.2-1-0.4-0.8-0.6-0.5-0.5 0-0.5-0.7-1-0.9-0.1-0.3-0.4-0.4-0.9-0.6-0.3-1-1-1.3-1-0.4-0.4 0-1.5-0.8-0.8-0.4-0.2-0.3-0.9 0.4-0.8-1.4-2.8 0-0.5-0.4-1.5-0.1-1.2 0.1-1.4 0.6-2.4 0.3-0.5 0.5-0.5 0.3 0 0.3-0.2 0.1-0.6-0.2-0.7 0.2-0.9-0.1-0.6-0.7-0.7 0.8-1.4 0.8-0.6 1.1-0.3 1-0.1 1.1-0.8 0-1.2 0.4-1.2-0.1-0.8 0.6-0.9 0.2-0.5 0.7-0.9 0.6-0.5 0.2-0.7-0.2-0.5 0.2-1.3-0.1-1.4-0.8-1.3-0.9-0.2-0.5-0.8-0.8-0.8-0.1-0.3 0.7-1.4 0-0.5 3-0.2 3.9-0.1 0.1 2 0.4 8 3.9-0.1 0.4 8-3.9 0.1 0 1.4-0.8 0 0.4 0.9 1.4-0.1 0-0.2 5-0.2 7.3-0.4 0.4 0.3 2.9-0.2 0.2 2.7 7.8-0.7 0.1 1 3.9-0.3 9.6-0.7 0.3 0 0-0.7z" id="IL15" name="IL15 District"/>
    <path d="M651.6 203.5l0.8-0.1 0.9 0 1.3-0.1 2.6-0.2 1.3-0.1 0.9-0.1 2.2-0.2 0.2 2.9-0.6 0.3 0.1 0.7-5.3 0.4-0.5 1.1 0.2 3 0.6-0.1 0.2 2 1.8-0.1 0.2 2-3.9 0.3 0.5 6 0.2 2-1.9 0.2-2 0.1 0.2 3-3.8 0.3 0.4 5.3 0.7 0 0.8 1.3 0 0.3 2.5-0.2 0-0.7 1.6-0.1 0.3-0.1-0.1-1.3 3.9-0.3 0-1.1 0.1-0.3 1.2 0.2 1.9 0.5 0.7-0.1-0.4-3.5 1.9-0.2 3.9-0.4 0.7 6 0.2 2-3.7 0.4-2.2 0.2 0.3 3.7-0.8 1.3-0.6-0.1 0.1 0.6 0.5-0.1 0.3 0.5 0.7 0 0.3 4.1 0.3 1.2 1.9-0.1 0.2 2 1.5-0.2 0.2 1.5 0.4 0 0.1 1.5-2 0.2 0.2 2 0 0.7-0.3 0-9.6 0.7-0.2-2.3-0.1-1.7 0.5 0.1 0.8-0.1 0.4-0.9-0.2-1-1 0.1-0.5 0.4-0.5 0 0.1 0.7-0.7 0.4-0.5 0-0.5 0.4-1 0.1-0.1 0.7-3 0.3-0.8 0.1-0.4-0.5-0.1-0.8-3 0.2-0.1-1.7-0.3-1.1 0.6-0.8 0-0.7 1-0.9 0.1-0.4-0.2-0.7-0.5 0-0.3-0.5-0.9 0.5 0.3 0.8-0.3 0.6-0.7-0.3-1.6 0.1-0.5-0.5-0.2-1.4-0.5-0.1-2.3 0.1-0.4-8 1.9-0.1-0.1-2 0.2 0-0.1-2-2 0.1 0.1 2-2.1 0.2 0.1 1.9-1.9 0.1-3.9 0.2-0.3-6.5 0.5-0.5 0.9 0 0.4 0.1 0-1.2 0.3-0.4 1.1-0.2 0.7-0.4 0.1-1.1 4-0.2 5.4-0.4-0.1-2-0.4-5.9-0.9 0.1-0.2-2.2-0.3-4 3.7-0.3 5-0.4 0.5-0.1 0.4-0.7 0.4 0.6 0.6-0.1 1 0-0.2-0.7 0.2-0.7-0.5-0.1 0.6-1.2-1.8 0.1-0.5 0.3 0.1 0.6-0.6 0.3-2.2 0 0-0.1-1.9 0.1-0.1-1-2 0.2-0.1-1-3.9 0.3-2.9 0.2 0.3 4-4.3 0.3-2.4 0.2-0.6-0.2-0.6-0.5-0.6-0.6-0.2-0.6 0.2-1-1-1.3-1.5-0.7-0.3-0.5-1.3-0.6-0.2-0.5 0.3-0.4 2.8-0.1 0.8-0.1 4.9-0.3 0.6 0 5.1-0.3 0.4 0 4.7-0.3 1.7 0 3-0.2 0.7 0 1.6-0.1z" id="IL16" name="IL16 District"/>
    <path d="M655.9 254.2l-3.9 0.3-0.1-1-7.8 0.7-0.2-2.7-2.9 0.2-0.4-0.3-7.3 0.4-5 0.2 0 0.2-1.4 0.1-0.4-0.9 0.8 0 0-1.4 3.9-0.1-0.4-8-3.9 0.1-0.4-8-0.1-2-3.9 0.1-3 0.2 0.3-1.8 0.3-0.4 0.9-0.2 0.8 0.2 1.4-0.9 1.8 0.1 1.4-0.4 0.8-0.8 0.2-0.4 0.9-0.4 0.7 0.2 0.6-0.2 0.8-1 1.1-0.6-0.1-1.3 0.2-0.8 0.3-0.5-0.1-0.8 0.6-0.8 1.5-0.9 0.2-1.7 0.2-0.7-0.2-1.2 0.3-1-0.5-0.9-0.1-1.7-0.6-0.3-0.2-0.5-1.9-0.8 2.4-0.2 4.3-0.3-0.3-4 2.9-0.2 3.9-0.3 0.1 1 2-0.2 0.1 1 1.9-0.1 0 0.1 2.2 0 0.6-0.3-0.1-0.6 0.5-0.3 1.8-0.1-0.6 1.2 0.5 0.1-0.2 0.7 0.2 0.7-1 0-0.6 0.1-0.4-0.6-0.4 0.7-0.5 0.1-5 0.4-3.7 0.3 0.3 4 0.2 2.2 0.9-0.1 0.4 5.9 0.1 2-5.4 0.4-4 0.2-0.1 1.1-0.7 0.4-1.1 0.2-0.3 0.4 0 1.2-0.4-0.1-0.9 0-0.5 0.5 0.3 6.5 3.9-0.2 1.9-0.1-0.1-1.9 2.1-0.2-0.1-2 2-0.1 0.1 2-0.2 0 0.1 2-1.9 0.1 0.4 8 2.3-0.1 0.5 0.1 0.2 1.4 0.5 0.5 1.6-0.1 0.7 0.3 0.3-0.6-0.3-0.8 0.9-0.5 0.3 0.5 0.5 0 0.2 0.7-0.1 0.4-1 0.9 0 0.7-0.6 0.8 0.3 1.1 0.1 1.7 3-0.2 0.1 0.8 0.4 0.5 0.8-0.1 3-0.3 0.1-0.7 1-0.1 0.5-0.4 0.5 0 0.7-0.4-0.1-0.7 0.5 0 0.5-0.4 1-0.1 0.2 1-0.4 0.9-0.8 0.1-0.5-0.1 0.1 1.7 0.2 2.3z" id="IL17" name="IL17 District"/>
    <path d="M680.1 231.8l-0.7-8.1 0-0.8-0.3-3.5 0.9 0.7 0.8-0.4 0.3 0.4-0.4 0.5 1.2 0.4 1.3 0 1.2-0.1 1-0.5 1-0.4 2.8-1.6 0.2-0.4 1.6-0.9 1.9-0.2 0.5 4.9-0.5 0 0.1 0.7-3.5 0.3 0.6 6.5-0.6 0.4-1.6-1-1.3-0.2-1 0.5-0.5 0.8-1 0.5-0.6 0.8-1.4 0.6-0.5-0.2-1.5 0.3z" id="IN01" name="IN01 District"/>
    <path d="M690.1 229.3l-0.6-6.5 3.5-0.3-0.1-0.7 0.5 0-0.5-4.9 4.3-0.4 5.7-0.6 4-0.4 3.5-0.4 0.9 7.4-1.9 0.2 0.7 5.9 1.3-0.2 0.5 4.1 0.7-0.1 1 8-3.9 0.4 0.2 2-8.3 1 0.2-0.6-0.2-1.5 1-0.4-0.2-2.1-0.4-0.2-1 0.2-0.1-1.3-0.2-0.1-1.7 0.2-0.2-2-8 0.7-0.7-7.4z" id="IN02" name="IN02 District"/>
    <path d="M726.2 225l0.9 7.2 0.8 7.1 0.8 6.3 0.4 4-1.3 0.1-1.2 0.3 0 0.5-0.6 0.1-0.5-0.4-1.6 0.2-0.1-0.2-1.8 0.2-0.6-4.6-3.8 0.5-0.8-6.3-3.2 0.4-1-8-0.7 0.1-0.5-4.1-1.3 0.2-0.7-5.9 1.9-0.2-0.9-7.4 6-0.7 5.5-0.6 2.9-0.3 0.2 1.4 1.2 10.1z" id="IN03" name="IN03 District"/>
    <path d="M682.1 255.1l0-0.2 0-0.8 0-0.1-0.1-1-0.4-4.6-0.1-1.3-0.9-9.9 0-0.9-0.5-4.5 1.5-0.3 0.5 0.2 1.4-0.6 0.6-0.8 1-0.5 0.5-0.8 1-0.5 1.3 0.2 1.6 1 0.6-0.4 0.7 7.4 8-0.7 0.2 2 1.7-0.2 0.2 0.1 0.1 1.3 1-0.2 0.4 0.2 0.2 2.1-1 0.4 0.2 1.5-0.2 0.6-0.4 0 0.2 3 1.8-0.2 0.6 0.6 0.4 4.3 0.8 6.6-1.5 0.2 0.1 1.3 0.4 3.4 0.2 2 1.3-0.2 0.6 6.7-3.7 0.5-2.9 0.2 0-0.1-0.3-2.9-6.7 0.6-0.7-9-1.4 0.1-0.4-3.9-1.2 0.1 0-0.4-0.8 0.1-0.5-1.3 0.3-0.4-0.1-1.3-2.3 0.2-0.3-0.1-0.6 0.3-0.4 0.5 0.2 0.7-1.4 0.2 0-0.5-0.8 0z" id="IN04" name="IN04 District"/>
    <path d="M701.6 243.8l8.3-1-0.2-2 3.9-0.4 3.2-0.4 0.8 6.3 3.8-0.5 0.6 4.6 0.3 2.3-6.2 0.7 0.3 3-4.9 0.6 0 0.4-1.3 0.1-5.2 0.6-0.8-6.6-0.4-4.3-0.6-0.6-1.8 0.2-0.2-3 0.4 0z" id="IN05" name="IN05 District"/>
    <path d="M729.1 249.6l0.8 8.3 0.8 6.7-5.4 0.5-3 0.4 0.2 1.7-5.8 0.6 0.3 2.4-1 0.1 0.5 5-1.9 0.3-0.6-0.3-0.9 0.1-0.1-0.3-3.4 0.4-0.6-4.3-2.9 0.3-0.6-6.7-1.3 0.2-0.2-2 1.6-0.2 4.8-0.6-0.3-3.3 0.2-0.1-0.1-1.3 1.3-0.1 0-0.4 4.9-0.6-0.3-3 6.2-0.7-0.3-2.3 1.8-0.2 0.1 0.2 1.6-0.2 0.5 0.4 0.6-0.1 0-0.5 1.2-0.3 1.3-0.1z" id="IN06" name="IN06 District"/>
    <path d="M704 263l-0.4-3.4-0.1-1.3 1.5-0.2 5.2-0.6 0.1 1.3-0.2 0.1 0.3 3.3-4.8 0.6-1.6 0.2z" id="IN07" name="IN07 District"/>
    <path d="M690.8 306.4l-0.6-0.2-0.9-0.6-1.2 0-1 1-0.8-0.5-0.5-0.8-0.4-0.1-0.4 1 0.2 0.5 0.7 0.7-0.5 1-1 0.2-0.2-0.6 0.2-0.6-0.4-0.5-0.5 0.3-0.8 0.1-0.6 0.4-0.8 0-0.7-1-0.6 0.1-0.5 0.8 0.1 0.4 0.5 0.6 0.1 0.8-0.4 0.3-0.2 0.6-1-0.5-0.5 0-0.6 0 0.5-0.9-0.6-0.2-0.7-1 1.5-0.1-0.6-1.4 0.4-0.5-0.5-1.2 1.2-0.9 0-0.8-0.7 0.4-0.2-0.4 0.6-0.2 0.5-0.4 0.6-0.9-1.1-0.6-0.4-0.8 0.8-1.5 1.5 0.2 0.3-0.6-0.1-0.5 0.4-1 0.4-0.1 0.6-1.1 0.2-0.9-0.3-0.6 1-0.4 0.5-0.7-0.3-0.6 0.3-0.2 0.2-0.9 0.5-1.7 1.1-0.5 0.2-0.4 0.3-2-0.6-0.7-0.1-0.7-0.5-0.3 0.5-1.7 0-0.5-0.3-0.4-0.8-0.2-0.1-1.7-0.9-1-0.8-0.6 0.6-1.2 0.5-0.4 0.2-0.6-0.2-0.7-0.4-0.1-0.1-1.1 0.2-0.6 1-0.4-0.3-2.9-0.2-2.1-0.1-1.8-0.5-5.3-0.4-4.2-0.2-2.1 0.8 0 0 0.5 1.4-0.2-0.2-0.7 0.4-0.5 0.6-0.3 0.3 0.1 2.3-0.2 0.1 1.3-0.3 0.4 0.5 1.3 0.8-0.1 0 0.4 1.2-0.1 0.4 3.9 1.4-0.1 0.7 9 6.7-0.6 0.3 2.9-0.4 0.3-0.5 0 0.8 7.5 0.7 7.4 3.9-0.5 2.7-0.2 0.6 6.1 1-0.1 0.1 0.3-0.3 1.6 0.3 1-0.2 0.4 0.1 1.2-0.2 0.6-0.6 0.5-0.8-0.2 0 0.6 0.9 0.3 0.1 0.4-0.9 0.2-0.4 0.6-0.6-0.4-0.5 0.2 0.1 0.5 0.5 0.3 0 0.4-0.5 0.5-0.8 0.1-0.2 0.4 0.1 1.4 0.4 0.9-0.4 0.2-1 0-0.2 0.5 0.2 0.8-0.7 0.6-0.5-0.2 0.3-0.9-0.2-0.4-0.6 0-0.8 0.5-0.9-1.2-0.4-0.8-0.6-0.2-0.6 0.4-0.9 1.2-0.9 0.1-0.7 0.4-0.6 0.8 0.1 0.4-0.3 1.6-0.4 0.4-0.6 0.1-0.7-1.2-1.1-0.1-1.6-1z" id="IN08" name="IN08 District"/>
    <path d="M730.7 264.6l0.5 5 0.6 4.6-1.3 1.2 1.2 1.4 0.2 0.7-0.7 1 0.4 0.5 0.8-0.1 0.5 0.3 0 0.5-0.6 0.8 0.4 0.8-0.2 0.2-1.1-0.1-0.8 0.5-1 0.1-1.8 1.4-0.4 0.6-0.7 0.4-0.7-0.1-0.7-0.7-1-0.2-1.2 0.4-0.7 0-0.7 0.6 0 0.7 0.4 0.5 0.2 1.4 0.4 0.6 0.1 0.6-0.3 0.5-0.5 0.4-0.5 1-0.4 0.3-1.1 0.3-0.5 0.6-0.2 1.1-0.2 1.3-0.3 0.5-1 0.9-0.9-0.3-0.8 0.3 0 0.9-1 1.6 0 0.7 0.2 1.2-0.2 1.4-0.4 0.7-1.1 0.2-0.8 0.8-0.4-0.7-0.8-0.3-1 0.3-0.8-0.4-0.9-0.5-0.3-1 0.1-0.8-0.5-0.6-0.7-0.4 0.6-0.5 0.2-0.6-0.1-1.2 0.2-0.4-0.3-1 0.3-1.6-0.1-0.3-1 0.1-0.6-6.1-2.7 0.2-3.9 0.5-0.7-7.4-0.8-7.5 0.5 0 0.4-0.3 0 0.1 2.9-0.2 3.7-0.5 2.9-0.3 0.6 4.3 3.4-0.4 0.1 0.3 0.9-0.1 0.6 0.3 1.9-0.3-0.5-5 1-0.1-0.3-2.4 5.8-0.6-0.2-1.7 3-0.4 5.4-0.5z" id="IN09" name="IN09 District"/>
    <path d="M619.5 232.3l0 0.5-0.7 1.4 0.1 0.3 0.8 0.8 0.5 0.8 0.9 0.2 0.8 1.3 0.1 1.4-0.2 1.3 0.2 0.5-0.2 0.7-0.6 0.5-0.7 0.9-0.2 0.5-0.6 0.9 0.1 0.8-0.4 1.2 0 1.2-1.1 0.8-1 0.1-1.1 0.3-0.8 0.6-0.8 1.4 0.7 0.7 0.1 0.6-0.2 0.9 0.2 0.7-0.1 0.6-0.3 0.2-0.5 0-0.3-0.1-0.7 0.2-0.8-0.7 0-1.1-0.8 0-0.5-0.7-0.3-0.2-0.2-0.9-1-0.2-0.2-0.7-0.7-0.7-2.4 0.3-5.3 0.4-0.2-5.3-0.4-7.6-6.2 0.2-9 0.3-6.7 0.2-5.6 0.1-0.2-8 4.1-0.1 1.9 0 0.3-0.1 1.4 0.7 0.2-0.2-0.1-2.6-0.3 0.1-0.2-6.1 3.3-0.1 6.6-0.2 0.2 6 0.1 0 0.1 2.2 7.8-0.3-0.2-4.9-0.1-3.3 6.7-0.2 3.2-0.2 5.9-0.2-0.5-10 7.2-0.3 4.5-0.3-0.1-2 3.3-0.2 1 1.3-0.2 1 0.2 0.6 0.6 0.6 0.6 0.5 0.6 0.2 1.9 0.8 0.2 0.5 0.6 0.3 0.1 1.7 0.5 0.9-0.3 1 0.2 1.2-0.2 0.7-0.2 1.7-1.5 0.9-0.6 0.8 0.1 0.8-0.3 0.5-0.2 0.8 0.1 1.3-1.1 0.6-0.8 1-0.6 0.2-0.7-0.2-0.9 0.4-0.2 0.4-0.8 0.8-1.4 0.4-1.8-0.1-1.4 0.9-0.8-0.2-0.9 0.2-0.3 0.4-0.3 1.8z" id="IA01" name="IA01 District"/>
    <path d="M614.5 182.7l-0.2 0.9 0.5 0.9 0.1 0.6-0.2 0.7 0.2 0.3 1.2 0.5 0.8 0.7 0.5 0.9-0.3 0.6-0.6 0.7-0.6 1.3-0.3 0.2 0 1.5 0.1 0.7 0.6 1.7 0.1 1.4 0.7 0.4 0.8 2.9 0.2 0.4 1 0.5 0.7 0.6 4 0.8 0.3 0.3 0.3 0.8 0.8 1.2 0.1 0.7-0.3 0.4 0.2 0.5 1.3 0.6 0.3 0.5 1.5 0.7-3.3 0.2 0.1 2-4.5 0.3-7.2 0.3 0.5 10-5.9 0.2-3.2 0.2-6.7 0.2 0.1 3.3 0.2 4.9-7.8 0.3-0.1-2.2-0.1 0-0.2-6-0.3-7.9-6 0.2-5.7 0.1-0.2-6-0.6 0-0.1-2 8-0.2-0.3-8-7.9 0.2-0.1-5.4-0.2-8.2 9.1-0.2 8-0.3 7.2-0.3 6.5-0.3 6.9-0.3z" id="IA02" name="IA02 District"/>
    <path d="M580.3 221.6l0.2 6.1 0.3-0.1 0.1 2.6-0.2 0.2-1.4-0.7-0.3 0.1-1.9 0-4.1 0.1 0.2 8 5.6-0.1 6.7-0.2 9-0.3 6.2-0.2 0.4 7.6 0.2 5.3-8.3 0.5-6.1 0.3-4.2 0.3-5 0.1-9 0.4-3.7 0.1-5.3 0.1-6.9 0-6.6-0.1 0-3.4-0.2 0-0.1-9.9 4 0-0.1-8 7.7 0 0-2.3-0.7 0-0.1-6 1.9 0-0.1-8 4.6 0 3.2-0.1 0.2 8 9.3-0.3 4.5-0.1z" id="IA03" name="IA03 District"/>
    <path d="M538.3 247l-0.2-0.4 0.1-0.7-0.2-0.7 0.6-0.4-0.4-0.9 0.1-1.4-0.5-0.3 0-1-0.4-0.6 0.4-0.6-0.4-1.4 0.3-0.8-1-0.1 0.2-1.1-0.3-1 0.9 0-0.1-0.8-0.7-0.1-0.6-0.6 0.5-0.5-0.1-0.5 0-1.7-1.2-0.2-0.2-0.4 0.4-0.5-0.1-0.6-0.4 0-0.2 0.6-0.4 0.1-0.6-0.8 0.2-0.7-0.5-0.6-0.1-0.5 0.4-0.6-0.4-0.7 0-0.3 0.8-0.4-0.6-0.7 0.5-0.5 0.2-0.7-0.7-0.7-0.1-0.6-0.4-0.4-0.4-0.9 0.3-0.2 0.2-1.2-1-0.5 0.1-0.4-0.6-0.4-0.2-0.4-0.6-0.1-0.2-0.7 0.2-0.8-0.7-0.5-0.6-0.8-0.2-1 0.6-0.5-0.2-0.7-0.6-0.7 0-0.4-0.6-0.7-0.1-1.7 0.5-0.8-0.3-0.9-0.7-0.1-0.6 0-0.2-0.5 0.2-1-0.3-0.5-0.3-1.1-1.4-1.7-0.5-0.1-0.1-0.8 0.3-1 0.2 0 0.5-1.1 0.5-0.4 0-0.6 0.3-0.5-0.2-0.7 0.7-0.7-0.4-0.5 0.5-0.7-0.3-0.9 0.8-0.3 0.2-0.8 0.3-0.5-0.6-0.9-0.1-1.5-0.7 0.1-0.6-0.2 0.1-0.5-0.6-0.6 0.1-0.5 0.4 0.1 0.5-0.4 0.1-1.8-1.2-1-0.2-0.4 0.4-0.4-0.3-0.8 2.4 0 8 0.1 8.9-0.1 8.6 0 10.5-0.2 5.9-0.1 7-0.2 0.2 8.2 0.1 5.4 7.9-0.2 0.3 8-8 0.2 0.1 2 0.6 0 0.2 6 5.7-0.1 6-0.2 0.3 7.9-6.6 0.2-3.3 0.1-4.5 0.1-9.3 0.3-0.2-8-3.2 0.1-4.6 0 0.1 8-1.9 0 0.1 6 0.7 0 0 2.3-7.7 0 0.1 8-4 0 0.1 9.9 0.2 0 0 3.4-6.5-0.1 0-0.4-0.3-0.4-0.4-0.9-0.9-0.4-0.1-0.5-0.6-0.4 0.1-0.8 0.5-0.3 0.2-0.3 0.1-0.1 0-0.1z" id="IA04" name="IA04 District"/>
    <path d="M639.3 289.4l-0.8 0.8-0.6 1-0.1 0.5 0.6 1 0.1 0.8-0.2 0.7-0.5 0.6-0.6 1-0.7-0.6-0.5-0.7 0.2-0.9-0.5 0.1 0.1 0.8-0.7 0.5 0.1-0.9 0.1-0.9-0.3-0.2-0.9 0.4-0.3-0.5-0.9-0.4 0.6-0.7-0.6-1.1 0.2-0.6 0.5-0.9 1 0.1 0.6-0.5 0.1-0.9 0.7-0.2 0.6 0.6 1.3 0.8 0.7-0.2 0.5 0.2 0.2 0.3z" id="MO01" name="MO01 District"/>
    <path d="M637.2 295.8l-0.1 0.3-0.3 2.1-0.7 0.9-0.3-0.2-0.2-1.2-0.9 0.1-0.3-0.5 0.1-0.6-1.7 0.1-1.4 0.1-0.4 0.7-0.4-0.3-0.4 0.2-0.3 0.6-0.8-0.6-0.3 0.3 0.1 1.2-0.5 4.9-10.5 0.6-0.1-3-0.1-2-0.3-6.4-0.9-0.2-0.1-3.1 2.3-0.1 0.8-0.1 1 0.5 1.2 0 1.7-0.4 2 0.5 1.2-0.1 1.1 0.8 0.4-0.6 0.9-0.2 0.3 1.5 0.6 1.1 1.8 0 0.5-0.4-0.1-0.6 0.8-1 0.6 1.1-0.6 0.7 0.9 0.4 0.3 0.5 0.9-0.4 0.3 0.2-0.1 0.9-0.1 0.9 0.7-0.5-0.1-0.8 0.5-0.1-0.2 0.9 0.5 0.7 0.7 0.6z" id="MO02" name="MO02 District"/>
    <path d="M637.9 287.6l1.4 0.8 0 1-0.2-0.3-0.5-0.2-0.7 0.2-1.3-0.8-0.6-0.6-0.7 0.2-0.1 0.9-0.6 0.5-1-0.1-0.5 0.9-0.2 0.6-0.8 1 0.1 0.6-0.5 0.4-1.8 0-0.6-1.1-0.3-1.5-0.9 0.2-0.4 0.6-1.1-0.8-1.2 0.1-2-0.5-1.7 0.4-1.2 0-1-0.5-0.8 0.1-2.3 0.1 0.1 3.1 0.9 0.2 0.3 6.4 0.1 2 0.1 3 10.5-0.6 0.5-4.9-0.1-1.2 0.3-0.3 0.8 0.6 0.3-0.6 0.4-0.2 0.4 0.3 0.4-0.7 1.4-0.1 0.2 4 0.1 3.3 0.2 0.7-0.5 1.1-1.4 0.5-0.4 0.3 0.4 7.9-2.1 0-2 0.2-1.3 0-3.6 0.1 0.1 1-3 0.1 0-2-4 0.1-0.3-8.3-1.9 0 0.1 2.4-2.2 0.1-2.5 0.1-0.7 0.5-0.4-0.1-0.1 0.6-1 0-3 0-5.9 0.1-0.3-0.7-0.7-0.3 0-0.6-0.5-0.4 0-0.6-0.5-0.1-1.4 0.8-0.6-0.7-0.6 0-0.1-1.1 0.3-0.5 1.1-0.3 0-2.9 1 0 0-1.9-3.9-3.7 0-2-2 0-1.9-0.1 0-6.4 1.9-2.2 0.4 1 1.3 0.9 0.9 0.1 1.3-0.3 2.1 0.3 1.2-0.5 1 0 1.4 0.7 1.7 0.1 0.3-0.4 1.8 0 0.5 0.1 0.3-1.6-0.1-0.9 0.4 0 2.3-0.1 6.1-0.2 0-2 6.5-0.2 0.1 3.4 1.3 0 0.1 1.4 1.4-0.1 0 1.4 2.7-0.1 0.4-0.4 1.2-0.1 0.8 0.2 0.3-0.8 0.4-0.3 1 0.2 0.5-0.5 0.5-0.1 0.8 1.1 0.8 0.3 0.6-0.1 0.9-1.3 0.3-0.7 0.3-0.3 1.1 0.2 1.5 0.7 1 0 1.1 0.7z" id="MO03" name="MO03 District"/>
    <path d="M560.3 325.6l0-3.1-0.1-6.4 0-4.5-0.1-5.7 0-3.9-0.1-5 0-5.5 3 0.1 2.8 0.1 0.2-0.5 0.1-1.4-0.3-0.6 0.1-1.8-0.6-0.1-0.3-1.1 0.2-0.4 0.6 0.2 0.1 0.3 1.2 0 0-0.6 1.6 0 0.1-1.2 0.7 0.2 0.7-0.5-0.1-0.8 0.9-0.4 0.2 0.5-0.4 0.8 0.5 0.2 0.3-0.9 0.7-0.1 0.5-0.5 0.6-0.2 1 0.3 0.8-0.3 0.6 0 0.9-0.9 1.1 0.2 0.5 0.5 0.8 0 0.5-0.3-0.2-1.3 0.5-0.2 0.4 0.6 0.6 0 0.1 0.9 0.7-0.2 0.6-0.4-0.3-0.8 0.2-0.5 1-0.1 0.4-0.6 0.6 0.1 0.5-0.8-0.2-0.8 0.6-0.1 0.5 0.6 0.9-0.1 0.3 1 0.8 0.5 1.2 0 0 0.7 0.8 0.6 0.2 0.7 0.7-0.3 0.3 0.2 0.9-2.7 6.4 1.9 5.7 0 0.1 4.1-0.4 0 0.1 0.9-0.3 1.6-0.5-0.1-1.8 0-0.3 0.4-1.7-0.1-1.4-0.7-1 0-1.2 0.5-2.1-0.3-1.3 0.3-0.9-0.1-1.3-0.9-0.4-1-1.9 2.2 0 6.4 1.9 0.1 2 0 0 2 3.9 3.7 0 1.9-1 0 0 2.9-1.1 0.3-0.3 0.5 0.1 1.1 0.6 0 0.6 0.7 1.4-0.8 0.5 0.1 0 0.6 0.5 0.4 0 0.6 0.7 0.3 0.3 0.7 5.9-0.1 3 0 0.1 3.2 0.1 6.2-3.9 0.1 0 3.1-4.2 0.1-3.6 0 0.1 5 0.2 0.5-2.1 0-2.5 0-0.6 0.3 0-0.8-0.6 0.2-1.3-0.1-0.1-3.4-4.6 0-5.3 0 0 3.4-8.2 0 0-1.4-6.6-0.1-3.1-0.1z" id="MO04" name="MO04 District"/>
    <path d="M559.9 285.9l0.1-1.6 0-4 0.7 0 0.1 0.3 1.1 0 0 2.3 0.3 0 0 1.4-0.1 0.3 0.4 0.6 0.6-0.6 0.8 0.3 1.2-0.1 0.6 0.5-0.5 0.5-0.2 0.4 0.3 1.1 0.6 0.1-0.1 1.8 0.3 0.6-0.1 1.4-0.2 0.5-2.8-0.1-3-0.1-0.1-5.6z" id="MO05" name="MO05 District"/>
    <path d="M547.4 265.1l-0.9-0.7-0.5 0.1-0.5-0.6 0.4-1.7-0.6-0.3-0.2-0.5-0.6-0.5 0.1-0.9-0.2-0.5-0.6-0.1-0.7-0.5 0-0.5-1.7-0.7 0.5-0.5-0.3-0.6-0.3-1.1 0-0.6-0.6-0.6-0.1-0.8 0.7-0.3 0.1-0.5-0.3-0.5-0.4 0.1-0.1 0.6-1 0.1-0.3-1.2 0.4-0.2 6.5 0.1 6.6 0.1 6.9 0 5.3-0.1 3.7-0.1 9-0.4 5-0.1 4.2-0.3 6.1-0.3 8.3-0.5 5.3-0.4 2.4-0.3 0.7 0.7 0.2 0.7 1 0.2 0.2 0.9 0.3 0.2 0.5 0.7 0.8 0 0 1.1 0.8 0.7 0.7-0.2 0.3 0.1 0.5 0 0.3-0.2-0.3 0.2-0.3 0-0.5 0.5-0.3 0.5-0.6 2.4-0.1 1.4 0.1 1.2 0.4 1.5 0 0.5 1.4 2.8-0.4 0.8 0.3 0.9 0.4 0.2 0.8 0.8 0 1.5 0.4 0.4 1.3 1 1 1 0.6 0.3 0.4 0.9 0.3 0.4 0.9 0.1 0.7 1 0 0.5 0.5 0.5 0.8 0.6 1 0.4 0.1 0.2 1.6 1 1 0.8 0.7 1 0.5 0.3 0.4 2.2 0.5 0.8 0.1 0.7-0.5 0.7 0.7 1.5 0.3 1.3-0.5 0.1-0.5 0.5-1-0.2-0.4 0.3-0.3 0.8-0.8-0.2-1.2 0.1-0.4 0.4-2.7 0.1 0-1.4-1.4 0.1-0.1-1.4-1.3 0-0.1-3.4-6.5 0.2 0 2-6.1 0.2-2.3 0.1-0.1-4.1-5.7 0-6.4-1.9-0.9 2.7-0.3-0.2-0.7 0.3-0.2-0.7-0.8-0.6 0-0.7-1.2 0-0.8-0.5-0.3-1-0.9 0.1-0.5-0.6-0.6 0.1 0.2 0.8-0.5 0.8-0.6-0.1-0.4 0.6-1 0.1-0.2 0.5 0.3 0.8-0.6 0.4-0.7 0.2-0.1-0.9-0.6 0-0.4-0.6-0.5 0.2 0.2 1.3-0.5 0.3-0.8 0-0.5-0.5-1.1-0.2-0.9 0.9-0.6 0-0.8 0.3-1-0.3-0.6 0.2-0.5 0.5-0.7 0.1-0.3 0.9-0.5-0.2 0.4-0.8-0.2-0.5-0.9 0.4 0.1 0.8-0.7 0.5-0.7-0.2-0.1 1.2-1.6 0 0 0.6-1.2 0-0.1-0.3-0.6-0.2 0.5-0.5-0.6-0.5-1.2 0.1-0.8-0.3-0.6 0.6-0.4-0.6 0.1-0.3 0-1.4-0.3 0 0-2.3-1.1 0-0.1-0.3-0.7 0 0 4-0.9 0.1-0.1-0.4-0.5-0.2-0.5 0.3-0.7-0.1-0.5-0.8-0.9-0.2 0.1-0.7-0.3-0.5-0.9-0.6-0.3-1.3 0.6-0.5-0.2-0.4-0.5 0.2-1-0.9-0.3-0.5-0.8-0.4-0.3-0.8-1-1 0-0.7 0.9-0.2 0-1 0.6-1 0.9-0.6 0-0.8 0.4-0.4 0.8 0.5 0.4-0.2 0.3-0.5-0.2-0.5-0.7 0.4-0.4-0.4 0.3-0.4 0.5 0 0.2-0.4-0.3-0.6-0.8-0.4 0.1-0.9-0.4-0.2-1 0-0.4 0.8-0.8 0.1-1-0.4-0.1-0.5-0.8 0.1-0.3-0.3 0-0.7-0.7-0.1-1.1-1.2z" id="MO06" name="MO06 District"/>
    <path d="M560.6 345.5l-0.1-7.3-0.1-4.2-0.1-8.4 3.1 0.1 6.6 0.1 0 1.4 8.2 0 0-3.4 5.3 0 4.6 0 0.1 3.4 1.3 0.1 0.6-0.2 0 0.8 0.6-0.3 2.5 0 2.1 0 0.1 4-4 0.1 0.1 6 2.7 0 0.1 7.1-6.7 0.2-2.8 0-4.6 0.1-5.9 0.2-5 0.1-8.7 0.1z" id="MO07" name="MO07 District"/>
    <path d="M659.6 330l0.6 0.2 0.2 0.5-0.2 1.5-0.4 1-0.5 0.2-0.1 0.8 1.1 0.6-0.1 0.6-0.8-0.1-0.5 0.5 0 0.4 0.6 0.7 0.3 0.5-0.7 0.9 0 0.6-0.4 0.8-0.8 0.1-0.9-1.2-0.3-0.2-0.6 0.2-0.8 3-0.6 0.9-0.4 0.1-0.3-0.4 0.1-0.5 0.3-0.7-0.3-1-0.9-0.2-0.7 0.6 0.2 0.8 0.4 0.5 0.4 0.5-0.3 1.3 0.7 1.1-0.4 0.8-1.4 0.1 0 0.7 0.6 0.4 0.8 0.3 0.1 0.5-1.4 0.4-0.7-0.2-0.8 0 0.1 0.6 1.6 1.1 0.3 1-0.6 0.5-0.7 0.3-0.2 0.4-0.1 1.1-0.3 0.8-0.4 0-5 0.4-6.8 0.5 0.3-0.6 1-2.3 1.1-0.6 0.2-1.1 1.3-1 0.4-0.9 0.6-0.2 0.4-0.7-0.4-0.5 0.2-1.4-0.3-0.4-1-0.2 0-0.6-0.5-0.9 0.1-0.4-6.4 0.3-5.6 0.3-5.8 0.4-5.3 0.3-2.2 0-8.4 0.4-6.8 0.3-1.8 0-5.4 0.3-0.1-7.1-2.7 0-0.1-6 4-0.1-0.1-4-0.2-0.5-0.1-5 3.6 0 4.2-0.1 0-3.1 3.9-0.1-0.1-6.2-0.1-3.2 1 0 0.1-0.6 0.4 0.1 0.7-0.5 2.5-0.1 2.2-0.1-0.1-2.4 1.9 0 0.3 8.3 4-0.1 0 2 3-0.1-0.1-1 3.6-0.1 1.3 0 2-0.2 2.1 0-0.4-7.9 0.4-0.3 1.4-0.5 0.5-1.1-0.2-0.7-0.1-3.3-0.2-4 1.7-0.1-0.1 0.6 0.3 0.5 0.9-0.1 0.2 1.2 0.3 0.2-0.6 1.4 0.2 1.8 0.1 0.6 0.1 0.2 0 0.1 0.1 0.1 0.7 0.7 0.7 0.5 0.7 1 1.3 0.9 0.7 0.1 0.1 0.5 0.8 0.5 0.4 0 1.4 1.2 0.9-0.3 0.2 0.5-0.5 0.2-0.3 0.5 0.5 0.8 1 0.2 0.9-0.8 0.8 0.5 0.1 0.4 1 0.3 1.5 1.3 0 0.6 0.3 0.3 0.6-0.1 0.6 0.8 1.1 0.3 0.3 0.2-0.1 1.1 0.8 0.9 0 0.4-0.7 0 0.1 1.1 0.9 1.5 0.6 0.7 0.5 0.9-0.2 1.2-0.7 0.2-0.6 0.6-0.1 0.6 0.5 0.8 0.6 0.1 0 1 1 1.7 0.5 0.3 0.3 0.7 0 0.9 1.1 0.5 0.5 0.5 0.5-0.1 0.1-0.5-0.8-0.6-0.2-0.6 0.9 0.1 1.1 1 0.2 0.8 0.5 0.2 0.5-0.4z" id="MO08" name="MO08 District"/>
    <path d="M588.5 155.9l1.1 1.2 0.7 0.5 0.1 0.5 0.8 0.3 0.5 0.8 0.4-0.2 1.3 0.5 0.4-0.2 1.1 0 0.5 0.3 0.3 1.1 0.3 0.4 1 0.8 1.6 0.4 1.2 0.4 0.3 0.3 1.3 0.6 0.5 0.5 0.8 1.9-0.1 0.4 0.3 0.8 1 0.7 1.8 1 1.1 1.2 1.1 0.8 1.2 0.1 1.1 0.4 0.7 0.8 0.7 0.6 0.1 0.5 1.3 1.5 0.4 1.2 0.3 0.4-0.3 1.5 0.1 2.2 0.6 0.6-0.1 0.9 0.5 1.1-6.9 0.3-6.5 0.3-7.2 0.3-8 0.3-9.1 0.2-7 0.2-5.9 0.1-10.5 0.2-8.6 0-8.9 0.1-8-0.1 0.1-8 3.4 0.1 8.1 0 6.8 0 7.9-0.1-0.1-6 2 0-0.2-2 0-2.3-0.2-0.4-0.8 0.1-1-0.7 0-3.6 0.7 0.3 0.6 0.6 3.5 0 10.5-0.2-0.3 1.4-0.2 0.3 0.4 1-0.3 0.7-0.5 0.3-0.5 0.8 0 0.5 4.1-0.1 0.1 1 5.9-0.2-0.1-3.9 4.6-0.2 0.6-0.3 0.4-1 0.3-0.1-0.1-1.9 0.9-0.1 0.8 0.1 0.3-0.7 2-0.1 0-2 1 0-0.1-2z" id="MN01" name="MN01 District"/>
    <path d="M587.8 152.6l0.1 0.5-0.7 2 1.3 0.8 0.1 2-1 0 0 2-2 0.1-0.3 0.7-0.8-0.1-0.9 0.1 0.1 1.9-0.3 0.1-0.4 1-0.6 0.3-4.6 0.2 0.1 3.9-5.9 0.2-0.1-1-4.1 0.1 0-0.5 0.5-0.8 0.5-0.3 0.3-0.7-0.4-1 0.2-0.3 0.3-1.4 0.3-0.4 0.3-0.8 0-0.4-0.4-0.5 0.5-1.3 1-0.7 0.8-0.2 0.5-0.1 1.1-1.2 0.8-0.3-0.2-0.6 0.2-0.7 0.6-0.6 0.9-0.3 1.1 0 0.3-0.3 1.7 0.6 1.3-0.6 0.6-0.7 0.2-0.5 0.3-0.6 0.4-0.1 0.4-0.6 1.3-0.1 0.5 0.7 2.5-0.1 0.1 0.6 1.5 0z" id="MN02" name="MN02 District"/>
    <path d="M580.8 152.8l-0.2 0.5-0.6 0.7-1.3 0.6-1.7-0.6-0.3 0.3-1.1 0 0-2-4 0.1-0.1-3.8 0.5-0.6 0.2-0.7 0.6-0.9 0.8 0.1 0.1-0.6-0.5-0.5 0.3-0.3 0.7 0 1.2-0.9 1.6 0.6 0.7-0.2 0.3 0.3 1.5 0 0.1 1.9-0.3 0.9-1.1 0 0 0.5-0.8 0.1 0.1 2.9 0.8 0.8 0.6 0.2 0 0.7 1.9-0.1z" id="MN03" name="MN03 District"/>
    <path d="M587.2 147.6l-0.1 0.5 0.7 0.8-0.1 1.2 0.3 0.8-0.3 1.1 0.1 0.6-1.5 0-0.1-0.6-2.5 0.1-0.5-0.7-1.3 0.1-0.4 0.6-0.4 0.1-0.3-0.5-0.2-1-0.1-2-0.3-0.2 0-1.7 3.3-0.1 2.5 0 0.1 1 1.1-0.1z" id="MN04" name="MN04 District"/>
    <path d="M581.1 152.2l-0.3 0.6-1.9 0.1 0-0.7-0.6-0.2-0.8-0.8-0.1-2.9 0.8-0.1 0-0.5 1.1 0 0.3-0.9 0.6 0 0 1.7 0.3 0.2 0.1 2 0.2 1 0.3 0.5z" id="MN05" name="MN05 District"/>
    <path d="M575.6 154.3l-0.9 0.3-0.6 0.6-0.2 0.7 0.2 0.6-0.8 0.3-1.1 1.2-0.5 0.1 0-0.7-2 0 0-1-2 0.1 0-4-0.1-2-4 0-0.1-4.9 0-1-0.1-2.7 0.6 0 0-1.1-0.6 0 0-0.5-2 0 0-1.6-2 0 0-1.9 1.9-0.1 0-0.6 1.1 0.5 0.4-0.4 0-0.8 0.4-0.1 0-0.6 1-0.1-0.1-0.6-0.8-0.9-0.3-0.8-0.5-0.1-0.8-0.9 5.8-0.1 3.6-0.1 0.3 6 3.9-0.1 0.1 3.3 1.2 0 4.4-0.1 2.3 0 0.2 6.5-3.3 0.1-0.6 0-0.1-1.9-1.5 0-0.3-0.3-0.7 0.2-1.6-0.6-1.2 0.9-0.7 0-0.3 0.3 0.5 0.5-0.1 0.6-0.8-0.1-0.6 0.9-0.2 0.7-0.5 0.6 0.1 3.8 4-0.1 0 2z" id="MN06" name="MN06 District"/>
    <path d="M526.4 128.9l-0.2-2 0.3-0.9 0.1-0.7-0.5-1.9 0-0.6-0.2-0.6 0-2.3-1.1-1-0.7-2-0.3-0.4-0.3-2.4-0.3-0.2-0.4-1.4 0.1-0.4 0.2-1.1-0.1-1.5-0.2-0.2 0.1-0.1-0.1-0.5 0.1-0.1 0.1-0.1 0.1-0.1 0-0.4 0.1-0.1 0-0.8 0.3-0.5 0.1 0-0.1 0 0-0.1-0.1-0.1 0.2 0-0.1 0-0.1-0.1 0.1 0-0.5 0 0-0.1-0.2-0.8-0.3 0-0.2-0.9 0.3-1-0.1-0.6 0.1-0.7-0.3-0.9 0.2-0.8-0.2-0.7 0.1-0.5-0.2-1.3 0.2-1-0.3-0.9 0.2-0.1-0.3-0.8 0.1-1-0.1-0.7 0-1.1 0.2-1.2-0.6-1.1-0.2-1.1-0.3-0.5-0.3-1.3-0.6-0.8 0-0.6-0.5-0.9 0-1.1-0.6-0.7-0.2-2.2-0.5-0.6 0-0.6-0.3-0.2-0.4-0.8 0-1 0.3-0.5-0.1-0.6 0.3-1-0.2-0.9 0.1-0.5-0.4-0.5-0.1-0.5 0.4-0.5-0.2-0.8 0.1-0.5-0.2-1.5-0.2-0.5 0.4-0.7 0.2-1.1 0.5-0.6-0.1-0.7-0.8-2.2-0.3-0.3 0.1-1.1-0.4-0.7-0.5-1.5 0.1-0.3-0.2-0.2 0.2-0.7 6.5 0.1 6 0 9.8 0 6.8 0-0.1 1.4 0.6 0.9 0.8 0.3 1.5-0.3 0.7-0.5 0 4.6-3.8 0.1 0 3.9-4 0 0 3.9 0.2 0 0 7.8 0.2 0 0.1 7.9 0.4 0 0 4-3.1 0-4.9 0 0 8.5 0 3.3 8 0 7-0.1 3 0 0-2 2 0 0 1.8 0.7-0.3 0.6-0.5 0.5 0 0.3 1 0 3.9-2 0.1 0.1 3.9 0.1 0 0.1 5.4 0.4 0.3 0.5 0.6 0.9-0.1 0.6 0.6 0.6 0.1 0.9 0.5 1.4-0.7 1.3 0.7 0.4 0.6-0.8 0.8-0.1 0.7 0.5 0.7-0.1 0.5 3.7 0 5.2-0.2 0.1 4 0.7 0 0.1 3.6-3.6 0.1-5.8 0.1 0.8 0.9 0.5 0.1 0.3 0.8 0.8 0.9 0.1 0.6-1 0.1 0 0.6-0.4 0.1 0 0.8-0.4 0.4-1.1-0.5 0 0.6-1.9 0.1 0 1.9 2 0 0 1.6 2 0 0 0.5 0.6 0 0 1.1-0.6 0 0.1 2.7 0 1 0.1 4.9 4 0 0.1 2 0 4 2-0.1 0 1 2 0 0 0.7-0.8 0.2-1 0.7-0.5 1.3 0.4 0.5 0 0.4-0.3 0.8-0.3 0.4-10.5 0.2-3.5 0-0.6-0.6-0.7-0.3 0 3.6 1 0.7 0.8-0.1 0.2 0.4 0 2.3 0.2 2-2 0 0.1 6-7.9 0.1-6.8 0-8.1 0-3.4-0.1 0-10.3 0.1-9.5 0-5.6 0-7.8-0.6-1.3-2.1-1.1-0.9-0.1-0.8-1.1-0.5-1.4-1.5-2 0.3-0.9 1.3-1 0.1-0.2 1.3-0.7 0.5-0.9 0.9-1.1 0.1-0.6 0.2-2.1z" id="MN07" name="MN07 District"/>
    <path d="M598.2 110.1l-0.3-0.1-0.9-0.8-0.7 0.2-0.1 0.6-0.7-0.1 0.2 0.7-0.5 0.9-0.9 0-0.4-0.3 0.2 5.1 0.3 8.3-0.6 0.4-0.2 1-1-0.2-0.5 0.3-0.5 1-0.8-0.2-0.4 0.7-1.4 0.4-1.1 1.1-0.8 1.5 0.1 0.3-0.4 1.1-0.4 0.5-0.9 0.6-0.2 2.1 0.1 1.2 1 0.3 0.8-0.2 0.7 0.6 0.1 0.6 0.7 1.1 0.6 0.5 0 1-0.9 1 0.1 0.4-0.5 0.9-0.4 0.3 0.2 1.5-0.2 0.8 0.2 0.2 0.2 1.6-0.8 0.6-1.1 0.1-0.1-1-2.5 0-0.2-6.5-2.3 0-4.4 0.1-1.2 0-0.1-3.3-3.9 0.1-0.3-6-0.1-3.6-0.7 0-0.1-4-5.2 0.2-3.7 0 0.1-0.5-0.5-0.7 0.1-0.7 0.8-0.8-0.4-0.6-1.3-0.7-1.4 0.7-0.9-0.5-0.6-0.1-0.6-0.6-0.9 0.1-0.5-0.6-0.4-0.3-0.1-5.4-0.1 0-0.1-3.9 2-0.1 0-3.9-0.3-1-0.5 0-0.6 0.5-0.7 0.3 0-1.8-2 0 0 2-3 0-7 0.1-8 0 0-3.3 0-8.5 4.9 0 3.1 0 0-4-0.4 0-0.1-7.9-0.2 0 0-7.8-0.2 0 0-3.9 4 0 0-3.9 3.8-0.1 0-4.6-0.7 0.5-1.5 0.3-0.8-0.3-0.6-0.9 0.1-1.4 2.5 0-0.1-8.7 0.4 0.3 1.1 0.4 1.5-0.4 1.6 1 0.5 0.1-0.1 0.6 0.5 1.8 0 0.3 0.4 1.8 0.3 0.5 1.1 4.8-0.3 1.4 0.2 0.9 1.5 1.4 0.9 0.4 1.5 0.1 0.3-0.4 1.2 0.2 0.5-0.2 0.7 0.3 0.3 1 1.3 0.1 2.3 0.1 0.8 0.1 1.7 0.1 0.4 0.5 0.2 0.8-0.1 0.9 0.3 0.4 2.3-0.1 0.3-0.3 1.2 0 1.2-0.4 0.2-0.4-0.1-0.7 1.6-0.5 0.1-0.3 1.4-0.4 0.8 0 0.4 0.4 1.4-0.2 1.6 0.1 0.5-0.2 0.3 0.5 3.2 1.5 1.4-0.2 0.2 0.7-0.2 0.3-1 0.1-0.1 0.8 0.8 0.5 2.3-0.3 0.8 1-0.2 0.7 0.1 0.5 0.8 1.2 0.8 1.7 0.3-0.3 1.1-0.3-0.4-1 0.2-1.2 0.4-0.3 0.8 0.1 0.7-0.4 0.3 0.2 1.3-0.2 0.2 0.6 0.7 0.3-0.2 0.5 0.2 0.7 0.8 0.3 0 0.4 0.9-0.1 0.5 0.7 0.8-0.2 0.2 0.2 1.3 0 0.3 1.3-0.1 0.6 0.9 0.1 0.2 0.3 0.8-0.2 0.3 0.2 0.1 1.1 1.2-0.6 0.5 0 0.4 0.4 0.9-0.5 1.2-0.1 0.6-0.3 1.7-1.6 0-0.1 1.2-0.8 0.4 0 0.8-0.8 1.3-0.7 0.8 0.1 0.1 1.5 0.5-0.1 0.1 0.9 0.6 0.9 0.3 0 1.6-0.2 1-0.5 0.3 0.6 1.8-0.2 0.5-0.2 0.4 0.3 1.1-0.4 0.3 0.1 1-0.2 1.4-0.2 1.7 0.5 0.5 0.8 0.1 0.5 0.6 0.3 0.3-0.1 0.6 0.6 0.4 0 0.8-0.7 0.8-0.2 1.2 0.1 1 0 0.1 0.3-0.8 0.8-0.9 1.1-0.9 0.6-1.8 0.8-0.9 0.8-1.4 0.5-0.7 0.5-0.7 0.1-0.4 0.3-1 0.2-1.4 0.7-1.4 0.4 0 0.1-1.5 0.6-2 1.4-0.9 0.5-2 1.6-2.5 2.5-1.9 2-1.3 2.1-0.3 0.2-0.8 0.9-0.6 0.9-1 1-0.7 0.8-0.6 0.5-0.8 0.4-1 1.3-1 0.7-1.1 1.4-1 0.5-2.3 2.1-0.8 0.5-0.7 0.7 0.3 0.6 1 1.2z" id="MN08" name="MN08 District"/>
    <path d="M662.3 127.2l-0.6-0.1-0.6-0.5-0.1-0.3 0.9-1.2-0.5-0.2-0.1-0.8-0.4 0-0.9-0.6-0.8 0.1-0.4-0.3-0.7 0.2-1.4-0.7-0.6 0.3-0.7-0.4-0.5 0.2-0.2-0.5-0.9 0.1-0.8 0.7-0.7 0-0.3-0.5-1-0.2-0.7 0.3-1.1-0.5-4-2-6-1.2-7.4-1.5-3.2-0.7 0-0.5-0.7-1.1-1.1-2-0.7 0-0.8-0.7-0.6-0.1-0.7 0.2-0.4-0.7 1.3-1 0.4 0.1 0.6-0.4 1.6-0.7 0.9-0.3 1.2-0.5 0.6-0.7 1-0.9 1-1.4 0.9-0.5 1.8-0.5 1 0.3 1.5-0.7 0.7 0.1 0.8-0.2 1-0.5 1.9-1.3 0.7-1.2 0.5-0.5 1.2-0.2 0.5-0.3 0.7 0 0.5-0.4 0.9-2 0.6-0.4 0.4-0.5 0.9-0.6 0.4-0.6 1.1-1 1.2-0.6 1.1-1.2 1-1.8 0.8-0.6 0.7-0.3 0.6-0.5 0.6-0.1 0.5-0.6 0.4-0.2 2.2-0.6 1.6-0.2 0.9 0.2 1.2-0.2 0.7 0.2 0.7 0.4 0.2 0.9-0.5-0.1-1.1 0.6-0.7-0.2-1.5 0.3-0.1 0.6 0.5 0.4-1.2 0.9-0.6 0.3-0.6 0.9-0.3 0.1-0.7 1-0.7 0.2-0.3 0.5 0.1 0.9-0.7 0.3-0.2 0.9-0.8 0.6-0.1 1.3-0.5 0.8-0.7 0.4 0 1.1-0.3 0.8 0 1.4 0.6 1.4 0.2-0.7 0.8-1.1 1-1.3 1-0.9 1.4-1 0 0.5-0.5 0.6 0 0.3 1.6-0.4 1.3 0.2 1.6-0.2 0.9 0.5 0.4-0.2 0.7 0.5 0.6-0.1 0.3 0.9 0.8-0.3 0.1 0.4 0.6 0.1 0.6 0.8 0.3 1 1 0.8 0.4 1 0.6 0.2 0.1 0.4 1.2 0.9 0.3 0.6-0.2 0.3 0.6 0.6 0.8 0.2 1.7-0.1 0.5-0.4 0.8 0.2 0.6-0.6 0.8-0.3 0.8-0.1 0.6 1.3 0.9 0.1 0.3 0.5 0.9-0.1 0.3-1 0.6 0 0.9 0.8 0.5-0.2 0.6 0.7 1.1-2 0.9-0.8 0.3-0.6 0.4 0 1.4-0.8 2.4-2 0.7-0.5 0.3 0.3 0.5 0 1.5-0.6 0.2 0.1 1.6-0.6 1.3 0 1.3 0 0.7-0.2 1.3 0 1.6-0.3 1.8-1 1.5-1 1.6-0.5 1.2 0.1 1.2-0.5 0.7 0-0.7 1-0.2 0.7 0.1 2.7 0.3 0.8-0.4 0.7 0.7 0.7 1.5 0.1 1-0.1 0.4 0.5 1.1-0.3 1.3-1 0.8 0 0.5 0.7 0.2 0.8 0.8-0.2 0.7-0.7 0.5 0.1-0.1-0.6 0.6-0.9 1.2-0.3 0.8 0.3 0.6-0.3 0.4-0.8 0.5-0.2 0.3 0.3 0.7-0.2 0.4 0.6-0.3 2 0.2 1 0.7 1.1-0.2 0.2 0.4 1.6-0.8 0.4-0.3-0.4-1.2 0.8-0.2 0.4 0.4 0.6 0.5 0.2 0.8-0.5 0.3 0 1 0.6 1 0.2-0.5 1 0.8 0.8 0.8 0.5 0.7-0.2 0.5 0.4 0.2 0.5-0.3 0.5-0.9 0.1-0.6 0.3-0.8-0.1-0.8-0.3-0.5 0.3-1.4 0.1-0.9 0.7-1 0-0.1 0.4-0.9-0.3 0.2-0.6-0.6-0.5-1.4 0.6-0.3-0.7-0.4-0.2-0.6 0.2-0.9-0.5-0.4 0.5 0 1.1-0.5 0.6 0 1.1 0.7 1.4-0.8 0.3-1.1-0.5-1.2-1.1-0.4 0-0.6-0.8-1-0.9-1.5-0.3-0.7-0.3-2-0.2-1.2-0.5-1 0-0.6-0.1-0.4 0.3-1.1 0.1-1 1.5-0.8 1.6-0.6 0.2-2-0.2-0.2 0.3-0.9 0.1-0.5 0.8-2.2-0.5-1 0.1-0.6 0.3-0.5-0.1-0.5 0.4-0.7 0.2-0.2 0.4-0.5 0.5-0.1 0.8 0.1 0.3-0.5 1.6-0.9 0.1-0.1 0.6-0.6 0-0.9 0.5 0 0.9-0.6-0.1-0.1 1.2-0.6 0.2 0.3 0.9-0.6 0.1-1-0.9-0.2-0.6 0.7-0.2 0-0.7 0.6-0.8-0.1-0.5 0.7-0.1 0.3-0.6 0.1-0.7 0.4-0.5-0.2-0.7-0.8-0.2-1.1 1.6-1.2-0.3-0.2-0.3-0.6 0.1 0.2 1.1-0.4 0.5-0.2 0.9-0.3 0.4 0 0.4-0.9 0.4-0.7 0.6-0.6-0.4 0.1-1.2-0.4-1.2-0.3-0.4 0.8-1.2 0-0.4-0.5-0.2-0.4 0.9 0.2 0.5-0.6 0.3-0.3 0.6 0 2.1-0.4 0.8-1 0.6-1.2 2.3-0.4 1.6-0.6 1.3 0.2 0.3-1 1.5-0.9 2.2-1.1 2-0.4 0.3-0.5 0.8-0.1 0.8 0.4 0.5-1.2-0.3-0.4-0.7-0.9-0.7 0.1-0.7 0.4-2.1 0.6-1.1-0.2-0.6-0.7-0.4-0.8 1-0.6-0.1-1 0.3-0.6-0.3 0.5-1.1-0.2-0.6 0.7-0.7 0.2-0.9-0.3-1 0.4-1.3-0.6-0.8-0.3-0.5 0.7-0.4-0.6-0.8-0.4-0.1-0.8-0.8-1.3 0.1-0.6-0.8-0.9 0.4z m71.4 35.4l-2.3 0.3-0.2-1.9-2 0.2-0.5-3.7-3.2 0.4-3.9 0.5-4.7 0.5-3.4 0.3-3.8 0.4-0.7-5.9-6.8 0.8-0.2-2-3.3 0.3-4.5 0.4 0.2-0.7-0.2-1.1-0.7-1.5 0-0.5 0.3-0.5 1.2-0.7 0.6 0 0.5-0.4 0.2-0.6-0.2-0.6 0.2-0.6-0.3-1.4 0-0.5 1.4-0.2 0.7-1.5 0.6 0.2 0.4 0.4 1-0.4 0.4-0.8-0.1-0.6 0.5-1.1 0.5-0.3 0.4-0.6 0.3-1.3 0.5-1 0.5 0.1 0.6-0.8 0.3 0.8-0.6 0.6-0.4 0.1-0.2 0.6 0.7 1.3-0.2 1-0.7 1.2 0.3 0.1 0.5-0.3 0 0.9-0.3 0.4-0.2 1 0 1.1 0.4 0.7-0.1 0.6 0.7 0.2 0.2-1.3 0.4-1.1 0.2-0.2-0.2-1 0.2-1.3 0.7-0.5-0.1 1.5 0.1 0.6-0.1 1-0.8 1 0 0.7-0.2 0.6 0.8 0.2 0.3-0.4 0-0.9 0.5-0.3 0.2-0.9 0.3-0.7 0.4-1.2 0.1-1.6-0.2-1 0.1-1.5-0.6-1.8 0-1.1 0.1-0.7 1-1.2 0.5 0 1-1.2 1-0.4 1.5 0.1 0.9-0.3 1.1-0.6-0.2-0.7-1.9-0.1-1-0.9-0.5-1.3-0.1-0.7 0.5-1.4 0.9-0.6 1-1.4-0.4-0.8 0.6-0.4 0.7 0 1.2 0.1 0.4-0.6 0-0.5 0.6 0 0.4 0.4 0.5 0.2 1.8 0.8 1.7 1.1 1-0.1 1.4-0.4 1 0.3 0.9 0.1 1.6 1.5 0.2 0.8 0.5 0.6 0.6 0.1 0.5-0.2 0.9-0.1 1 0.1 0.9 0.7 0.8 0.6 1.1 0.2 0.4-0.3 0.4 0.4 1.2 0.6 1 0.2 0.5-0.3 1.5 0.8 1.2 0.9-0.2 1 0.5 0.5 0.2 0.7 0.9 0.7 0.4 0.9 0.1 1 0.5 0 0.3 0.5-1.3-0.3-0.6-0.7-1 0.6-0.1 0.3-0.2 1.2 0.4 0.3 0.1 0.6 0.4 0.5 1.1 0.7 0.8 0.2-0.1 0.5 0.5 0.6 0.3 1.4 0.1 0.7 0.4 0.4-0.1 1.4-0.2 0.6-0.1 0.8 0.3 1.2-0.1 0.7 0.1 1.6 0.2 0.8-0.1 0.8 0.1 0.7-0.4 0.3-0.7 1-0.2 0.5-0.9-0.1-0.4 0.2-0.5 1.2-0.1 1.6 0.1 1.2-0.2 0.9-0.3 0.3-0.6 0.1-0.6 0.8 0.2 0.7-1-0.2-0.3 0.5-0.9-0.1-0.5 0.2-0.3 0.7-0.4 1.2z m-51.7-54.7l0.9-0.4 0.5 0.5-0.3 1.1 0.7 0.2-0.2 0.5-0.6-0.3-0.8-0.8-0.2-0.8z m-42.3-26.6l0.6-0.3 0-0.7 0.6-0.6 1.2-0.8 1.5-0.9 1.5-0.7 0.9-0.7 0.8-0.3 0.2-0.5 1.3-0.9 0.1-0.3 1.8-1 0.4 0.2 1.5-0.7 0.1 0.4-2.2 1.9 0 0.7-1.4 1.3-0.7 0.4-2 0.9-2.3 1.4 0.5 0.3 0 0.5-1 0.5-1.2 0.7-0.6 0.1-0.6-0.5-0.5 0-0.5-0.4z m58 50.2l0.5 0.1 0.5 0.7-0.2 0.4-0.8-1.2z m2.2-7l0.7-0.1 0.1 0.6-0.4 0.5-0.4-1z m2.5-1.7l0.5-0.5 0.8 0.5 0 0.5-0.6 0.1-0.3-0.5-0.4-0.1z m25.7-7l0.4-1.3 0.8 0.9 0.3-0.4 0.2-0.6 1.4-0.9-0.2-0.4-0.9-0.2 0.2-0.3 1.5-0.2 0.5 0.2 0.9 0.8 0.1 0.6 0.7 0.5 0.5 0.2-0.3 0.6-0.3 1-1.2 0-0.4-0.4-1 0.4-0.9 0-0.3-0.3-0.4 0.5-0.5-0.3-0.9-0.2-0.2-0.2z m-26.7 11.7l0.3-0.9-0.2-0.9 0.5-0.8 0.3-0.9 0.6-0.2 0.4 1.3-0.2 0.4 0.3 0.6 0.1 1-1 1-1-0.2-0.1-0.4z m15.9-6.7l1.3-0.1 1.3 0.4 0.4-0.1 0.9 0.3-0.5 1.1-0.4 0.2-1.3-0.2-0.2-0.4-0.8-0.7-0.7-0.5z m-22.9 21l0.2-0.7 0.8 0-0.1 0.7-0.6 0.3-0.3-0.3z m1.1-3l0.3-0.5 0.9 0.1 0.2 0.2 0 1.2 0.2 0.6-0.3 0.2-1.1-1-0.2-0.8z" id="MI01" name="MI01 District"/>
    <path d="M694.2 153.2l4.5-0.4 3.3-0.3 0.2 2 6.8-0.8 0.7 5.9 3.8-0.4 3.4-0.3 4.7-0.5 3.9-0.5 3.2-0.4 0.5 3.7 0.5 3.9-3.3 0.3 0.3 2.4-2 0.2 0.7 5.9 2-0.2 1 7.7 0 0.2-7.8 0.9 1 8-2 0.2 0.5 4-0.3 0.3-0.7 0.1 0.2 1.7-1 0.1 0.3 2-4.3 0.5-3.6 0.4-0.4-3.9-0.5-4-0.2-2 1.9-0.3-0.2-1.8-0.5-4.1-4.1 0.5-3.8 0.3-0.2-2-3.9 0.5-0.4-0.7-0.7-0.3-0.3-0.4-0.7 0.5-1.2 0.2-0.4-0.3-0.7-1.2-0.5-1.1-1.3-3.3-0.8-1.3-0.4-0.9 0-1.4 0.9-1.7 0.4-1.3-0.2-1.2-0.7-2.6-0.7-1.1-0.3-0.8 0.1-0.4 0.9-0.8 0.4-0.8 0.7-1.6 0.2-1 1-2.3 0.2-1.8-0.2-1.4 0.1-0.8z" id="MI02" name="MI02 District"/>
    <path d="M695.1 182l0.4 0.3 1.2-0.2 0.7-0.5 0.3 0.4 0.7 0.3 0.4 0.7 3.9-0.5 0.2 2 3.8-0.3 4.1-0.5 0.5 4.1 0.2 1.8-1.9 0.3 0.2 2-3.9 0.4-0.4-3.3-0.8-0.4-1.1-0.4-0.2 0.3-5.2 0.6-0.4-1.7-0.5-1.5-1.2-2.3-0.2-0.4-0.8-1.2z" id="MI03" name="MI03 District"/>
    <path d="M709.8 191.9l0.5 4 0.4 3.9 3.6-0.4 4.3-0.5 0.1 0 0.5 4-3.9 0.4 0.2 2-7.8 0.9 0.2 2-7 0.7-4.3 0.4 0 0.4-1.2 0.3-0.3 0.3 0.7-2.1 0.2-0.2 0-0.1 0.3-0.6 0.1 0 0.2-0.4 0.2-0.3 0.4-0.8 0.2-0.5 0.6-1.6 0.3-1.1 0.4-2.1 0.1-1.1 0-1.1 0.1-1.3-0.1-0.9 0.2-1.7-0.4-2.8 0-0.4-0.1-0.4-0.1-0.9-0.1-0.3-0.1-0.5 5.2-0.6 0.2-0.3 1.1 0.4 0.8 0.4 0.4 3.3 3.9-0.4z" id="MI04" name="MI04 District"/>
    <path d="M747.6 211.2l-4.2 0.8-8.1 1.3-4.8 0.8-5.5 0.8-0.2-1.4-2.9 0.3-5.5 0.6-6 0.7-3.5 0.4-4 0.4-5.7 0.6-4.3 0.4-1.9 0.2 2-2 0.9-1.3 0.6-1.2 0.3-1.6 0.3-0.7 0.3-0.3 1.2-0.3 0-0.4 4.3-0.4 7-0.7-0.2-2 7.8-0.9-0.2-2 3.9-0.4-0.5-4 5.5-0.7 6.2-0.7 3.9-0.6 0.5 4 0.2 1.9 0.3 2.2 2-0.4 5-0.8 0 0.3 0.8-0.1 0.3-0.3 3.7-0.6 0-0.2 2.1-0.3 1.5 1 0.2 1.1-0.6 0.6-0.1 0.8-0.6 0-0.3 0.3-0.2 1.2-0.7 0.4-0.3 0.9-0.5 0.6 0.2 1.1-0.2 0.6z" id="MI05" name="MI05 District"/>
    <path d="M750.7 203.6l-1.5-1-2.1 0.3 0 0.2-3.7 0.6-0.3 0.3-0.8 0.1 0-0.3-5 0.8-2 0.4-0.3-2.2-0.2-1.9-0.5-4 3.1-0.4 3.3-0.5 3.2-0.6-0.2-1.3 1-0.2 0.2-0.7 0.6-0.1 0.4 2 0.5 3.4 0.4 2.5 4.5-0.8 0.3-0.4 0.1 0.6 0.4 1.1-0.2 0.9-0.4 0.1-0.8 1.1z" id="MI06" name="MI06 District"/>
    <path d="M718.6 198.9l-0.3-2 1-0.1-0.2-1.7 0.7-0.1 0.3-0.3-0.5-4 2-0.2-1-8 7.8-0.9 0-0.2 3.3-0.4 3.9-0.6 0.5 4.1 0.5 3.1 0.5 0.2 0.1 0.5 3.4-0.5 0.7 4 0.5-0.1 0.3 0.3 0.9 0.3 0.3-0.2 0.4 2 0.2 1.3-3.2 0.6-3.3 0.5-3.1 0.4-3.9 0.6-6.2 0.7-5.5 0.7-0.1 0z" id="MI07" name="MI07 District"/>
    <path d="M729.2 161.2l2-0.2 0.2 1.9 2.3-0.3-0.1 1.2 0.1 1 0 0.9-0.4 0.4 0.4 1 0.6 0.8 1 0.6 1.4 0.3 1.2 0.4 0.1 0.3 0.7 5.1 0.3 2.3 1.2-0.2 0.4 1 2.4-0.4 0.6 4 0.6 3.9-3.9 0.6 0.3 2-3.4 0.5-0.1-0.5-0.5-0.2-0.5-3.1-0.5-4.1-3.9 0.6-3.3 0.4-1-7.7-2 0.2-0.7-5.9 2-0.2-0.3-2.4 3.3-0.3-0.5-3.9z" id="MI08" name="MI08 District"/>
    <path d="M743.3 192.1l-0.3 0.2-0.9-0.3-0.3-0.3-0.5 0.1-0.7-4-0.3-2 3.9-0.6-0.6-3.9-0.6-4-2.4 0.4-0.4-1-1.2 0.2-0.3-2.3-0.7-5.1 0.5-0.1 0.6-0.8 1.4-2.4 0.5 0.4 0.7-1.4 0.1-0.7 0.5-0.9 0.1-0.8 0.4-0.2 0.5-0.6-0.2-0.4 0.7-1 0.2-0.8 1.8-0.5 0.5-0.5 0.6 0 0.5-0.5 0.2-0.6 0.6-0.2 0.3-0.4 0.6-0.2 1 0.4 1 0.2 1.4 0.9 1.1 1.6 0.2 0.6 0.4 0.3 1 1.9 0.7 3.9 0.5 1.4 1.1 2.4 1 4.6 0.3 0.7 0.7 2 1.2 1.8 0.4 0.9-0.6 1.3-0.1 0.9 0.1 0.6 0 1.2 0.4 1-0.4 2.3 0.1 0.7-0.2 0.7-1.1 1.5-1-0.3 0-0.5-0.6-0.3 0-0.4 0.7-1.3-1.2-0.2-0.4 0.2-0.4 0.7-0.8 0.3-0.1 0.4-1.6 0.3-0.5-0.6-0.6 0.1-0.2-1.3-3.9 0.6-5.6 1-0.2 0.2 0.4 2.5z" id="MI09" name="MI09 District"/>
    <path d="M748.7 188.4l3.9-0.6 0.2 1.3 0.6-0.1 0.5 0.6 1.6-0.3 0.6 0.6 0.1 0.7-0.8 0.2-0.5 1.1 0 1.1 0.3 0.5-3.5 0.6-0.7-4-2 0.4-0.3-2.1z" id="MI10" name="MI10 District"/>
    <path d="M745.9 195.1l-0.4-2-0.6 0.1-0.2 0.7-1 0.2-0.4-2-0.4-2.5 0.2-0.2 5.6-1 0.3 2.1 2-0.4 0.7 4-1.2 0.2-0.8 0.1-0.3-1.9-1.9 0.3 0.3 2-1.9 0.3z" id="MI11" name="MI11 District"/>
    <path d="M746.4 198.5l-0.5-3.4 1.9-0.3-0.3-2 1.9-0.3 0.3 1.9 0.8-0.1 0.1 2 0.5 1.1-0.4 0.5-0.5-0.2-0.5 0.5-0.9 0.2-0.3 0.3-0.7 0.1-0.1-0.5-1.3 0.2z" id="MI12" name="MI12 District"/>
    <path d="M751.6 199.8l-0.3 0.4-4.5 0.8-0.4-2.5 1.3-0.2 0.1 0.5 0.7-0.1 0.3-0.3 0.9-0.2 0.5-0.5 0.5 0.2 0.4-0.5-0.5-1.1-0.1-2 1.2-0.2 3.5-0.6-0.1 1.3-0.4 0.5-0.1 0.6-1 0.6-1.2 0.5-0.5 0.8-0.3 1.2 0 0.8z" id="MI13" name="MI13 District"/>
  </g>
</svg>