<?xml version="1.0" encoding="utf-8"?>
<svg baseProfile="tiny" fill="#ececec" height="597" stroke="black" stroke-linecap="round" stroke-linejoin="round" stroke-width=".1" version="1.2" viewBox="0 0 1000 597" width="1000" xmlns="http://www.w3.org/2000/svg">
  <g id="congress_albersusa">
    <g transform="matrix(1.966073, 0, 0, 1.809271, -1241.743811, -12.694519)" style="">
      <path d="M817.5 296.3l-0.5 0.8-1.2 0.9 0.4 0.4 0.4 0.8-2 1.7-0.8 0.8-0.4-0.2-0.1-0.6-0.4-0.5-0.7 0.3-1.5 1.5-0.9 0.8-1.1 0.7-0.3-0.5-1.1-0.5-0.4 0.4-0.2 0.6 0.7 0.8-0.8 0.8-0.8 0.7-0.7-0.1-2 0.8-1.1 0.6-0.9 0.8-1.9-1.2-0.9-0.8-0.5 0.6-0.2 1.1-0.4 0-2 1.9-2.1 0.4-0.1-0.2-1.1-0.5-0.2-0.5-0.8-0.4-0.7 0.2-0.5-0.1-0.5-0.8-0.4-0.1-0.7-0.6-0.2-0.4 0.1-0.8-0.5-0.5-0.8-0.4-0.2-0.3 0.9-1-0.6-0.5-1.5 0.3-0.5-0.4-0.7 0-0.4-0.7-0.4 0.1-0.6-0.8-0.6 0.2-0.3-0.6-0.5 0-1.1-1.1-0.4-1-0.4-0.7-0.7-0.2-0.8-0.9-0.3-0.9-1-0.5-0.6-0.4 0.4-0.6 0.1-0.4-0.4-0.5-0.6 0-0.7-1.5-0.7-0.4-0.1-0.4-1-0.5-0.2-0.7 0.5-0.2 0.1-1 0.3-1.2-0.3-0.7 0-0.7-0.4-0.4-0.2-1.7 0.5 0.3 0.6-0.1 2.2-1.1 0.3 0.1 1.1-0.5 0.2-1.2-0.1-1.8 0.3-0.5 0.9 0 0.7-0.3 0.1-0.6-0.6-1.2 0.1-0.7-0.5-1.1-0.4-0.6 0.4-0.7 0.7-0.7-0.1-1.3 0.2-0.3 0.4-1.6 0.6-0.5 0.2-0.7 0.5-0.3 0.6 0.8 0.8 0 0.8 1.1-0.4 0.9 0.7 0.5 0.7-0.7 0-0.7 0.4-0.5 0.6 0.4 0.5-0.2-0.6-0.7 0.2-1.2-1-0.9 1-1 3.1 1.2 0.4-0.6 2-2.3 0.5-0.2 1.2-0.8 0 0.6 0.8 0.3 0.4 0.4 0.5 1.5 0.7-0.3 1.3-0.3 1.1 0.7 1.3-0.2 0.5-0.7 0.8-0.3 0.8-0.8 0.9-0.8-0.1-0.2 1.5 0.1 0.5 1.9 2.5 2.3 0.4 0.8 0.4-0.3 0.7 0 0.9 0.6-0.1 0.7 0.4 0 0.4 1.1 0.5 0.3 1.3-0.2 0.5 0.6 0.5 0.3 0.4-0.3 2.3 3.6-0.5 3.3 1.9-2.4 1.6 0.1 2.6-2.6-0.1-0.7 0.6-2.9 0.3-0.9 0.3 0.1 1.3 1.3 0.6-0.6 1.1 0.4 0-0.6 0.5-0.7 0.6-1.6-0.7-1.3 0.3-0.6-0.1-0.7 0.6 0.1 0.5-0.4-0.2-0.7 0.7 0 0.8-0.1 0.2-0.8 5.9 3.5-0.2 0.4-0.2 1.1 0.2 0.9-0.7 0.3-0.2 1.4-0.6 1.7 0.1 0.8-0.6 0.9-0.3 0.8-0.6 0.4-3-0.5-1.1-1.6-0.3-0.3-2.2-0.6-0.1 0.5-0.1 1.4-0.2 0.9 0.4 0.9-0.3 0.4-0.4 1.6-0.4 0.3-0.6 1 0.6 0.7-1 1-0.7 1.1-0.3 1.3 0.2 0.7-0.4 0.7-0.3 1.3-0.3 0.9-0.9 1.2-1 1.6-0.4 0.3-0.6 1.5-0.5 1.2-0.2 0.7 0.2 0.4-0.6 0.7 0.7 1 0.9 0.3z" id="WV01" name="WV01 District"/>
      <path d="M833.5 267l-5.9-3.5-0.2 0.8-0.8 0.1-0.7 0 0.2 0.7-0.5 0.4-0.6-0.1 0.1 0.7-0.3 0.6 0.7 1.3-0.6 1.6-0.5 0.7 0 0.6-1.1-0.4-0.6 0.6-1.3-1.3-0.3-0.1-0.3 0.9-0.6 2.9 0.1 0.7-2.6 2.6-1.6-0.1-1.9 2.4 0.5-3.3-2.3-3.6-0.4 0.3-0.5-0.3-0.5-0.6-1.3 0.2-0.5-0.3-0.4-1.1-0.4 0 0.1-0.7-0.9-0.6-0.7 0-0.4 0.3-0.4-0.8-2.5-2.3-0.5-1.9-1.5-0.1 0.1 0.2-0.9 0.8-0.8 0.8-0.8 0.3-0.5 0.7-1.3 0.2-1.1-0.7-1.3 0.3-0.7 0.3-0.5-1.5-0.4-0.4-0.8-0.3 0-0.6-1.2 0.8-0.5 0.2-2 2.3-0.4 0.6-3.1-1.2-0.2-1.2-0.3-0.6 0.5-0.9 0.5-0.4-0.2-0.6 0.3-0.5 1.9-0.3-0.1-1.5 0.9-1 0.7-0.8 0.4 0 0.5 0.3 0.5 1 0.7-0.2 1.2-1.1 0.9-0.3 0.4-1 0.8-0.4 0.5-1.3 1-1.5 1.4-1.6 0.9-0.3 0.1-0.8-0.1-0.8 0.5-0.7-0.9-1 0.6-0.9-0.1-1 0.5-0.6-0.5-0.9 0.2-0.4 0.7 0.1-0.2-0.7 0.3-0.7-0.2-0.8 0.1-0.9-0.3-0.6 0.4-0.7-0.1-1.2 0.5-1.2 0-0.7 0.5-0.8 0.2-1.3-0.3-0.7 0-0.5-0.5-0.5 0.3-0.2-0.1-0.6 0.1-1-0.5-0.7-0.3-0.7-0.7-0.7-0.1-0.5 0.5-0.7 0.8-0.1 1-0.7 0.6 3.7 1.1 6.9 1.7 10.3 10-1.7 7.6-1.3 4.7-0.9 3-0.5 4.1-0.8 3.2-0.5 4.8-0.9 4.2-0.8 3.8-0.8-3.8 0.8-4.2 0.8-4.8 0.9-7.3 1.3-3 0.5-4.4 0.8 0.8 4.3-0.1 0 0.7 4.3 0.3 1.8 0.2 1.3 0.8-0.3 0.2-0.6 1.1-1.4 1.4-1.3-0.1-0.4 0.7-0.4 1.6-2.3 0.1-0.5 0.6-0.1 1.8 0.4 0.2-1.1 0.3-0.1 1.1-2 0.1-0.6 0.4-0.6 1.4 0.9 1.3 0.4 0.6-0.2 1 0.3 0.7-0.3 1 0 0.8-0.9-0.7-0.4 0-0.4 0.7 0.1 0.1-0.3-0.6-0.7 1 0.2 0.1-0.7 1.7 0.2 0.1-0.6 1.2-1.5 1.2 0.1 1.3 0.8 0.7 0.7 0.8-0.3 1.2 0 0-0.4 0.9 0 0.2 0.9-0.7 0.2 0.5 1.1 0.7 0.4 0.5-0.1 0.1 0.8 0.3 0.6 0.6 0 0.5 0.7-0.3 0.3 0.3 0.6-0.1 0.4 0.7 0.2-0.4 0.7-0.2 1.4-0.3 0.9-0.2 1.6-6.6-3.7-2.1-1.2-1.7-0.9 0.2 0.8-0.2 0.5 0.4 0.4-0.3 0.8 0.5 0-0.2 0.9-0.7 1.5 0.4 0.3-0.5 1.1 0.7 0.6-0.3 0.4-0.4 1-0.3 0.2-1.3 2 0.4 0.3-0.7 1.3-0.5-0.2-0.7 1.4-0.6 0.6-0.4-0.5-0.2 0.7-0.5 0.4-0.9 3.1-2.5-1.6-0.3 0.8-0.1 0.6-0.4 0.2 0.1 0.6z" id="WV02" name="WV02 District"/>
      <path d="M942.6 124.1l1.5 4.8 0.5 0.4 0.2 0.7-0.1 0.9 0.4 0.8-0.2 0.9 0.6 1.2 1 0.3 0.6 0.8 1.7 1 0 0.9 0.1 0.9 0.3 0.4 1.7 0.8 0.6 0.2-0.8 3.8 0.1 0.8-0.4 0.4-0.7-0.3-0.8 0.1-0.5 0.5-0.9 0.5-0.2 0.3-0.1 0.4 0 0.7-0.9-0.1-0.5-0.8-3.4 1.4 0.2 0.4-0.1 0.5-0.6-0.4-0.6 0.1-0.7-1.4-0.5 0.7 0.2 0.6 0.4 0.8 0 0.3-1.1 0-0.2 0.3-1-2.2-0.3-1.1-0.5 0.2-1.1-2.4 2-0.9 0.4-1.3 4.3-0.1 0.2-0.8 0.3-0.7-0.3-0.1 0.5-1.5-2.4-1.2 0.1-0.2-6-2.4-0.9 0.6-0.7-1.1-0.6 0-0.8-0.7 2.7-4.6 0.7-0.1-1.9-1.1 3.1-1.3-1.2-2.6 2.2-1 0.5-1 0.5-0.1-0.7-1.3-0.3 0.1-2.3 0.5-1 0.4 0-1.1-0.4-0.6 0-0.5-0.4-0.8-0.5-0.1-0.4-0.9 0.4-0.2 0.4 0.7 0.5 0.2 0.5 0.9 0.2 0.7 0.5-0.2-0.1-1 1.5-0.5 1 0.1 0.8-0.2-0.7-2.5 0.9-0.2-0.3-1.1 0.5-0.1 2.3 7.3 1 3.5z" id="NH01" name="NH01 District"/>
      <path d="M939.3 113.3l-0.5 0.1 0.3 1.1-0.9 0.2 0.7 2.5-0.8 0.2-1-0.1-1.5 0.5 0.1 1-0.5 0.2-0.2-0.7-0.5-0.9-0.5-0.2-0.4-0.7-0.4 0.2 0.4 0.9 0.5 0.1 0.4 0.8 0 0.5 0.4 0.6 0 1.1 1-0.4 2.3-0.5 0.3-0.1 0.7 1.3-0.5 0.1-0.5 1-2.2 1 1.2 2.6-3.1 1.3 1.9 1.1-0.7 0.1-2.7 4.6 0.8 0.7 0.6 0 0.7 1.1 0.9-0.6 6 2.4-0.1 0.2 2.4 1.2-0.5 1.5 0.3 0.1-0.3 0.7-0.2 0.8-4.3 0.1-0.4 1.3-2 0.9 1.1 2.4 0.5-0.2 0.3 1.1 1 2.2 0.2-0.3 1.1 0 0-0.3-0.4-0.8-0.2-0.6 0.5-0.7 0.7 1.4 0.6-0.1 0.6 0.4 0.1-0.5-0.2-0.4 3.4-1.4 0.5 0.8-0.3 0-0.4 0.4-0.2 0.5 0.3 0.9-1 0.4-0.5 1.3-6.6 1.5-4.6 1-2.2 0.5-3.8 0.8-1.9 0.4-0.3-0.4-0.6-0.4-0.2 0.1-0.4-0.6-0.2-0.1-0.3-0.6-0.2-0.3-0.2-0.8 0.2-0.2 0.1-0.1 0-0.1 0-0.2-0.1 0 0-0.1 0.1-0.1 0-0.1-0.3-0.8 0.6-0.5 0.4-0.4-0.2-0.2 0.3-0.3-0.4-0.4 0-0.2-0.1-0.2-0.1-0.2 0-0.1 0-0.1 0.1 0 0-0.1 0.1-0.2 0.1-0.2 0-0.1-0.1-0.2-0.1-0.1-0.1-0.6-0.1-0.3-0.2 0-0.2-1.2 0.1-0.2-0.1-0.3-0.2-1 0.1-0.1 0.2-0.6 0-0.6 0-0.2-0.3-0.3 0.1-0.3 0-0.1 0.1-0.2-0.5-0.4 0-1.2 0-0.2-0.2-0.6 0.1-0.5-0.1-0.2 0-0.1-0.3-0.2 0.1-0.7-0.1-0.9 0.6-0.7-0.2-0.8 0.2-0.1 0-0.2 0-0.5-0.1-0.6 0.3-1 0.3-0.2 0.3-0.5 0.4-1.3-0.4-1 0.3-0.9 0.4-0.7-0.1-0.6 0.2-0.4-0.4-0.8 0.2-0.7 0.4-1.4 0.2 0-0.3-0.4-0.2-0.6 0.1-0.1 0-0.2-0.2-0.4-0.1-0.2-0.4-0.5 0-0.7 0-0.5-0.1 0 0-0.1-0.1-0.1-0.4-0.4 0.5-1.3 0.2-0.1 0.3-0.4 0.7-0.2 0.5-0.4 0.6 0.1 0.8-0.7-0.2-0.5 0.2-0.5 1.2-0.5 0.7-1 0-0.4 0.7-0.8 0-0.7 0.2-0.6-0.6-0.2 0.7-0.5 0.1-0.5-0.4-0.4-0.3-0.8-0.8-0.6 0-0.4-0.7-0.6-0.2-0.5 0.6-0.9-0.1-0.7 0.2-0.6 0-0.6 0.5-1.2-0.5-0.4-0.3-0.7 0-0.1-0.4-0.3 0.5-0.6 0.6-0.3-0.6 0.1 0-0.7-0.2-0.5 0.7-1.5-0.2-1 0.2-0.9-0.6-0.5 0.7-0.5 0.9-1.5 1.4 0.8 1.5-0.3 0.2-1.4 0.2-0.2 0.4 1.2 1.9 5.7 2.1 6.3 1 3.3 1.8 5.8z" id="NH02" name="NH02 District"/>
      <path d="M893.9 229.2l0.2 0 0.3-0.2 0.1-0.1 0.3-0.3 0.1-0.2 0.2-0.1 0.5-0.2 0.2-0.2 0-0.5 0-0.1-0.2-0.2-0.1-0.5 0-0.2 0.2-0.2 0.7-0.5 0.1-0.2 0.1-0.5 0.1-0.1 0.1-0.1 0.1-0.1 0.2 0.1 0.3 0.1-0.2 0.3 1 0.7 0.4 0.7 0.7 0.6 0.9 2.1 0.6 0.1 0.9-0.4 1 0.7 0.7 0.3-2.2 4.1-2.9-1.7-1 0.1-0.7-0.6-1.4-0.7-1-1.2-0.3-0.8z" id="NJ01" name="NJ01 District"/>
      <path d="M905.7 206.2l0.7-0.1 0.2-0.9-0.6-0.2-0.6 0.3 0.2-1.4-0.4-0.4 0.6-0.5 0.5 0.3 0 0.7 1 0.6 0.5 0.3 0.1 0.6 0.4-0.2 0.7 0.1 0.3-0.6 0.5 0.4-0.5 0.8-0.4-0.2-0.3 0.6-0.5-0.2-0.6 0.3-0.8 0.5 0.8 0.5-0.9 0.6-1-0.3-0.1-0.7 0.2-0.9z" id="NJ10" name="NJ10 District"/>
      <path d="M907.3 204.6l-1-0.6 0-0.7-0.5-0.3-0.6 0.5 0.4 0.4-0.2 1.4 0.6-0.3 0.6 0.2-0.2 0.9-0.7 0.1-0.5 0.1-0.6-0.3-1 1-0.4-0.3-1 0.7-0.9-1-0.1-1.2-0.6-0.2-0.8 0.4-0.5-0.6 0.2-0.7 0.4 0 0.4-0.8-0.5-0.2-1.1-1.2 1.3-2.5 0.4-0.7 0.3 0.1-0.1 0.9 0.9-0.5 0.5 0.5 0.7 0.2 0.5-0.2 0.5 0.2 0.5-0.2 0.2 0.4 0.7 0.4 1 0.1 0.1 0.7 0.6 0.2-0.1 1.1 1.3 0.6-0.1 1-0.5-0.1-0.1 0.5z" id="NJ11" name="NJ11 District"/>
      <path d="M896.8 217.1l1.4-0.5-0.4-0.6 1.1-0.5-0.2-0.6 1-0.4 0.4-0.6 0.1-0.6 0.4-0.2-0.8-1.4 1.4-0.7 0.4-0.4 1.6-0.8 0.4-0.5 0.2-0.6 0.4-0.5 0.5 0.2 0 0.7-1 0.4-0.9 1.1 0.9 0.9 0.5 0.7 1-0.3 1 0.7 0.6-0.4 1.1 0.6 0.1 0.4-1.5 2.5-0.1 0.6-1 0.9-0.5-0.4-0.9-0.3-0.4 0.2-0.5 1.2-0.9 0.3-1.6-2.4-0.4 0.7-0.1 1.2 0.4 0.7 0.4 0.1 0.1 0.9-0.2 0.5-0.5-0.7-1.4-0.5-0.6-0.9-1.5-0.7z" id="NJ12" name="NJ12 District"/>
      <path d="M893.9 229.2l0.3 0.8 1 1.2 1.4 0.7 0.7 0.6 1-0.1 2.9 1.7 2.2-4.1 1.2 0.6 0.4 0.5 0.2 0.8 0.9 0 0.7 0.4 0.4 0 0.4 0.4 0.3-0.1 0.9 0.4 0.6-0.3 0.5-0.5 0.1-0.5-0.9-4-0.8-1 1.5-0.5 1.5 0.4 0.8-0.5 0.5-0.1 1.2 0-0.1-1.8-1.5 0.4-0.1-0.7 0.2-0.5 0.9-0.7 0.1 0.6 0.3 0 0.5 3.6-0.4 1.7-1 3.4-0.6 1.2-0.5 0.2 0.3 0.5-0.1 1-1.1 2.3-1.1 0.8-0.6 0.8-0.3 0.7-0.7 0.9-0.7 1.7-0.4 1.6 0.2 0.3-0.4 0.7-0.3 1.1-0.5 0.2 0.3 0.6-0.8 1.3-1.3 0.9-0.7-0.2 0-1.4 0.4-2.1 0.1-0.6-0.2-1.1-0.3-0.3-1.1-0.1-1.1 0.2-0.1-0.5-1.6 0.4-0.3 0.7-0.5-0.3-0.2-0.7-0.8-0.5-0.6-0.1-0.3-0.6-1.2 0-0.5-0.7-0.8 0-0.5-0.5-0.5-0.1-0.9-1-1.3-0.2-0.2-0.8 0.1-1.7-0.2-0.3-0.1 0-0.4-0.2-0.2-0.1-0.2-0.4 0-0.1 0-0.2 0.4-0.6 0-0.1 0.1-0.1 0.1-0.4 0-0.5 0.1-0.1 0-0.1 0.2-0.2 0-0.2 0.1-1.1 0.8-1.2 1-1.1 1-0.2 0.2-0.2z" id="NJ02" name="NJ02 District"/>
      <path d="M903.4 230l-0.7-0.3-1-0.7-0.9 0.4-0.6-0.1-0.9-2.1-0.7-0.6-0.4-0.7-1-0.7 0.2-0.3-0.3-0.1-0.2-0.1-0.1 0.1-0.1 0.1-0.1 0.1-0.1 0.5-0.1 0.2-0.7 0.5-0.2 0.2 0 0.2 0.1 0.5-0.1-0.4 0-0.1 0-0.2 0.2-0.2 0.3-0.3 0.4-0.2 0.1-0.2 0.1-0.5 0.1-0.1 0.1-0.1 0.1-0.1 0.1 0 0.2-0.2 0.5-0.7 0.6-0.6 1.2-0.7 0.4-1 0.6-0.1 0.7-0.5 0.3-0.6-0.7-0.4 0.2-0.5-0.1-0.9-0.4-0.1-0.4-0.7 0.1-1.2 0.4-0.7 1.6 2.4 0.9-0.3 0.5-1.2 0.4-0.2 0.9 0.3 0.5 0.4 1-0.9 0.1-0.6 1.5-2.5 1 0.1-0.2-0.5 1.2-0.8 0 1.3 0.3 1.1-1.1-0.3-0.3 0.2 0.4 1.8-0.5 1.3-1.2 0.1-2.5 3.6-0.4 0.3 3.6 5.3 0.8 1 0.9 4-0.1 0.5-0.5 0.5-0.6 0.3-0.9-0.4-0.3 0.1-0.4-0.4-0.4 0-0.7-0.4-0.9 0-0.2-0.8-0.4-0.5-1.2-0.6z" id="NJ03" name="NJ03 District"/>
      <path d="M913.6 223.3l-0.3 0-0.1-0.6-0.9 0.7-0.2 0.5 0.1 0.7 1.5-0.4 0.1 1.8-1.2 0-0.5 0.1-0.8 0.5-1.5-0.4-1.5 0.5-3.6-5.3 0.4-0.3 2.5-3.6 1.2-0.1 0.5-1.3-0.4-1.8 0.3-0.2 1.1 0.3-0.3-1.1 0-1.3 0.2-0.3 0.6 0.3 0.8 0 0.7 0.5-0.8 0.4-0.2 0.5 0.7 0.4 0.6 1.2 0.4-0.1 0.1 0.8-0.3 0.4-0.9 0-0.1 0.7 1 0.3 0.5-0.4 0 1.7 0.2 3.4 0.1 1.5z" id="NJ04" name="NJ04 District"/>
      <path d="M904.2 199.7l-0.5 0.2-0.5-0.2-0.5 0.2-0.7-0.2-0.5-0.5-0.9 0.5 0.1-0.9-0.3-0.1-0.4 0.7-1.4-0.6-0.7-0.3-0.3 0.6-0.1 1 0.2 1-0.7 1.1-1-0.6 0.2-1-0.6-0.4-0.3 0.2-0.6-0.8-1.1-2.1 0-0.6 0.2-1.3 0.8-1.3 0.3-0.5 0.9-0.5 4.5 1.6 2.4 0.9 1.9 0.6 1.2 0.3 5 1.6 0.2 0 0 1.9-0.1 0.8-0.1 0.9-0.3 0.5-1-0.2-0.4-0.5-0.3-0.7-0.6-0.2-0.9 0.1-0.3-0.9-0.9-0.1-0.1-0.9 0.2-0.3-1.5-0.5-0.1 1-0.4 0.5z" id="NJ05" name="NJ05 District"/>
      <path d="M908 213.2l-0.1-0.4-1.1-0.6-0.6 0.4-1-0.7-1 0.3-0.5-0.7-0.9-0.9 0.9-1.1 1-0.4 1.5-0.5 0.3 0.3 1.2-0.5 0.2 0.1 0 0.7-0.6 0.6 0.2 0.5-0.2 0.9 0.3 0.5 1.3 0.2 0.1-0.4 0.8-0.1 1.7 0.5 1.3 0 0.3 1.1 0.2 1.2 0 2.5-0.5 0.4-1-0.3 0.1-0.7 0.9 0 0.3-0.4-0.1-0.8-0.4 0.1-0.6-1.2-0.7-0.4 0.2-0.5 0.8-0.4-0.7-0.5-0.8 0-0.6-0.3-0.2 0.3-1.2 0.8 0.2 0.5-1-0.1z" id="NJ06" name="NJ06 District"/>
      <path d="M905.7 206.2l-0.2 0.9 0.1 0.7 1 0.3 0.9-0.6 0.3 0.1 0.1 0.9-0.2-0.1-1.2 0.5-0.3-0.3-1.5 0.5 0-0.7-0.5-0.2-0.4 0.5-0.2 0.6-0.4 0.5-1.6 0.8-0.4 0.4-1.4 0.7 0.8 1.4-0.4 0.2-0.1 0.6-0.4 0.6-1 0.4 0.2 0.6-1.1 0.5 0.4 0.6-1.4 0.5-0.7-1.2-0.6-0.2-0.5 0.3-0.6-0.3-0.3-0.7 0-0.6-0.4-1.4-0.7-0.4-0.6-0.1-0.6 0.4-0.5-0.2-0.1-0.7-0.3-0.9 0.2-0.7-0.5-0.2 0.2-1-0.3-0.4 0.2-0.7 0.6 0 0.4-0.5 0.5-1.5 0-0.6-1.4-1.5-0.2-0.4-0.2-0.4 1.5-1.5 0.4-1.8 0.8-0.8 0.5-1.1 0-0.5 1.1 2.1 0.6 0.8 0.3-0.2 0.6 0.4-0.2 1 1 0.6 0.7-1.1-0.2-1 0.1-1 0.3-0.6 0.7 0.3 1.4 0.6-1.3 2.5 1.1 1.2 0.5 0.2-0.4 0.8-0.4 0-0.2 0.7 0.5 0.6 0.8-0.4 0.6 0.2 0.1 1.2 0.9 1 1-0.7 0.4 0.3 1-1 0.6 0.3 0.5-0.1z" id="NJ07" name="NJ07 District"/>
      <path d="M907.5 207.5l-0.8-0.5 0.8-0.5 0.6-0.3 0.5 0.2 0.3-0.6 0.4 0.2 0.5-0.8-0.5-0.4-0.3 0.6-0.7-0.1-0.4 0.2-0.1-0.6-0.5-0.3 0.1-0.5 0.5 0.1 0.2 0.6 0.5-0.7 0.6 0.4 0.5-1.1 0.1-0.6 0.7 0.3-0.2 1.3 0 0.8-0.6 0.5-0.1 1-1.2 0.5 0 0.1-0.4 0-0.2 0.3-0.3-0.1z" id="NJ08" name="NJ08 District"/>
      <path d="M907.9 204.2l0.1-1-1.3-0.6 0.1-1.1-0.6-0.2-0.1-0.7-1-0.1-0.7-0.4-0.2-0.4 0.4-0.5 0.1-1 1.5 0.5-0.2 0.3 0.1 0.9 0.9 0.1 0.3 0.9 0.9-0.1 0.6 0.2 0.3 0.7 0.4 0.5 1 0.2 0.3-0.5-0.1 0.7-0.2 0.5-0.7-0.3-0.1 0.6-0.5 1.1-0.6-0.4-0.5 0.7-0.2-0.6z" id="NJ09" name="NJ09 District"/>
      <path d="M930.5 199.4l-0.1-0.4-0.5-0.5-0.4-0.7-0.6-0.4-0.6 0.6-1.1 0.5-1.1 0.3 0 0.2-1.2 0.4 0-0.5-1.9 0.6 0.1 0.3-1.1 0.4 0.1 0.5-2.2 1.3-0.6-1.5 0.4-0.6 0.6-0.4-0.3-0.3-0.1-0.9-0.3-0.4 0-0.7 0.8 0.5 1-0.2 1.2 0.2 1.2-0.9-0.1-0.6 0.3-0.6 1.3 0 0.8-0.2 1.8-0.4 0.9-0.4 1-0.1 1.1-0.6 1.1-0.4 0.8-0.5 0.9-1.3 0.6-0.4 0.3-0.9 0.8-0.4 0.4-1.2 0.6-0.1 0.6-0.6 0.6-0.2-0.1 0.6-0.3 0.4-0.6-0.3-0.4 0.7 0.5 0.5 0.7 0.3 0.5 0.5 1.2-0.1 0.4-0.6 0.6 0.6 0.9 0.5 0.4-0.8 0.6-0.1 0.4-0.8 0.5-0.1-0.1-0.5 0.8-0.6 0.9 0.1-0.3 0.6-1.2 0.9-2.2 1.8-4.1 3.6-1.1 0.8-2.9 2.1-2.2 1.4z" id="NY01" name="NY01 District"/>
      <path d="M919.9 202l2.2-1.3-0.1-0.5 1.1-0.4-0.1-0.3 1.9-0.6 0 0.5 1.2-0.4 0-0.2 1.1-0.3 1.1-0.5 0.6-0.6 0.6 0.4 0.4 0.7 0.5 0.5 0.1 0.4-1.8 1.3-1.3 1.1-1.1 0.8-1.9 1.1-1.6 0.7-0.4-0.2-2.4 1.4-0.6-2.4 0.3-0.4 0.6 0.1-0.4-0.9z" id="NY02" name="NY02 District"/>
      <path d="M919.9 198.3l0.1 0.9 0.3 0.3-0.6 0.4-0.4 0.6 0.6 1.5 0.4 0.9-0.6-0.1-0.3 0.4-0.7 0.1-0.1-0.4-0.9-0.4-2.5 1.3-0.5 0 0.3-0.5-0.5-0.3-0.7 0.2-0.5-0.3 0.1-0.6 0.4-0.1 0.9-1.8 1.1 0.1-0.2-0.5 0.2-0.5 1.1-0.7 0.3 0.1 0.3 0.7 0.6-0.1-0.1-1.2 0.1-0.5 0.9 0.1 0.5 0.6 0.4-0.2z" id="NY03" name="NY03 District"/>
      <path d="M919.4 203.2l0.6 2.4-1 0.5-1.1 0.2-0.5 0.3-1.9 0.3 0.2-0.4-0.6-0.4 0.5-0.8-0.4-1.5 2.5-1.3 0.9 0.4 0.1 0.4 0.7-0.1z" id="NY04" name="NY04 District"/>
      <path d="M914.7 203.8l0.5 0 0.4 1.5-0.5 0.8 0.6 0.4-0.2 0.4-0.4 0-2.2 1.4-0.3-0.2 0.9-0.4 0.4-0.4 0.1-1-0.7-0.5 0-0.3-0.1-0.9 1.2-0.8 0.3 0z" id="NY05" name="NY05 District"/>
      <path d="M913.3 202.9l0.5 0.3 0.7-0.2 0.5 0.3-0.3 0.5-0.3 0-1.2 0.8-0.9 0.1-0.2-1 0.9 0 0.3-0.8z" id="NY06" name="NY06 District"/>
      <path d="M913.2 204.6l0.1 0.9-0.7 0-0.8-0.3-0.6 0.4 0.1-0.9-0.1-0.4 0.2-0.7 0.7 0.1 0.2 1 0.9-0.1z" id="NY07" name="NY07 District"/>
      <path d="M913.3 205.5l0 0.3 0.7 0.5-0.1 1-0.4 0.4-0.9 0.4-1 0.1-0.2-0.2 0.3-0.4 0.5-0.3 0.2-1-0.2-0.7-0.7 0.1-0.3-0.1 0.6-0.4 0.8 0.3 0.7 0z" id="NY08" name="NY08 District"/>
      <path d="M911.5 205.7l0.7-0.1 0.2 0.7-0.2 1-0.5 0.3-0.5-0.6 0.5-0.8-0.2-0.5z" id="NY09" name="NY09 District"/>
      <path d="M910.3 205.2l0-0.8 1 0.3-0.1 0.9 0.3 0.1 0.2 0.5-0.5 0.8-0.7-0.2 0.1-0.9 0.2-0.5-0.5-0.2z" id="NY10" name="NY10 District"/>
      <path d="M911.7 207.6l-0.3 0.4-0.6-0.4-0.3-0.8 0.7 0.2 0.5 0.6z m-4.2 3.1l0.2-0.4-0.2-0.5 0.5-0.5 0-1-0.2-0.6 0.3-0.4 0.4 0 1.1-0.4 0.3 0.1 0.5 0.7-0.7 1.5-1.6 1.5-0.6 0z" id="NY11" name="NY11 District"/>
      <path d="M910.3 204.4l0.2-1.3 0.2-0.5 0.1 0.4 0.7 0.4-0.1 0.2-0.2 0.7 0.1 0.4-1-0.3z" id="NY12" name="NY12 District"/>
      <path d="M910.8 201.9l0.1-0.9 1 0.1-0.7 1 0.2 0.6 0.1 0.7-0.7-0.4-0.1-0.4 0.1-0.7z" id="NY13" name="NY13 District"/>
      <path d="M913.8 202.2l-0.4 0.1-0.1 0.6-0.3 0.8-0.9 0-0.7-0.1 0.1-0.2-0.1-0.7 0.5-0.5 0.1-0.4 0.8-0.8-0.1-0.6 0.8 0.1-0.4 0.8 0.2 0.5 0.5 0.4z" id="NY14" name="NY14 District"/>
      <path d="M910.9 201l0.1-0.8 1.1 0.1 0.7 0.7-0.8 0.8-0.1 0.4-0.5 0.5-0.2-0.6 0.7-1-1-0.1z" id="NY15" name="NY15 District"/>
      <path d="M911 200.2l0-1.9-0.4-1.6 0.6 0 0-0.6 1.3 0.1 0.4-0.3 0.8 0 1.2 1.1 0 0.6 0.1 0.4-0.2 0.5-0.6 0.4-0.5 0.7-0.2 0.9-0.8-0.1 0.1 0.6-0.7-0.7-1.1-0.1z" id="NY16" name="NY16 District"/>
      <path d="M911 198.3l-0.2 0-5-1.6-1.2-0.3 0.6-1.1 2.6-4 0.2-0.6 0-1.1-0.8-0.9 0.5-1.2 1.2-0.5-0.1-1.5-0.3-0.7 0.5-1.1 0.8 0 0.8 0.9 0.2-0.6 0.4-0.3 0.5 0.4 0.4-0.5 1.8-0.7 0.9 5.5 0.3 1.9 1.6 1.5-3.5 3.5 1.7 1.7-1.2-1.1-0.8 0-0.4 0.3-1.3-0.1 0 0.6-0.6 0 0.4 1.6z" id="NY17" name="NY17 District"/>
      <path d="M904.6 196.4l-1.9-0.6-2.4-0.9-4.5-1.6-0.1-0.3-1.3-1-0.2-0.5-0.1-1 4.4-1.3 0.7-1.4 0.4-0.6 0.8-0.5 1.1-1.2 0.3 0.6 2.2 0-0.5-1.3-1.4-0.1 0-0.8 0.2-0.1-0.4-1.2 0.6-0.1 0.6-1.3 0.5-0.1 0.4-0.7-0.1-0.6 0.1-0.6-0.6-1.2-0.8-0.8-0.3-0.9-0.3-0.2-1.2 0.8-0.9 0.1-0.4-0.2-0.6-2 3.3-0.4 0.1-1.8 0.7-0.3 1.6 0.8 0.1 1.1 0.3-0.1 3.7 0.9 3.1-0.1-0.3-1.6 0.6-0.2 0.2 1.2 1 5.4 0.6 3.2-1.8 0.7-0.4 0.5-0.5-0.4-0.4 0.3-0.2 0.6-0.8-0.9-0.8 0-0.5 1.1 0.3 0.7 0.1 1.5-1.2 0.5-0.5 1.2 0.8 0.9 0 1.1-0.2 0.6-2.6 4-0.6 1.1z" id="NY18" name="NY18 District"/>
      <path d="M912.1 173.1l-0.6 0.2 0.3 1.6-3.1 0.1-3.7-0.9-0.3 0.1-0.1-1.1-1.6-0.8-0.7 0.3-0.1 1.8-3.3 0.4 0.6 2 0.4 0.2 0.9-0.1 1.2-0.8 0.3 0.2 0.3 0.9 0.8 0.8 0.6 1.2-0.1 0.6 0.1 0.6-0.4 0.7-0.5 0.1-0.6 1.3-0.6 0.1 0.4 1.2-0.2 0.1 0 0.8 1.4 0.1 0.5 1.3-2.2 0-0.3-0.6-1.1 1.2-0.8 0.5-0.4 0.6-0.7 1.4-4.4 1.3 0.1 1 0.2 0.5-0.6 0.2-0.4-0.3-0.3 0.3-0.6-0.2-0.4 0.2-0.5-0.7-0.6-0.1-0.6 0.3-0.3-0.7-0.9-1.1-1-0.7 0.5-0.4-0.5-1.6-0.4-1.4-0.4-0.3-0.5 0 0-0.9-0.5-0.6-0.8 0-0.4-0.4-1.1 0.3-0.4-0.3-0.5-1.1-0.7-0.2-1-0.9-2 0.4-4.6 1.1-5.7 1.2-0.1-0.8-1-3.4 0.5-0.1-0.1-1-0.4-0.6-0.3-1.1-1-2.2-2.6 0.7 0 0.5 1 0.3 0.2 1.5-1.8-0.2-1 0.3 0.2 1.2-0.9 0.2-0.1-0.4-3.6 0.7-0.4-2.4-0.9-3.5 1.8-0.5-0.6-0.2-1.1-1.1 0.9-0.2 2.5-0.6 0.1 0.2 3.1-0.8 0.4 1.6 2.4-0.6 0.4 0.2 0.5-0.1-0.6-2.3 3-0.9-0.4-1.5 7.4-2.1 0.1 0.2 2.1-0.6 0.5-1.1-0.3-2.1 0.5-0.2 0.1 0.5 1.2-0.3 0.3-1.2 3.6 1.1 0.2-0.2-0.1-1.5 4.1 0.7-0.1 0.9 0.2 0.9 1.2 2.6-0.3 1.6-0.4 1.2 2 1.7 3.2 0.9 1-0.6 0.6 0.2 1.1-0.4 0.4-0.5-0.3-0.6 5.1-2 2.3-1.1-0.1-0.5 0.2-1.1-0.2-1-0.2-0.5 0.3-1.2 1.6-0.1 0-1.6-0.7 0.3-0.2-0.5 0.4-0.3-0.4-0.5-0.3-0.7 0.6-0.4 5.2-2.2 0 0.9 0.4 0.7 0.2 0.5 0.2-0.1-0.2 6-0.2 9.7 0.5 0.7z" id="NY19" name="NY19 District"/>
      <path d="M911.2 154.7l-5.2 2.2-0.6 0.4 0.3 0.7 0.4 0.5-0.4 0.3 0.2 0.5 0.7-0.3 0 1.6-1.6 0.1-0.3 1.2 0.2 0.5 0.2 1-0.2 1.1 0.1 0.5-2.3 1.1-5.1 2-0.2-0.2 0.2-1.8-0.1-0.7-0.4-0.5 0-0.6 0.4-1.1 0.1-1.2-0.1-1.1-0.6 0.2-0.7 0-0.5 0.2-0.7-0.6 0.7-0.4 0.1-0.6-0.4-0.3-0.1-1-0.2 0-0.3-1.3-0.7-1.7 3.1-0.7-0.7-1.9 5.1-1.8-0.1-1.1 0.5 0 0.5-0.4 0.6-0.2 0.4 1-0.5 0.2 0.2 0.6-0.3 0.5-0.2 1 2.5-0.6-0.1 0.8-0.3 0.3 0.3 0.7 2.8-0.8 0.2-0.4 0.9 0.2 1.7-0.4 0.5 2.3z" id="NY20" name="NY20 District"/>
      <path d="M897.6 168.1l0.3 0.6-0.4 0.5-1.1 0.4-0.6-0.2-1 0.6-3.2-0.9-2-1.7 0.4-1.2 0.3-1.6-1.2-2.6-0.2-0.9 0.1-0.9-4.1-0.7 0.1 1.5-0.2 0.2-3.6-1.1-0.3 1.2-1.2 0.3-0.1-0.5 0.1 0-1.1-3.8 0.6-1.6-1.1-0.2-0.2 0.6-1.2-0.6-0.7-0.6-3.2 0.9 0.6 0.7-0.9 0.4-0.3-0.1-0.8 0.5-1.2-0.2-0.6-0.5-0.5 0-0.4 0.3-1.4 0.4-0.5-3.7-0.4-0.1 0.4-3.8 1 0.1-0.9-3.4-1.1-3.6-1 0.1-0.3-2.1 1.3-0.1 2.1-2.6-0.7-0.5-0.2-0.4-0.8-0.2-0.2-0.5-0.6 0.8-1.6 1.4-0.5-1.2-0.8-3 1.5 0.4 0.6-1.6 0.4-0.2 1-2-0.1-0.3-4.2-1.5 0.5-0.8 0-0.9 0.4-1.2 1.3-2 0.6-0.8 1.3-2.3 0.4-0.4 1.7-2.5 0.4-0.7 1.2-1.3 1.2-0.7 0-0.4 1-0.6 0.8-0.8 0.4-0.7 1-0.2 0.3-0.4 0.8-0.6 1.7 0.2 0.7-0.4 3.6-0.7 1.9-0.4 2.9-0.6 4.3-1.3 3.5-0.9 4.8-1.3 0 0.6 0.4 0.4 0.2 1-0.2 0.4 0 1.6 0.9 0.6 0.1 0.3-0.3 1.1 0.4 1.8-0.1 1.1 0.3 0.6 0.8 0.7 1.1 1.5 0.3 1.1-0.1 0.9-0.2 0.5 0.5 1.3 0.4 0.8 0 0.5-0.3 0.4-0.2 0.7-0.3 0.5 0.1 1.8-0.1 1.6 0.6 0.4 0.5 2 0.9 1.2 0.2 0.6-0.2 0.7 0.9 0.9-0.1 1.1-0.3 1-0.1 1.3 0.2 0.2 0.1 0.9 0.5 0.2 0.3-1.3 1-0.3 0.5 0.9 0.5 0.2 0.5 0.7-0.1 0.4 1.3 5.7 1.4 7.2-1.7 0.4-0.9-0.2-0.2 0.4-2.8 0.8-0.3-0.7 0.3-0.3 0.1-0.8-2.5 0.6 0.2-1 0.3-0.5-0.2-0.6 0.5-0.2-0.4-1-0.6 0.2-0.5 0.4-0.5 0 0.1 1.1-5.1 1.8 0.7 1.9-3.1 0.7 0.7 1.7 0.3 1.3 0.2 0 0.1 1 0.4 0.3-0.1 0.6-0.7 0.4 0.7 0.6 0.5-0.2 0.7 0 0.6-0.2 0.1 1.1-0.1 1.2-0.4 1.1 0 0.6 0.4 0.5 0.1 0.7-0.2 1.8 0.2 0.2z" id="NY21" name="NY21 District"/>
      <path d="M879.6 161.1l-0.5 0.2 0.3 2.1-0.5 1.1-2.1 0.6-0.1-0.2-7.4 2.1 0.4 1.5-3 0.9 0.6 2.3-0.5 0.1-0.4-0.2-2.4 0.6-0.4-1.6-3.1 0.8-0.1-0.2-2.5 0.6-0.9 0.2-0.5-1-0.7-0.6-0.3-0.6-0.4-1.3 0.1-0.9-0.2-1-0.3-0.5 1.6-0.4 0.7-0.1-0.4-1.3 0.5-0.1-0.3-1.3 1.3-0.3-0.5-1.9 0.3-0.4-0.6-2.5 2.1-0.6 0.6-0.1 1.5 0.3 0.3-0.5-0.2-1.1 0.6 0.5 1.5 0.3 0.2 0.4 0.5-0.2 0.9 0.4 1.1-0.2 0.2 0.3 0.7 0 1.4-0.4 0.4-0.3 0.5 0 0.6 0.5 1.2 0.2 0.8-0.5 0.3 0.1 0.9-0.4-0.6-0.7 3.2-0.9 0.7 0.6 1.2 0.6 0.2-0.6 1.1 0.2-0.6 1.6 1.1 3.8-0.1 0z" id="NY22" name="NY22 District"/>
      <path d="M857.8 177.3l0.4 2.4 3.6-0.7 0.1 0.4 0.9-0.2-0.2-1.2 1-0.3 1.8 0.2-0.2-1.5-1-0.3 0-0.5 2.6-0.7 1 2.2 0.3 1.1 0.4 0.6 0.1 1-0.5 0.1 1 3.4 0.1 0.8-5.6 1.1-5.1 1-2.9 0.6-2.9 0.7-6.8 1.3-6.3 1.3-3.8 0.7-2.5 0.5-5.8 1-3.9 0.8-5 0.9-4.2 0.7-3.4 0.6-2.5 0.4-1-6.1 1.2-0.9 1.6-1.5 1.4-1.5 0.3-0.2 0.7-1.1 1.2-1.3 1.8-1.3 0.8-0.4 0.4-1.5 0.6-0.8 0.1-1.1 0.9-0.5 0.6-0.7 0.4-0.2 0.9-1.3-0.2-0.4 2-0.4 0.7-0.3-1.2-6.2-0.6 0.2-0.1 0.3-0.9 0.3-0.6-0.2-0.2-1 0.1-0.2 1.2-0.3 0-0.6 0.6 0.1 1.4-0.3 0.5 1.7 0.5-0.1 0.8-0.3 1.2-0.1 0.9 4.8-0.4 0 0.3 2 0.4-0.1 0.7 3.5 0.4 2.4 2.6-0.5 4.4-0.8 3.3-0.6 0.2 1 2-0.3 0.2 1.5 1-0.2-0.1-0.6 0.8-0.1 0.7-0.8 1 0.5 0.1 0.7 0.7-0.2 0.2 0.8 0.8-0.2 0.8-0.7 1.1-0.2 0-0.9 0.3-0.1-0.1-1.3 0.5-0.1 0.1 0.6 1-0.3 0.3-0.8 0.5-0.4 0.6 2.6 2-0.4 0 0.2 4.9-1.2z" id="NY23" name="NY23 District"/>
      <path d="M857 172l1.1 1.1 0.6 0.2-1.8 0.5 0.9 3.5-4.9 1.2 0-0.2-2 0.4-0.6-2.6-0.5 0.4-0.3 0.8-1 0.3-0.1-0.6-0.5 0.1 0.1 1.3-0.3 0.1 0 0.9-1.1 0.2-0.8 0.7-0.8 0.2-0.2-0.8-0.7 0.2-0.1-0.7-1-0.5-0.7 0.8-0.8 0.1 0.1 0.6-1 0.2-0.2-1.5-2 0.3-0.2-1-3.3 0.6-4.4 0.8-2.6 0.5-0.4-2.4-0.7-3.5-0.4 0.1-0.3-2 0.4 0-0.9-4.8-1.2 0.1-0.8 0.3-0.5 0.1-0.5-1.7-1.4 0.3-0.6-0.1 0 0.6-1.2 0.3-3.7 0.7-0.2-1.6-0.3-1.2 1-0.7 2.1-1.2 3.3-1.7 2.3-0.8 0.3 0 1.6-0.4 0.6 0 2.6-0.5 1.2-0.3 1.8-0.1 1 5.2 1.5-0.3-0.4 2.3 0.8-0.1 0.1 1.1 3-0.6 0.2 0.7-0.5 0.5 2-0.4 0-0.1 2.6-0.4 0.2 0.8 0.7 0 1-0.5-1.7-8.2 0.5-0.2 1.3-0.2 1.8-0.6 1.3-0.1 0.5 0.2 1.5-0.3 0.8-0.8 1.7-0.7 0.7-0.9 0.6-0.2 0.8-1.7 0.9-1 1.1-0.9 0.2-0.5 0.8-0.8 0.7-0.2 0.4 0.2 0.9-0.2 0.8-0.5 0.3-1.2-0.3-2-0.7-2-0.7-1.3-1.1-0.7 0.4-0.7 0.5 0.4 0.6-0.2 1-1-0.2-0.8 0.5-1.1-1.1 0.7-0.7-0.1-0.1-0.5 1-0.9-0.7-0.2 0.2-0.5-1.2 0-0.6 0.4 0 0.9 0.6-0.5 0.5 0-0.2 0.8-0.4 0.7-0.3-0.6-0.7-0.3-0.1-1-1.1-0.2-0.3-0.6 0.5-2.3 1.1-0.3 0.7-0.6 0.4-0.5-0.2-0.9 0.5-0.5 0.5-0.2 0.7-0.9 0.6-0.5 0.5 0 0.8-0.8 0.7-0.9 4.2 1.5 0.1 0.3-1 2-0.4 0.2-0.6 1.6-1.5-0.4 0.8 3 0.5 1.2 1.6-1.4 0.6-0.8 0.2 0.5 0.8 0.2 0.2 0.4 0.7 0.5-2.1 2.6-1.3 0.1 0.3 2.1 1-0.1 1.1 3.6 0.9 3.4-1-0.1-0.4 3.8 0.4 0.1 0.5 3.7-0.7 0-0.2-0.3-1.1 0.2-0.9-0.4-0.5 0.2-0.2-0.4-1.5-0.3-0.6-0.5 0.2 1.1-0.3 0.5-1.5-0.3-0.6 0.1-2.1 0.6 0.6 2.5-0.3 0.4 0.5 1.9-1.3 0.3 0.3 1.3-0.5 0.1 0.4 1.3-0.7 0.1-1.6 0.4 0.3 0.5 0.2 1-0.1 0.9 0.4 1.3 0.3 0.6 0.7 0.6 0.5 1z m-2.3-29.2l0.5-0.9 0.4 0.3-0.9 0.6z" id="NY24" name="NY24 District"/>
      <path d="M842.5 159.6l1.7 8.2-1 0.5-0.7 0-0.2-0.8-2.6 0.4 0 0.1-2 0.4 0.5-0.5-0.2-0.7-3 0.6-0.1-1.1-0.8 0.1 0.4-2.3-1.5 0.3-1-5.2 0.5-0.2 0.7 0.1 2.1 0 0.6-0.1 0.9 0.2 0.1 0.3 1 0.5 1.4 0.6 0.8 0 2.1-1.3 0.3-0.1z" id="NY25" name="NY25 District"/>
      <path d="M819.4 167.4l-0.1 0.2 0.2 1 0.6 0.2 0.9-0.3 0.1-0.3 0.6-0.2 1.2 6.2-0.7 0.3-2 0.4-0.1-0.8-1-1.2-0.1-0.6-0.6-0.6-0.5 0-0.9-0.4-0.3-0.7 0.2-1-0.2-0.2-1.1-0.1 0.1-1.2 3.7-0.7z" id="NY26" name="NY26 District"/>
      <path d="M948.1 170.3l-0.8 0.2-0.3-0.4 0.5-0.6-0.7-0.5-0.4 0.5-0.6-0.6-1.3 0.6-1.4-3.3 0.3-0.1 3.4-1 0.7 2.8 0.7-0.3 0.2 0.8 0.1 0.9 0.5 0.9 1.3 0.3 0.8 0.7 0.7 0.7 1.1 0.1 0.3 1.3 0.2 0.2 0.7 2-1 1.3-0.1-0.7-0.7-1.2-0.2-1.1-0.3-0.7-0.4 0.3 0.6 1.8 0.2 0.1-0.2 1.1-0.7 0.2 0 0.7-0.8 0.3-0.2-0.3 0.7-0.5-0.4-0.8 0.4-2.2-0.1-0.4 0.9-0.9 0-0.6-0.7-0.6 0.1 0.7-0.2 0.5-0.9 0.3 0-1.1-0.4-0.3-0.5 0.1-1.1-1.2z m1.6 7.3l-0.1-0.7-0.2-1.5 0.4-0.1 0.3 1.4-0.4 0.9z" id="RI01" name="RI01 District"/>
      <path d="M943.1 166.2l1.4 3.3 1.3-0.6 0.6 0.6 0.4-0.5 0.7 0.5-0.5 0.6 0.3 0.4 0.8-0.2 0.4 1.3 0.4 0.4-0.5 1.1 0.5 1.6-0.5 0.4 0 0.4 0.6 0.5 0.4 1.4-0.1 0.6-0.3 0.4 0.2 0.6-0.3 0.9-0.8 0.1-1.4 0.7-1.4 1.1-1 0.4-1.2 0.8-0.1-0.3 0.3-0.6-0.6-1.5 0.7-0.3-1.2-5.4-1.7-6.1-0.5-1.7 3.1-0.9z m4.9 19l0.6-0.8 0.5 0.7-0.8 0.3-0.3-0.2z" id="RI02" name="RI02 District"/>
      <path d="M924 171.3l0.1 0.3 1.2 0.1 0 0.6 1.7-0.3 1.6-0.5 0.5 2 0.3-0.2 0.1 1.2 0.5-0.2 0.6 1.5-2.4 1 1.4 0.7-1.2 0.7 0.1 0.8 1.3-0.6 0.4 0.5-0.2 1 0.1 0.5-0.9 0-0.7 0.3-0.6 0.4-0.9 0.3-0.2-0.7-3.1 1.3-0.1-1.2-0.3-0.8-0.7 0.3-0.6-1.6 1.6-0.6 0.6 1.5 1-0.3 0.1 0.2 1.1-0.4-0.7-1.9-0.6-0.1-0.5-1.7 0.2-1.4-0.2-0.8-2.3 0.5 0 0.6-0.4 0.1 0 1 0.4 0.2 0 0.8-1.1 0.5-1.1 0.2-0.3-0.3-0.7 0.4-0.3 0.4-0.6 0.2-0.2-5.9 2.5-0.5 2.7-0.7 0.2 0.9 0.6-0.3z" id="CT01" name="CT01 District"/>
      <path d="M940 167.1l0.5 1.7 1.7 6.1 1.2 5.4-0.7 0.3 0.6 1.5-0.3 0.6-0.4-0.3-0.7 0.4-0.4-0.1-0.6 0.3-0.3 0.6-0.8-0.1-0.7 0.3-0.5 0.5-0.9-0.3-0.8 0.7-0.4 0.5-0.9 0.4-1 0.6-0.3-0.3-0.9 0.2-1.1 0.6-0.3 0.5-0.5-0.3-0.2 0-0.1 0-0.3 0.1-0.1 0-0.1 0-0.2 0.1-0.4 0.2 0.2-1.1-1-0.7-0.5-1.9 1.1-0.5-0.6-0.3-0.1-0.8 1.2-0.6-0.3-1-0.1-0.5 0.2-1-0.4-0.5-1.3 0.6-0.1-0.8 1.2-0.7-1.4-0.7 2.4-1-0.6-1.5-0.5 0.2-0.1-1.2-0.3 0.2-0.5-2-1.6 0.5-1.7 0.3 0-0.6-1.2-0.1-0.1-0.3 0.2-0.8 0.9-0.2 2.1-0.4 0.6-0.3 6.4-1.5 1.2-0.2 3.7-0.9 0.8-0.2 0.1 0.3z" id="CT02" name="CT02 District"/>
      <path d="M922.3 191.8l0-0.6-0.3-0.8 0.2-0.5-0.5-0.9-0.1-0.7 0.3-0.9-0.5-0.4 0.4-0.5 0.3-0.7-0.1-1.2-0.5-0.5 0-0.6 0.4-0.1 0.1-0.7 0.4-0.1 0.6 0.3 0.3-0.3 0.8 0.4 0 1.1 1.2 0.1 0.3-1.4 1.7-0.3-0.3-1.1 0.9-0.3 0.6-0.4 0.7-0.3 0.9 0 0.3 1-1.2 0.6 0.1 0.8 0.6 0.3-1.1 0.5 0.5 1.9 1 0.7-0.2 1.1-1.2 0.5-0.5-0.1-0.4 0.1-1.5 0.9-0.4-0.2 0-0.2-0.2-0.1 0-0.1-0.5 0.2-0.4 1-0.4 0.7-0.4 0.2-0.1 0.1-0.4 0-0.8 1.6-0.6-0.1z" id="CT03" name="CT03 District"/>
      <path d="M914.9 197.6l0-0.6-1.7-1.7 3.5-3.5-1.6-1.5-0.3-1.9 0.6-0.2 0.9 1 1.9-1 0.4 0.7 1.4-1.6 0.4-0.3 0.2-0.7-0.5-0.2 0.6-0.8-0.1-1 0.9-0.2 0.5 0.5 0.1 1.2-0.3 0.7-0.4 0.5 0.5 0.4-0.3 0.9 0.1 0.7 0.5 0.9-0.2 0.5 0.3 0.8 0 0.6-0.7 0.1-0.7 1.2-0.5-0.2-1.7 1.4-0.3 0.8-0.7 0.1-1.1 1.1-0.5 0.7-0.2-0.3-1 0.9z" id="CT04" name="CT04 District"/>
      <path d="M914.8 188.4l-0.9-5.5-0.6-3.2-1-5.4-0.2-1.2 1-0.2 4.9-1 0.2 5.9 0.6-0.2 0.3-0.4 0.7-0.4 0.3 0.3 1.1-0.2 1.1-0.5 0-0.8-0.4-0.2 0-1 0.4-0.1 0-0.6 2.3-0.5 0.2 0.8-0.2 1.4 0.5 1.7 0.6 0.1 0.7 1.9-1.1 0.4-0.1-0.2-1 0.3-0.6-1.5-1.6 0.6 0.6 1.6 0.7-0.3 0.3 0.8 0.1 1.2 3.1-1.3 0.2 0.7 0.3 1.1-1.7 0.3-0.3 1.4-1.2-0.1 0-1.1-0.8-0.4-0.3 0.3-0.6-0.3-0.4 0.1-0.1 0.7-0.4 0.1 0 0.6-0.9 0.2 0.1 1-0.6 0.8 0.5 0.2-0.2 0.7-0.4 0.3-1.4 1.6-0.4-0.7-1.9 1-0.9-1-0.6 0.2z" id="CT05" name="CT05 District"/>
      <path d="M904.5 259.9l-5.6 1.3-0.7 0.1-4.9 0.9-1.8-6.2-2.4-8.8-1.5-5.1-1.7-6.3-0.1-0.2 0-0.3-0.3-1.2 0.3 0 0.1-0.8 0.5-0.9 0.1-0.3 0.1-0.1 0.2-0.2 0.1-0.1 0.6-0.5 0.1-0.1 0.1 0 0.3-0.2 0.1 0 0.1 0 0-0.1 0.1 0 0.1 0 0.1-0.1 0.1 0 0.2 0 0.1 0 0.2-0.1 0.2 0 0.1 0 0.5 0 0.3 0 0.5 0.1 0.3 0.1 0.3 0.1-0.3 0.1-0.4 0.5-0.3 1.1 0 0.6-0.6 1.6-0.4 0.2-0.3 0.7 0.1 0.6 1 0.6 0.1 1.1-0.2 0.4 0.2 0.9 1.1 0.8 1.1 1.4 1.1 0.6 0.2 0.4 0.5 0.5 0.5 1.3 0 1.2 0.5 1.2 0.1 0.7 1.3 0.8 0.8 1.1 0.1 0.9 0.3 0.4 2.5 1.9 0.8 0.3 1-0.3 1.1 2.8 0 0.8-0.4-1.5-1.1 0.4 0.5 1.1 0.5 0.3-0.8 0.4 1.2 0.4 0.5-0.1 0.7 2.1 0.2 0.7z" id="DE00" name="DE00 District"/>
      <path d="M866.3 256.7l0.2-0.3 0.5-0.7 0.4-0.6 0-0.1 1.6 1.1 1.2 0.8-1.1 1.6-0.1 0.2-0.1 0.1-0.5 0.8-0.2-0.8 0-0.1-0.1 0 0-0.2 0.1 0 0-0.3-0.1-0.2-0.3-0.2-0.2-0.1-0.1-0.2 0-0.1-0.1-0.1-0.5-0.1-0.6-0.5z" id="DC98" name="DC98 District"/>
      <path d="M897.7 223.8l-0.5 0.7-0.2 0.2-0.1 0-0.1 0.1-0.1 0.1-0.1 0.1-0.1 0.5-0.1 0.2-0.4 0.2-0.3 0.3-0.2 0.2 0 0.2 0 0.1-0.5 0.1-0.1-2.7 0.6 0.2 0.1-0.5 0.4-1 0.6-0.9 1 0.3 0.2 0.7-0.3 0.5 0.2 0.4z" id="PA02" name="PA02 District"/>
      <path d="M895.8 193.3l-0.9 0.5-0.3 0.5-0.8 1.3-0.2 1.3 0 0.6 0 0.5-0.5 1.1-0.8 0.8-0.4 1.8-1.5 1.5 0.2 0.4-0.1 0.3-1.3 1-0.1 0.7-0.8 1.1-0.5-0.6-0.5 0-0.4 0.5-1-0.2-1.7-1.8-1.7-1.5-1.3-0.8-0.5-0.4-0.4 0.2-1.1 1.5 0.2 0.6 0.5 0.3 0.3 0.5-4 3.1-0.4 0.4-1.5-0.2-0.3-0.8 1.3-0.6-0.1-0.7 0.3-0.3-0.3-1 1.3-1-0.5-0.4-0.9-1.1-0.7 0.5-0.7-1 0.4-0.4-0.8-0.7 1.5-1.7 0.1-0.5-1.2 0-0.8-0.3 0-0.5 0.9-0.3 2.6-1.5 0.7-2-0.6-0.3 0.2-1.3 0.6-1.7 4.3-0.9-2.1-8 2-0.4 1 0.9 0.7 0.2 0.5 1.1 0.4 0.3 1.1-0.3 0.4 0.4 0.8 0 0.5 0.6 0 0.9 0.5 0 0.4 0.3 0.4 1.4 0.5 1.6-0.5 0.4 1 0.7 0.9 1.1 0.3 0.7 0.6-0.3 0.6 0.1 0.5 0.7 0.4-0.2 0.6 0.2 0.3-0.3 0.4 0.3 0.6-0.2 1.3 1 0.1 0.3z" id="PA08" name="PA08 District"/>
      <path d="M890.6 203.6l0.2 0.4 1.4 1.5 0 0.6-0.5 1.5-0.4 0.5-0.6 0-0.2 0.7 0.3 0.4-0.2 1 0.5 0.2-0.2 0.7 0.3 0.9-0.9 0.8-2.1 2.7-0.9 1.9-0.9-0.5-4.8-2.5-2.5-1.4 1.3-1 0.7-0.8-2.5-1.3-2.4-1.8 4-3.1-0.3-0.5-0.5-0.3-0.2-0.6 1.1-1.5 0.4-0.2 0.5 0.4 1.3 0.8 1.7 1.5 1.7 1.8 1 0.2 0.4-0.5 0.5 0 0.5 0.6 0.8-1.1 0.1-0.7 1.3-1 0.1-0.3z" id="PA07" name="PA07 District"/>
      <path d="M895.6 227.1l0.2 0.2-1.3 0.2-0.7-0.3-0.3-0.5-0.6-0.1 0.6-0.7 0.5-0.4-1.2-0.8 0.5-1 0.7 0.3 0.1-0.3 0.8 0.4 0.1 2.7 0.5-0.1 0.1 0.4z" id="PA03" name="PA03 District"/>
      <path d="M896.8 217.1l1.5 0.7 0.6 0.9 1.4 0.5 0.5 0.7 0.7 0.4-0.3 0.6-0.7 0.5-0.6 0.1-0.4 1-1.2 0.7-0.6 0.6-0.2-0.4 0.3-0.5-0.2-0.7-1-0.3-1.8-0.9-0.5 0.7-1.1-0.5-0.1 0.2-2.6-1.3-0.4 0-1.4-0.6-0.3-0.3-1-0.1-0.9-0.4-0.6-0.6 0.5-1.2 0.9 0.5 0.9-1.9 2.1-2.7 0.9-0.8 0.1 0.7 0.5 0.2 0.6-0.4 0.6 0.1 0.7 0.4 0.4 1.4 0 0.6 0.3 0.7 0.6 0.3 0.5-0.3 0.6 0.2 0.7 1.2z" id="PA01" name="PA01 District"/>
      <path d="M896.6 221.9l-0.6 0.9-0.4 1-0.1 0.5-0.6-0.2-0.8-0.4-0.1 0.3-0.7-0.3-0.5 1 1.2 0.8-0.5 0.4-0.6-0.2-0.5-0.4-0.5 0-0.4-0.4 0.2-0.6-0.1-1-0.6-0.2-0.3 0.5-0.4 0.2-0.2 0.7-0.7 0.2-0.5-0.9-0.7 0-0.1-0.5-1.2-0.6-0.6-0.8-0.4 0.2-0.9-0.1-0.2 0.2-1-0.4-0.6 0.2-1-0.6 0.2-0.8-0.5-0.7-0.4 0.1-1 0-1.3 0.3-0.7 0.7-0.1 0.4-0.7-0.3-0.3-0.4 0.8-1.2-0.2-0.5 0.8-0.4-0.1-1.1 0.2-1 1.1-0.4-0.1-0.4-1.1-0.6 2.8-0.7 4.8 2.5-0.5 1.2 0.6 0.6 0.9 0.4 1 0.1 0.3 0.3 1.4 0.6 0.4 0 2.6 1.3 0.1-0.2 1.1 0.5 0.5-0.7 1.8 0.9z" id="PA04" name="PA04 District"/>
      <path d="M895.8 227.3l0 0.1 0 0.5-0.2 0.2-0.5 0.2-0.2 0.1-0.4 0.5-0.1 0.1-0.3 0.2-0.4 0.2-1 0.2-1.2 1.4-0.2-0.1-0.3-0.1-0.3-0.1-0.5-0.1-0.3 0-0.4 0-0.1 0-0.1 0-0.2 0-0.2 0.1-0.1 0-0.2 0-0.1 0 0 0.1-0.1 0-0.1 0-0.1 0-0.2-0.8 0.7-1 0.2-0.8 1.3-1.3-0.3-0.1 0.6-0.9-0.2-0.3 0.3-0.5-0.5-0.6 0.2-0.7 0.4-0.2 0.3-0.5 0.6 0.2 0.1 1-0.2 0.6 0.4 0.4 0.5 0 0.5 0.4 0.6 0.2-0.6 0.7 0.6 0.1 0.3 0.5 0.7 0.3 1.3-0.2z" id="PA05" name="PA05 District"/>
      <path d="M878.4 221.4l0.1-0.4 0.7-0.7 1.3-0.3 1 0 0.4-0.1 0.5 0.7-0.2 0.8 1 0.6 0.6-0.2 1 0.4 0.2-0.2 0.9 0.1 0.4-0.2 0.6 0.8 1.2 0.6 0.1 0.5 0.7 0 0.5 0.9 0.7-0.2 0.5 0.6-0.3 0.5 0.2 0.3-0.6 0.9 0.3 0.1-1.3 1.3-0.2 0.8-0.7 1 0.2 0.8 0 0.1-0.1 0-0.1 0-0.1 0.1-0.2 0.1-0.1 0-0.1 0.1-0.1 0.1-0.2 0.1-0.2 0.2-0.1 0.1-0.1 0.1-0.2 0.2-0.1 0.1-0.1 0.3-0.5 0.9-0.1 0.8-0.7 0.1-0.5 0.1-3.1 0.7-1.9 0.4 0.5-0.1 0.7-1.6 0.5-2.7-0.3-0.6-0.1-0.7 0.6-2.1-0.5-1.6 1-0.9-4.3-2.4 0.6-0.8 0.1-0.5z" id="PA06" name="PA06 District"/>
      <path d="M869.2 184.1l5.7-1.2 4.6-1.1 2.1 8-4.3 0.9-0.6 1.7-0.2 1.3 0.6 0.3-0.7 2-2.6 1.5-0.9 0.3 0 0.5 0.8 0.3 1.2 0-0.1 0.5-1.5 1.7 0.8 0.7-0.4 0.4 0.7 1 0.7-0.5 0.9 1.1 0.5 0.4-1.3 1 0.3 1-0.3 0.3 0.1 0.7-1.3 0.6 0.3 0.8 1.5 0.2 0.4-0.4 2.4 1.8 2.5 1.3-0.7 0.8-1.3 1 2.5 1.4-2.8 0.7 1.1 0.6 0.1 0.4-1.1 0.4-0.2 1 0.1 1.1-0.8 0.4 0.2 0.5-0.8 1.2 0.3 0.4 0.7 0.3-0.1 0.5-0.6 0.8-1.2-0.6-2.4 1.9-2.1 0.9-2 1.4-1.3-2.4-0.7-1.2-1.2-2.3 2.1-2.3-3.3-1.8-2.6 1.3-1 0.6-0.5-0.3 0.1-0.3 0.3-0.7 0.5-0.6 0.3-0.9-0.3-1.2 0-0.8 0.4-0.9 0.1-0.9-1-0.5-0.8-1.2 0.1-0.5 0-1.4-0.2-0.5-0.6-0.5-0.6-1.2-1.2-0.8 0.8-0.5-1.1-0.5-0.8 0.6-1.1 0.2-0.1-0.3 0.8-0.2-0.4-1.2 1-0.2-0.2-1.1 1.2-0.1 0.1-0.3 0.9-0.6 0.4-0.6-0.4-1.7 0.9-0.3-1.2-2.5-1.1 0.1-1.4-4.7-1.3-4.3 2.9-0.6 5.1-1 5.6-1.1z" id="PA09" name="PA09 District"/>
      <path d="M877.7 222.7l4.3 2.4-1 0.9 0.5 1.6-0.6 2.1 0.1 0.7 0.3 0.6-0.5 2.7-0.7 1.6-0.5 0.1-6.5 1.4-3.2 0.7-5.1 1-0.5-2.5 0.7-0.7-0.7-0.9 0.1-0.8 0.4-0.9 0.6 0.2 0.2 0.8-0.4 1 0.3 0.3 0.9-0.9 0.5 0.2 0.7-0.9 0.7-0.2 1.2-1.3 0.7-0.4-1.1-1.2 0.1-0.5-1-1-0.5-0.3 0.3-0.8 0.8-0.4 0.6-0.7 0.4-0.2 0.2-0.1 2-1.4 2.1-0.9 2.4-1.9 1.2 0.6z" id="PA11" name="PA11 District"/>
      <path d="M861.5 217.9l0.5 0.3 1-0.6 2.6-1.3 3.3 1.8-2.1 2.3 1.2 2.3 0.7 1.2 1.3 2.4-0.2 0.1-0.4 0.2-0.6 0.7-0.8 0.4-0.3 0.8 0.5 0.3 1 1-0.1 0.5 1.1 1.2-0.7 0.4-1.2 1.3-0.7 0.2-0.7 0.9-0.5-0.2-0.9 0.9-0.3-0.3 0.4-1-0.2-0.8-0.6-0.2-0.4 0.9-1.2-1.6-1-0.2-0.5-0.5-0.8-0.2-0.7 1.1-0.7 0.2-2 0.9-1.5-1.3-0.3-0.5 0.3-0.5-0.2-0.5-0.7-0.4 0.2-0.7 0.6 0 0.4-0.3 0.5-0.8-0.1-0.6 0.3-0.5 0.7-0.4 2-0.6 0.8-0.4 2.1-0.7 0.9-0.6-0.5-0.6-1.1 0.3-0.4-0.2-0.2-0.5 0.2-0.9 0.8-1.1-0.2-0.5-0.7-0.5-0.3-1.1 0.3-0.6 0.1-0.9z" id="PA10" name="PA10 District"/>
      <path d="M801.6 232.4l-0.6-3.7-0.8-4.8 6.1-1.1 0.8 4.1 4-0.7 3.8-0.5 0.2 0.5-0.5 1-0.6 0.4-0.1 0.6 0.2 0.4-0.6 0.4 0.8 1.5-0.4 0.7-0.6 0.4-0.2 0.5-0.7-0.5-0.1-1.3-1.1 0.3-0.2 0.4-0.6-0.1-0.3-0.4-0.6 0.5 0.1 0.3-0.7 0.3 1.1 0.5 0.1 0.6 0.6 0.4 0 0.5-0.7 0.3-1-0.1 0.1 1.2-1.3-0.3-3.5-2.7-2.7 0.4z" id="PA17" name="PA17 District"/>
      <path d="M809.1 235l-0.1-1.2 1 0.1 0.7-0.3 0-0.5-0.6-0.4-0.1-0.6-1.1-0.5 0.7-0.3-0.1-0.3 0.6-0.5 0.3 0.4 0.6 0.1 0.2-0.4 1.1-0.3 0.1 1.3 0.7 0.5 0.2-0.5 0.6-0.4 0.4-0.7-0.8-1.5 0.6-0.4 0.5-0.1 1.3 1 0.7 0.1 1 1.2 0.1 0.7 0.3 0.5 0.1 0.7-0.5 0.5 0.1 1.5-0.1 0.7-0.7 0.9-0.3-0.4-0.4 0.4-0.5-0.5-0.4 0-1.6 1.1-0.5 0.1-1-0.2-0.2-0.6 0.8-0.4-3.7-0.8z" id="PA12" name="PA12 District"/>
      <path d="M833.8 244.4l-4.1 0.8-3 0.5-4.7 0.9-7.6 1.3-10 1.7-1.7-10.3-1.1-6.9 2.7-0.4 3.5 2.7 1.3 0.3 3.7 0.8-0.8 0.4 0.2 0.6 1 0.2 0.5-0.1 1.6-1.1 0.4 0 0.5 0.5 0.4-0.4 0.3 0.4 0.7-0.9 0.1-0.7-0.1-1.5 0.5-0.5-0.1-0.7-0.3-0.5-0.1-0.7-1-1.2-0.7-0.1-1.3-1-0.5 0.1-0.2-0.4 0.1-0.6 0.6-0.4 0.5-1-0.2-0.5 0.4-0.3 0.5 0.2 1.3 1.3 0.5 0.8 1.2 0.7 0.8-0.3 0.9-1.9 2.1-4.4-0.3-1.4 1.2-0.2 0.1 0.3 0.7 0 0.3 1.3 5.2-0.1-0.1 0.1-0.3 2.3-0.7 3.5-0.7 3.1-0.3 0.5-0.4 1.4 0 0.5 0.7 0 0.3 0.6 0.7-0.5 0.5-1 0.4 0 0.3 0.6 0.8-0.1 3.2-0.5-0.2 0.8-0.4 3.4-0.4 0.3 1.1 5.3-0.1 0.7-0.4 1.7z" id="PA14" name="PA14 District"/>
      <path d="M861.6 217.6l-0.1 0.3-0.1 0.9-0.3 0.6 0.3 1.1 0.7 0.5 0.2 0.5-0.8 1.1-0.2 0.9 0.2 0.5 0.4 0.2 1.1-0.3 0.5 0.6-0.9 0.6-2.1 0.7-0.8 0.4-2 0.6-0.7 0.4-0.3 0.5 0.1 0.6-0.5 0.8-0.4 0.3-0.6 0-0.2 0.7 0.7 0.4 0.2 0.5-0.3 0.5 0.3 0.5 1.5 1.3 2-0.9 0.7-0.2 0.7-1.1 0.8 0.2 0.5 0.5 1 0.2 1.2 1.6-0.1 0.8 0.7 0.9-0.7 0.7 0.5 2.5-8.6 1.7-6.4 1.2-3.8 0.8-4.2 0.8-4.8 0.9-3.2 0.5 0.4-1.7 0.1-0.7-1.1-5.3 0.4-0.3 0.4-3.4 0.2-0.8-3.2 0.5-0.8 0.1-0.3-0.6-0.4 0-0.5 1-0.7 0.5-0.3-0.6-0.7 0 0-0.5 0.4-1.4 0.3-0.5 0.7-3.1 0.7-3.5 0.3-2.3 0.1-0.1 2.8-0.4 1.1-0.3 2.8-0.5 0.7-0.3 3.8-1 3.4 0.6 1.8-1.6 1.1 0.4 0.8-0.4 0.2 0.3 0.8-0.9 1-0.6 2.3-1.9 1.1-0.8 0.2 0.1 0.7 3.2 3.5-0.2 0.6-0.4 0.4 0.3 0.9-0.2 0.6 0.3 0.1 0.3 1.1-0.1z" id="PA13" name="PA13 District"/>
      <path d="M807.5 189.6l1 6.1 2.5-0.4 1.5 8.7-2.6 0.4-1 0.1-0.2 0.8-0.7 0.4 0.3 0.6 0.8 0.1 0.5 1.5 1.5-0.3 0.3 1.1-0.3 0.5-0.6-0.1-0.5 0.5 1 1.1-0.2 0.4-1.2 0.1-0.8 1.1 0.5 2.6 3.6-0.6 0.1 0 0.8 4.8 1.1 6.6-3.8 0.5-4 0.7-0.8-4.1-6.1 1.1-1.1-6.4-1-6.1-1.3-7.9-0.8-5.1 1.3-0.9 1.6-1 1.8-1.4 0.9-0.9 0.1-0.8 0.8-0.7 0.5 0.6 2.8-2.5 0.4-0.2 1.3-1z" id="PA16" name="PA16 District"/>
      <path d="M811 195.3l3.4-0.6 4.2-0.7 5-0.9 3.9-0.8 5.8-1 2.5-0.5 3.8-0.7 6.3-1.3 6.8-1.3 2.9-0.7 1.3 4.3 1.4 4.7 1.1-0.1 1.2 2.5-0.9 0.3 0.4 1.7-0.4 0.6-0.9 0.6-0.1 0.3-1.2 0.1 0.2 1.1-1 0.2 0.4 1.2-0.8 0.2 0.1 0.3 1.1-0.2 0.8-0.6 1.1 0.5-0.8 0.5 1.2 0.8 0.6 1.2 0.6 0.5 0.2 0.5 0 1.4-0.1 0.5 0.8 1.2 1 0.5-0.1 0.9-0.4 0.9 0 0.8 0.3 1.2-0.3 0.9-0.5 0.6-0.3 0.7-1.1 0.1-0.1-0.3-0.6-0.3-0.9 0.2-0.4-0.3-0.6 0.4-3.5 0.2-0.7-3.2-0.2-0.1-1.1 0.8-2.3 1.9-1 0.6-0.8 0.9-0.2-0.3-0.8 0.4-1.1-0.4-1.8 1.6-3.4-0.6-3.8 1-0.7 0.3-2.8 0.5-1.1 0.3-2.8 0.4-5.2 0.1-0.3-1.3-0.7 0-0.1-0.3-1.2 0.2 0.3 1.4-2.1 4.4-0.9 1.9-0.8 0.3-1.2-0.7-0.5-0.8-1.3-1.3-0.5-0.2-0.4 0.3-1.1-6.6-0.8-4.8-0.1 0-3.6 0.6-0.5-2.6 0.8-1.1 1.2-0.1 0.2-0.4-1-1.1 0.5-0.5 0.6 0.1 0.3-0.5-0.3-1.1-1.5 0.3-0.5-1.5-0.8-0.1-0.3-0.6 0.7-0.4 0.2-0.8 1-0.1 2.6-0.4-1.5-8.7z" id="PA15" name="PA15 District"/>
      <path d="M927.9 99.1l-0.6 0.3-0.5 0.6 0.4 0.3 0 0.1 0.3 0.7 0.5 0.4-0.5 1.2 0 0.6-0.2 0.6 0.1 0.7-0.6 0.9 0.2 0.5 0.7 0.6 0 0.4 0.8 0.6 0.3 0.8 0.4 0.4-0.1 0.5-0.7 0.5 0.6 0.2-0.2 0.6 0 0.7-0.7 0.8 0 0.4-0.7 1-1.2 0.5-0.2 0.5 0.2 0.5-0.8 0.7-0.6-0.1-0.5 0.4-0.7 0.2-0.3 0.4-0.2 0.1-0.5 1.3 0.4 0.4 0.1 0.1 0 0.1 0.1 0 0 0.5 0 0.7 0.4 0.5 0.1 0.2 0.2 0.4 0 0.2-0.1 0.1 0.2 0.6 0.3 0.4-0.2 0-0.4 1.4-0.2 0.7 0.4 0.8-0.2 0.4 0.1 0.6-0.4 0.7-0.3 0.9 0.4 1-0.4 1.3-0.3 0.5-0.3 0.2-0.3 1 0.1 0.6 0 0.5 0 0.2-0.2 0.1 0.2 0.8-0.6 0.7 0.1 0.9-0.1 0.7 0.3 0.2 0 0.1 0.1 0.2-0.1 0.5 0.2 0.6 0 0.2 0 1.2 0.5 0.4-0.1 0.2 0 0.1-0.1 0.3 0.3 0.3 0 0.2 0 0.6-0.2 0.6-0.1 0.1 0.2 1 0.1 0.3-0.1 0.2 0.2 1.2 0.2 0 0.1 0.3 0.1 0.6 0.1 0.1 0.1 0.2 0 0.1-0.1 0.2-0.1 0.2 0 0.1-0.1 0 0 0.1 0 0.1 0.1 0.2 0.1 0.2 0 0.2 0.4 0.4-0.3 0.3 0.2 0.2-0.4 0.4-0.6 0.5 0.3 0.8 0 0.1-0.1 0.1 0 0.1 0.1 0 0 0.2 0 0.1-0.1 0.1-0.2 0.2 0.2 0.8 0.2 0.3 0.3 0.6 0.2 0.1 0.4 0.6 0.2-0.1 0.6 0.4 0.3 0.4 1.9-0.4 3.8-0.8 2.2-0.5 4.6-1 6.6-1.5 0.5-1.3 1-0.4-1 0.4-0.5 1.3-6.6 1.5-4.6 1-2.2 0.5-3.8 0.8-1.9 0.4-6.6 1.4-3.9 0.8-0.6 0.2-2 0.4-0.2 0.1-0.2-0.5-0.4-0.7 0-0.9-0.5-2.3-1.4-7.2-1.3-5.7 0.1-0.4-0.5-0.7-0.5-0.2-0.5-0.9-1 0.3-0.3 1.3-0.5-0.2-0.1-0.9-0.2-0.2 0.1-1.3 0.3-1 0.1-1.1-0.9-0.9 0.2-0.7-0.2-0.6-0.9-1.2-0.5-2-0.6-0.4 0.1-1.6-0.1-1.8 0.3-0.5 0.2-0.7 0.3-0.4 0-0.5-0.4-0.8-0.5-1.3 0.2-0.5 0.1-0.9-0.3-1.1-1.1-1.5-0.8-0.7-0.3-0.6 0.1-1.1-0.4-1.8 0.3-1.1-0.1-0.3-0.9-0.6 0-1.6 0.2-0.4-0.2-1-0.4-0.4 0-0.6 4-1.1 2.4-0.5 1.7-0.5 3.2-0.8 1-0.1 2-0.5 2-0.4 6.1-1.7 2.2-0.6 1.2-0.3 3.7-1z" id="VT00" name="VT00 District"/>
      <path d="M951.5 139.1l-0.6-0.2-1.7-0.8-0.3-0.4-0.1-0.9 0-0.9-1.7-1-0.6-0.8-1-0.3-0.6-1.2 0.2-0.9-0.4-0.8 0.1-0.9-0.2-0.7-0.5-0.4-1.5-4.8 0.3 0.1 1.3-1 1.3-0.3-0.2-1.1 0.3-0.4 0-0.8 0.3-0.6-0.4-0.4 0.4-0.4-1.7-1.4-0.9 0-0.5-1 0.7 0.3 1.6-1.9 1-1.1 0.5 0.4 0.4 0.6-0.2 0.5 0.1 0.9 0.5 0.6 0.9 0.3 0.4-0.9 2 0.7 0.6-0.1 0.5-1.4 2.3 1.4 1.6 0.7 0.5-0.6 0.4-1.3-0.2-0.6-0.3-2.8-0.4-0.1 0-0.6 0.3-0.6 0.4-0.1-0.1-2.1 0.2-0.1 2.1 0 0.2 0.9-0.6 1 1.6 0 0-0.8-0.4-0.8 0.5-0.5 0.9 0-0.2-3.2-1.7 0.2-0.1-0.6 0.2-0.7 0-1.7-0.8-0.1 0.5-1.2-0.1-0.6 1-0.1 0.1-1.2-1.1-0.8-0.2-0.6 2.2-1.1 0.3 0.2 0.1 0.7 0.5 0-0.1 0.6 1.1-0.1 0.2 2 0.7 0 0.2 2-0.8 0.1-0.2 2.9 1.6-0.1 0.2-0.4 1 0.6 0.8-1.6 3 1.7 1.2-0.4 0.3 0.1 0 1.6-0.2 0.7 0.2 0.9-0.2 0.4 0.2 0.4 0.7-0.1-0.4 1-0.4 0.7 0.1 0.5-0.6 0.4-0.2 1.1-0.9 0.9-0.1-0.7-1.8-0.6-1.1 0.7 0.1 1.8-0.2 0.5 0 1-0.6-0.7-0.3 0.4 0.1 0.6-1-0.3 0 0.5-0.6 0.2 0.3 1-0.7-0.2-0.3-1.3 0 2-0.3 1-1.1 1-1-1.2-0.4 0.3-0.6-0.1-0.6 1.1-0.9 0.1 0.5-1.7 0.2-0.9-1 0.1-0.3 0.6-0.7 0.7-0.7 1.1-0.5 0.2 0.1 0.7-0.6 1.5 0.4 0.6 0.7 0.6 0 0.6 0.5 0.7-0.6 0.5-0.5-0.2-0.5 0.8-0.8 0.4-0.1 0.8 0.2 0.6 0.5 0.6-0.2 0.8-0.6 0.6 0.4 0.5-0.9 0.6-0.6 0.3-0.5 0.9-0.2 1.5 0.5 0.5-0.3 1.5 0 1-0.3 1.3-0.5 0.4z m21.4-31.2l0.2-0.9 0.9-1.1 0.5 0.7-0.7 0.7-0.2-0.2-0.7 0.8z m0.6 0.2l0.2-0.7 0.5 0.2 0.9-0.4 0.8 0.7 0 0.3-0.4 0.9-0.5 0-0.4 0.3-0.4-0.9-0.7-0.4z m4-0.6l1-0.6 0.3 0.9-0.3 0.7-0.5 0.2-0.2-1.1-0.3-0.1z" id="ME01" name="ME01 District"/>
      <path d="M942.6 124.1l-1-3.5-2.3-7.3-1.8-5.8-1-3.3-2.1-6.3-1.9-5.7-0.4-1.2 0.8-0.3 1-0.9 0.7 0.4 0.3 0.8 0.7 0.8 0.5 0-0.1-0.8 0.3-1-0.2-0.7 0-0.7-0.6-0.7 0.5-0.9 0.7 0.1 0.7 0.5 0.5-0.2 0.5 0.2 0.2-0.7-0.6-0.7-0.4-0.1-0.9-0.7 0-1.7 0.4-1.1 0.7-0.8 0.3-0.9 0.5-0.2 0.7-1.1 0.4 0 0.5-0.6 0-0.7-0.4-0.2-0.3-0.7 0.8-1.5 0.5-0.3 0.5-0.9-0.2-0.7 0.2-0.5-0.7-0.4-0.4 0.1-0.2-0.7-0.4-0.4 0.4-1.1-0.4 0.1 0.1-0.9 0.3-0.3 0.1-0.9-1.1-0.7 0.2-1.1 0.1-1.4 0.3-0.3-0.2-0.7 0.4-0.7 0.4-0.2 0.4-0.7 0.1-0.6 0.5-0.3-0.8-6.4 3.7-10.7 3.2-9.3 0.7-0.2 1.7 0.3 0.5-0.2 0.3 0.4-0.1 0.8 0.3 1.3 0.7 1.5 1.7 0.4 0.8 0.4 0.6-0.5 0.5-0.7 0.9-0.5 0.4-0.5 0.8-0.1 0.8-0.5 0.2-1 0.4 0 0.4-0.5 0.7-0.2 0.7 0.2 0.6-0.7-0.2-0.8 0.1-0.4 1.1-0.5 1.1 0.1 1.2 0.1 0.4 0.5 2.2 0.8 0.6 0.4 0.5 0.1 0.8 0.8 0.3 0.1 0.7 0.8 1.6 0.4 3.1 10.1 2.3 7.2 2.2 7.1 0.7 0.4-0.2 0.6-0.4 0.5 0.1 0.3 1 0.7-0.5 0.7 0.1 0.8 0.6 0.7-0.4 0.2 0.5 1 0.5-0.1 0.6 0.1 0.2-0.5 0.9 1 0.6-0.1 0.6 0.3 1.5 0 0.9-0.7 0.5 0.3 0.4 0.7 0.1 1.1-0.5 0-0.4 0.6 0.8 1.3 1 0.6 0.3 1-0.3 1.2-0.3 0.2 0.7 0.9 0.5 0.3 1 1 1 0.7 0.5-0.2 0.1-1.4 0.3-0.2 0.8 0.4 0.3-0.3 0.8 0.1 1 0.8 0.6 0.8-0.3 0.4 0.7 0.5 1.4 1.7 1 0.3-0.1 0.5 0.5 0.7-0.2 0.4 0.6 0.7-0.5 1.1-0.5 0.1 0 0.7-0.7 1.4-0.1 0.6-0.5 0.3 0.1 0.4-0.6 0.4-0.3-0.6-1 0.4-0.4-1-1 0.7 0.7 1-0.4 1.2-0.5-0.3-0.2 0.4-0.6-0.1-0.5-0.4-0.6 0.4 0 1.6 0.3 0.5-1.3 0.6-0.7 0 0 1-0.5 0.1-0.2-0.8-0.9 0.5-0.7-0.7-0.1 1 0.3 0.5-0.3 1.1-0.3 0.6-0.6 0.3-0.6-0.9-0.2 0.3 0.6 1 0 0.7-0.5 0.1-0.3 0.8-0.4 0.3-0.3-0.9-0.6-0.1-0.5-1.4-0.9-0.4 0 0.6-0.9-0.3-0.2 0.6-0.8 0.2 0.1 0.5-0.9 0.2 0.3 0.7 0.4-0.7 0.3 0.2 0.8-0.2 0.2 0.4 0.9 0.3 0.6 0.8 0 0.9-0.4 0.6-1.5 0.5 0.7 0.8-0.2 0.4-1.6-0.1-0.7-0.8 0.1-0.6-0.2-0.5 0.1-0.8 0.5-0.5-0.7-0.8-0.2 0.9-0.4-0.3-0.3-1.4-0.7-0.1 0.6 1.5-0.7 0.4-0.3 0.4-0.6 0.3 0.6 0.8-0.1 0.5 0.1 0.6 0.6 0.2 0.5 0.6-0.4 0.5-1.1-0.4-1.1-0.1-1.1-0.4-0.6 0-0.4 0.7-0.5 0-0.1-1.4-0.3-0.1-0.2-1 0.2-1.5-0.3-0.6-0.5 0.9 0.2 0.5-0.7 0.9-0.3-0.4-1.4 1.1 1.2 1.2 0.1 0.7-0.7 2-0.3-0.1-1.2 0.4-3-1.7-0.8 1.6-1-0.6-0.2 0.4-1.6 0.1 0.2-2.9 0.8-0.1-0.2-2-0.7 0-0.2-2-1.1 0.1 0.1-0.6-0.5 0-0.1-0.7-0.3-0.2-2.2 1.1 0.2 0.6 1.1 0.8-0.1 1.2-1 0.1 0.1 0.6-0.5 1.2 0.8 0.1 0 1.7-0.2 0.7 0.1 0.6 1.7-0.2 0.2 3.2-0.9 0-0.5 0.5 0.4 0.8 0 0.8-1.6 0 0.6-1-0.2-0.9-2.1 0-0.2 0.1 0.1 2.1-0.4 0.1-0.3 0.6 0 0.6 0.4 0.1 0.3 2.8 0.2 0.6-0.4 1.3-0.5 0.6-1.6-0.7-2.3-1.4-0.5 1.4-0.6 0.1-2-0.7-0.4 0.9-0.9-0.3-0.5-0.6-0.1-0.9 0.2-0.5-0.4-0.6-0.5-0.4-1 1.1-1.6 1.9-0.7-0.3 0.5 1 0.9 0 1.7 1.4-0.4 0.4 0.4 0.4-0.3 0.6 0 0.8-0.3 0.4 0.2 1.1-1.3 0.3-1.3 1-0.3-0.1z m37-19.1l0.6-1.1 0.4 0.5 0.3-0.4 0.6 0.4-0.6 1.1-0.5-0.4-0.8-0.1z m-4.7-2.1l1 0.1-0.2 0.3-0.8-0.4z m0.7 1.6l0.7-1.3 1 0.3 0.3 0.4 0.7 0.2-0.1 0.5-0.5 0.2-0.3 0.7-1.1 0.4-0.2-0.3-0.1-0.6-0.4-0.5z m-3.7-0.4l0.3-1-0.4-0.9 0.1-0.3 0.6-0.1 0.1 0.4-0.3 0.6 0.3 0.7-0.1 0.6-0.6 0z m19.1-11.1l0.3-0.1 0.5 0.3 0.4 0.7-0.2 0.3-0.7-1.1-0.3-0.1z m-13 8.2l-0.1-1.1 0.2-0.1 0.8 1.2-0.9 0z" id="ME02" name="ME02 District"/>
      <path d="M885.5 234.1l0.3 1.2 0 0.3 0.1 0.2 1.7 6.3 1.5 5.1 2.4 8.8 1.8 6.2 4.9-0.9 0.7-0.1 5.6-1.3 0.1 0.9-0.1 2.1-0.2 0.4-0.4 3.1-0.1 2.1-0.5 1.7-6.5 2.2-0.3 0.7-0.1 0.2-1.1-0.2-1.2 0.4-0.7 1.1-0.9 0.6-0.2-0.9 0.5-0.1-0.6-0.8 0.3-1.1 0.3 0.2 0.6-0.9-1.4-0.2 0.4-1.1-0.9-0.4-0.8 0.8-0.5-0.2 0.1-1.2 0.9-0.6 0.4 0 0.7-0.8-1.3-0.1-0.6-0.3 0.2-1.6-0.5-0.3-0.3 1.3 0.1 0.5-0.7 0.2-0.7-0.9 0.7-0.4-0.3-0.9-0.6 0.2 0 0.7-0.5 0.7 0.6 0.5-0.1 0.9-1.6-1-0.9-0.2-0.5-0.9-0.7-0.3-0.5 0.4-0.6-0.3-0.2-0.7-1.2-1.3 0.5-0.6 0.6 0 0.2-0.7-1-0.8 0.3-0.5-0.3-0.5 0.7-0.3 0.6 0 0.4-0.5 1.3 0.8 0.5-0.2 0.8 0.4 0.1-0.5-1.2-0.8-0.4 0.2-1.3-1-0.7 0-0.6-0.6-0.3-1-0.3 0.9-0.4 0.1-0.4-0.4-0.5 0 0-0.6 0.3-0.6 0.1-0.8 0.4-0.5 0.6 0.6 0.8 0.2 0-0.7-0.4-0.5-0.5-2-1.1 0.3-0.4 0.5-0.6 0.4 0.4 1-0.5 0.5-0.4-2 0.4-1.4 0.4-0.7 0.5 0.8 1.3-0.1 0.5-0.7-0.4-0.7 0-0.6 0.3-0.9-0.7 0.1-0.3 0.7 0.3 1.4-0.6-0.4 0.1-0.4-0.2-0.8-0.5-1.1-0.6-0.2 0-0.4 0.2-0.9 0.2-1.4 0.6-1.1-0.2-0.4 1-1.5 0.8-0.2 0.7 0.1-0.3-0.9 0.7-0.9 0.1-0.7-0.6 0.1 0.1-2.2-0.5 0.1-1.6 0.8-0.2 1.2 1 0.1 0.3 0.6-0.5 0.2-0.8 1.1-0.2 0-0.5 1-0.5 0.5-0.5-0.5-0.4 0.2 0.5 0.7-0.4 0.6-0.5-0.8-0.2-0.7-0.8 0 0.3 0.8 0.1 0.5-0.6-0.4-0.5 0.5-1.1-1.3-1.2-0.4-0.7 0 0.1-1-0.6-0.2-0.1-0.4-0.7 0.3-0.3-1.8-0.9-0.6-0.6-1.2 0-0.4-0.6-0.6 3.1-0.6 6.5-1.4 1.9-0.4 3.1-0.7 0.9-0.2z m5 40.6l-0.5 0.1-0.4 0.1-0.2-0.8-0.1-1 0.6-0.2 0.6 0.6-0.1 0.5 0.1 0.7z m-2.7-4.3l0.5-1.1 0.6 0.4-1.1 0.7z" id="MD01" name="MD01 District"/>
      <path d="M870 237.4l0.6 0.6 0 0.4 0.6 1.2 0.9 0.6 0.3 1.8 0.7-0.3 0.1 0.4 0.6 0.2-0.1 1 0.7 0 1.2 0.4 1.1 1.3 0.5-0.5 0.6 0.4-0.1 0.5-0.5 0.8-0.2 0.9-0.4 0.1-0.4-0.7-1.2-0.4-0.3-0.4-0.2-1-1.4 0.3 0.1 0.6-0.4 0.5-0.3-0.6-0.6-0.3-1.2 0.4-0.7 0.4 1 0.5 0.2 1 0.5 0.7 0 0.4-1.3-0.5 0.2-0.8-0.4-0.3-1 0.1-0.7-0.7-1.9 0.2 0-1.4-1.3-0.3-0.3 1-1.2-0.4 0.2-1.5-0.5-0.3-0.8-0.8-0.7-0.5-0.2 0.2-0.8-0.5-0.8-0.1 0.3-0.8 0.1-0.5 0.4-0.4-0.2-0.4 0.3-0.6 3.9-0.8 5-1.1z" id="MD02" name="MD02 District"/>
      <path d="M863.8 245.5l1.2 0.4 0.3-1 1.3 0.3 0 1.4 1.9-0.2 0.7 0.7 1-0.1 0.4 0.3-0.2 0.8 1.3 0.5 0.9 0.1 0.3-0.3 0.5 0 0.3-0.3 0.6 0.5 0.7 0.1 0.2-0.3 0.3 0.7 1.8 0.7 0.4 1.2-0.1 0.6 0.6 0.3 0.3 0.4-1.3 1 0.2 0.6 0.5 0.2-0.2 0.8-0.7-0.1-0.8-0.5-0.9-0.1-0.3-0.4-0.7-0.4-0.4-0.7-0.1-0.6-1.4-1.1-1.1-0.4-0.1 0.5-0.8 0.8-0.9-0.4-1.1 0.2-0.3-0.3-0.7-0.4-0.4-0.9-1.2-0.8-1.2-0.1-0.3-0.6-0.9-0.8 0.3-0.9 0-1.1 0.1-0.3z" id="MD03" name="MD03 District"/>
      <path d="M868.4 259.6l0.5-0.8 0.1-0.1 0.1-0.2 1.1-1.6-1.2-0.8-0.8-0.6 0.1-0.6 0.5-1.5-0.3-0.2-0.3-1.2-0.7-0.4 0.6-0.2 0.3 0.3 1.1-0.2 0.9 0.4 0.2 0.7 0.6 0.1 0.9 0.4-0.5 1 0.7 1.1-1.2 0.2 0.3 1.7-0.4 1.2-0.4 0.5 0.7 1 0.1 0.6-0.6 0.5-1.1 0.6-1 0.1-0.3-1.9 0-0.1z" id="MD04" name="MD04 District"/>
      <path d="M867.5 263.5l-0.2-0.9 0.7-0.9 0.7-0.4-0.3-1.6 0.3 1.9 1-0.1 1.1-0.6 0.6-0.5-0.1-0.6-0.7-1 0.4-0.5 0.4-1.2-0.3-1.7 1.2-0.2-0.7-1.1 0.5-1-0.9-0.4-0.6-0.1-0.2-0.7 0.8-0.8 0.1-0.5 1.1 0.4 1.4 1.1 0.1 0.6 0.4 0.7 0.7 0.4 0.3 0.4 0.9 0.1 0.8 0.5 0.4 0.8-0.2 0.8 0.5 0.2 0 0.6-0.6 1-0.3 0.3 0.1 0.5 0.7 0.3 0.1 1.1 0.7 1.3 0.3 2 0.6 0.9 2.4 1.8 0 0.6-0.4 1-0.8 0 0.3 0.8 0.5-0.1 0.5-0.5 0.4 0.1-0.2 1 0.4 0.9 1.5 1.6-0.2 0.5 0.6 1.5-0.5 0-1-1-0.5 0.1-0.4-0.6-0.7 0.6-0.4-0.5-0.8-0.2-0.4-0.7-0.7-0.5-2.7-0.2-0.2 0.6-1.1-0.5 0-0.5-0.6-0.5-0.1 1.1-1.2-0.5-0.3 0-0.3-0.7-0.7-0.3-0.4-0.4-0.2-0.7-0.7-1.1-0.5 0.2-0.7 1-0.5 0-0.2 0.5-1.1 0.9-0.8-0.3-0.4-0.7 0-0.4-0.5-1.1 0.1-0.7 0.2-1 0.3-0.1 0.7-1.4 0.3 0 0.2-0.7z" id="MD05" name="MD05 District"/>
      <path d="M854.3 250l-0.7-0.2 0.1-0.4-0.3-0.6 0.3-0.3-0.5-0.7-0.6 0-0.3-0.6-0.1-0.8-0.5 0.1-0.7-0.4-0.5-1.1 0.7-0.2-0.2-0.9-0.9 0 0 0.4-1.2 0-0.8 0.3-0.7-0.7-1.3-0.8-1.2-0.1-1.2 1.5-0.1 0.6-1.7-0.2-0.1 0.7-1-0.2 0.6 0.7-0.1 0.3-0.7-0.1 0 0.4 0.7 0.4-0.8 0.9-1 0-0.7 0.3-1-0.3-0.6 0.2-1.3-0.4-1.4-0.9-0.4 0.6-0.1 0.6-1.1 2-0.3 0.1-0.2 1.1-1.8-0.4-0.6 0.1-0.1 0.5-1.6 2.3-0.7 0.4 0.1 0.4-1.4 1.3-1.1 1.4-0.2 0.6-0.8 0.3-0.2-1.3-0.3-1.8-0.7-4.3 0.1 0-0.8-4.3 4.4-0.8 3-0.5 7.3-1.3 4.8-0.9 4.2-0.8 3.8-0.8 6.4-1.2 4.9-0.9-0.3 0.6 0.2 0.4-0.4 0.4-0.1 0.5-0.3 0.8 0.8 0.1 0.8 0.5 0.2-0.2 0.7 0.5 0.8 0.8 0.5 0.3-0.2 1.5-0.1 0.3 0 1.1-0.3 0.9 0.9 0.8-0.5 0.3 0.3 0.7-0.5 1 0.1 0.9 0.5 0.3 0.4 0.7-0.6 0.7-1-0.1-0.8-0.5-0.5 0.3 0.2 1.6-0.7 0.2-1.4 0-0.5-0.7-0.7-0.1-0.3-0.6 0.2-0.9 0.5-0.2 0.2-0.9-0.6-0.4-1-0.3-0.7-0.8-0.3 0.2-1 0-0.6-0.2-0.7 0.2z" id="MD06" name="MD06 District"/>
      <path d="M871.7 248.6l0-0.4-0.5-0.7-0.2-1-1-0.5 0.7-0.4 1.2-0.4 0.6 0.3 0.3 0.6 0.4-0.5-0.1-0.6 1.4-0.3 0.2 1 0.3 0.4 1.2 0.4 0.4 0.7 0.5 0.6-0.2 0.4-1 0.2-0.2-0.5-0.6-0.2-0.5 0.5 0.6 0.2-0.2 0.3-0.7-0.1-0.6-0.5-0.3 0.3-0.5 0-0.3 0.3-0.9-0.1z" id="MD07" name="MD07 District"/>
      <path d="M869 256.1l-1.6-1.1 0 0.1-0.4 0.6-0.5 0.7-0.2 0.3-0.6-0.6-0.5 0-0.8 0.1-0.7-0.6 0.1-0.5-1.6-0.5-0.3-0.1-0.2-1.6 0.5-0.3 0.8 0.5 1 0.1 0.6-0.7-0.4-0.7-0.5-0.3-0.1-0.9 0.5-1-0.3-0.7 0.5-0.3 0.3 0.6 1.2 0.1 1.2 0.8 0.4 0.9 0.7 0.4-0.6 0.2 0.7 0.4 0.3 1.2 0.3 0.2-0.5 1.5-0.1 0.6 0.8 0.6z" id="MD08" name="MD08 District"/>
      <path d="M912.1 173.1l-0.5-0.7 0.2-9.7 0.2-6 2-0.4 0.6-0.2 3.9-0.8 0.7 2 0.6 0.1 0.6-0.7 0.3 0.6-1 0.6 0 1.3-0.4 0.2 0.5 1.6 0.3 0 0.3 1-0.9 0.3 0.9 2 1-0.3 0.6 1.8 1.2-0.5-0.1-0.4 1-0.4 0.7 0 0.6-0.6 0.7-0.3 0.9-0.1 0.4-0.3-0.4-0.9 1-0.4 0.2 0.5 1.4-0.5 0.5-0.4 0.4 1.1 1-0.5 0.4 0.1 0.3-1 0.4-0.6 1.7 0.9 1.2-0.4 1.2 2.6 0.7-0.3 0.7 0.6 0.6 0 0.6 1.2-1.1 0.8 0.1 0.4 0.8 0.6-3.7 0.9-1.2 0.2-6.4 1.5-0.6 0.3-2.1 0.4-0.9 0.2-0.2 0.8-0.6 0.3-0.2-0.9-2.7 0.7-2.5 0.5-4.9 1-1 0.2z" id="MA01" name="MA01 District"/>
      <path d="M943.4 166.1l-0.3 0.1-3.1 0.9-0.1-0.3-0.8 0.2-0.8-0.6-0.1-0.4 1.1-0.8-0.6-1.2-0.6 0-0.7-0.6-0.7 0.3-1.2-2.6-1.2 0.4-1.7-0.9-0.4 0.6-0.3 1-0.4-0.1-1 0.5-0.4-1.1-0.5 0.4-1.4 0.5-0.2-0.5-1 0.4 0.4 0.9-0.4 0.3-0.9 0.1-0.7 0.3-0.6 0.6-0.7 0-1 0.4 0.1 0.4-1.2 0.5-0.6-1.8-1 0.3-0.9-2 0.9-0.3-0.3-1-0.3 0-0.5-1.6 0.4-0.2 0-1.3 1-0.6-0.3-0.6-0.6 0.7-0.6-0.1-0.7-2 6.6-1.4 1.9-0.4 3.8-0.8 0.5 2 0.6-0.1 0.9 0.5 0.3 0.6 1.5 0.9 0.6-0.7 0.7 0.4 0.5-0.2-0.2-0.8 0.9-0.3 0.5-0.7 0.8 0.7 0.2 1.4 0.4 1.4 0.9 0.4 0 0.5 0.7-0.1 1.1 0.9 0.5-0.5 1-0.4 0.1 1 1.4 0.4 0.4 0.8 0.6 0.2-0.2 0.6 0.6 0.9-0.7 0.1-0.9 0.4-0.2-0.7-0.6-0.4-0.8 0.4 0.1 0.5-0.3 0.9 0.7 2.4z" id="MA02" name="MA02 District"/>
      <path d="M945.7 148l-0.3-0.9 0.2-0.5 0.4-0.4 1.2 0.1 0-0.7 1.1 0.3-0.5 2-1 0.1-0.2 0.5 0.2 0.8-0.7 0.4-0.2-0.5-0.5 0-0.2 1-0.5 0.3 0.2 0.8-0.3 0.2 1.4 0.5-0.5 0.7-0.1 0.7-0.5 0.6 0.1 0.6 0.6 0.2-0.3 0.3-0.6 1.2-1.8-0.4-0.2 0.3 0.4 0.8 0.1 1.6-1 0.4-0.5 0.5-1.1-0.9-0.7 0.1 0-0.5-0.9-0.4-0.4-1.4-0.2-1.4-0.8-0.7-0.5 0.7-0.9 0.3 0.2 0.8-0.5 0.2-0.7-0.4-0.6 0.7-1.5-0.9-0.3-0.6-0.9-0.5-0.6 0.1-0.5-2 2.2-0.5 4.6-1 6.6-1.5 0.5-1.3 1-0.4z" id="MA03" name="MA03 District"/>
      <path d="M953.2 173.3l-0.3-1.3-1.1-0.1-0.7-0.7-0.8-0.7-1.3-0.3-0.5-0.9-0.1-0.9-0.2-0.8-0.7 0.3-0.7-2.8-3.4 1-0.7-2.4 0.3-0.9-0.1-0.5 0.8-0.4 0.6 0.4 0.2 0.7 0.9-0.4 0.7-0.1-0.6-0.9 0.2-0.6-0.6-0.2-0.4-0.8 0.4-0.5 1.1 0.3 0.5-0.1-0.3-0.6 0.5-0.6-0.2-1.4 0.7-0.4 0.8-0.1 0.4 0.6 0.4-0.6 0.2 0.6-0.6 0.6-0.3 0.9-0.5 0.3 0 1.5-0.3 0.1 0.2 1.2-0.4 0.1 0.3 0.7 0.5 0.3 0.5-0.4 0-0.7 0.7-0.6 0.5 0.2 0.5 0.8 0.1 0.6-0.4 0.4 0.5 1.3 1.5-0.1 0.2 0.9 1.4 0.4 0.5 0.2 1 0.3 0.2 0.6 0.5 0.4 0.2 0.8-0.4 0.1 0.4 0.6-2.1 2.4-0.8 0.1 0.1 2.1z" id="MA04" name="MA04 District"/>
      <path d="M944.7 160l-1.4-0.4-0.1-1-0.1-1.6-0.4-0.8 0.2-0.3 1.8 0.4 0.6-1.2 0.3-0.3 0.3 0 0.4-0.8 0.6 0.4 0.5-0.6-0.1-0.6 0.4-0.5 0.5 0.6 0.4-0.2 0.8 0.4 0.6 0.6 0.6 0.2 0-0.1 0.6 1 0.3 0.6-0.6-0.4-0.4-0.3 0-0.1-0.8-0.3-0.2 0.5-0.3 0.2 0 0.6-1 0.6-0.8 0.1-0.7 0.4 0.2 1.4-0.5 0.6 0.3 0.6-0.5 0.1-1.1-0.3-0.4 0.5z" id="MA05" name="MA05 District"/>
      <path d="M945.6 154.8l-0.6-0.2-0.1-0.6 0.5-0.6 0.1-0.7 0.5-0.7-1.4-0.5 0.3-0.2-0.2-0.8 0.5-0.3 0.2-1 0.5 0 0.2 0.5 0.7-0.4-0.2-0.8 0.2-0.5 1-0.1 0.5-2-1.1-0.3 0.3-0.7 0.9-0.5 0.5-0.5 0.8-0.1 0.7 0.3 0.4-0.4 0.4 1.1-0.1 0.6 0.3 0.3-0.1 0.5 0.4 0.7 0.6 0.6 0.5 0.1 0.1 0.6 0.6 0.1 0.2-0.4 1 1.1-0.2 0.7-0.5 0.1-2 1.3-0.2 0.7 0.6-0.1 0.4 0.3-0.6 0.7-0.1 0.5-0.5 0-1 1.1-0.6-0.2-0.6-0.6-0.8-0.4-0.4 0.2-0.5-0.6-0.4 0.5 0.1 0.6-0.5 0.6-0.6-0.4-0.4 0.8-0.3 0z m9.5-7.7l0.6 0.9-0.7 0.9-0.7-0.4 0.2-1.1 0.6-0.3z m-3.5-1.4l0.9 1.4-0.5-0.1-0.5-1 0.1-0.3z" id="MA06" name="MA06 District"/>
      <path d="M949.2 157.2l-0.2-0.6-0.4 0.6-0.4-0.6 1-0.6 0-0.6 0.6 0.6-0.2 0.2-0.3 0.3 0.1 0 0.2-0.1 0.5-0.2 0 0.2 0.3 0.8-0.1 0.8-0.3 0.6 0.1 0.4 1.6 0.8-0.1 1.2-1.6-1.4-1-0.8 0.4-1-0.2-0.6z m1.3-2.1l0.4 0.3-0.1 0.1 0.1 0.3-0.7 0.1 0.3-0.8z m-1 0.1l0.2-0.5 0.8 0.3-0.1 0.4-0.8 0.1-0.1-0.3z" id="MA07" name="MA07 District"/>
      <path d="M952 164.4l-1.5 0.1-0.5-1.3 0.4-0.4-0.1-0.6-0.5-0.8-0.5-0.2-0.7 0.6 0 0.7-0.5 0.4-0.5-0.3-0.3-0.7 0.4-0.1-0.2-1.2 0.3-0.1 0-1.5 0.5-0.3 0.3-0.9 0.6-0.6 0.2 0.6-0.4 1 1 0.8 1.6 1.4 0.1-1.2-1.6-0.8-0.1-0.4 0.3-0.6 0.1-0.8-0.3-0.8 0.6 1 0.9 0.5 0.6 0.3 1.9-0.8-0.1 0.5 0.7 0.7-1.5 1.6 0.8 1.4 0.6 1.3-0.3 0.4-0.9 0.3-1.1 0.9-0.3-0.1z m-1.9-8.2l-0.5 0.2 0.1-0.4 0.3-0.1 0.1 0.3z" id="MA08" name="MA08 District"/>
      <path d="M954.1 175.5l-0.7-2-0.2-0.2-0.1-2.1 0.8-0.1 2.1-2.4-0.4-0.6 0.4-0.1-0.2-0.8-0.5-0.4-0.2-0.6-1-0.3-0.5-0.2-1.4-0.4-0.2-0.9 0.3 0.1 1.1-0.9 0.9-0.3 0.3-0.4-0.6-1.3-0.8-1.4 1.5-1.6-0.7-0.7 0.1-0.5 0.2-0.2 1 0.1 1.2 1 0.4 0.6 1 1.1 0.5 0.3 0.2 0.8-0.3 0.3 0.1 0.7-0.7 0.3 1.2 0.9 0.8 0.2 0.5-0.4 0.8 0.4 0.7 1.4 0 1 0.5 0.4 0.2 0.4-0.5 0.1-0.2 0.1-0.1 0.2-0.1 0.2-0.2 0.3-0.9 0.5-0.4 0.4-0.9 0.2 0.4 0.5-0.5 0.5 0 0.9-1 0 0.6 0.5-0.9 0.5-1.2-0.2 0.3 0.5 0 1.9-0.6 0.3 0.1 0.6-0.6 0.1-0.2 0.4-0.6-0.4-0.6 0.1-0.2 0.6z m20.5 0l-0.1 0.4-0.6 0.4-0.7 0.1-1.1 0.3-1.6-0.3 0-0.5 1.5-0.4 0.4 0.3 0.3-0.5 0.7-0.4 0.1-0.8 1 1.1 0.1 0.3z m-11.7-1.7l0.5-0.1 0.6 1.1 1.2 0.5 0.7-0.2-0.1 0.8-1.9 0.5-1.8 0.6-0.8 0.5-0.3 0.9-0.5-0.2-0.9-0.6 0.4-0.3 0.6 0 0.8-1.6 0-0.6 0.4-0.3 0.1-0.5 1-0.5z m6.8-9.1l0.8-0.9-0.1-0.6-0.5-1.6-0.8-0.5-0.4 0.5-0.8-2.1-0.6-0.6-0.6-0.2-0.5 0.2-0.4 0.7-0.7-0.8 0.7-0.4 1.3 0 1.1 0.3 0.5 0.4 1.2 1.3 1.3 2.1-0.2 0.5 0.7 0.5 0.1 0.8-0.6 0.9 0.1 0.5 0.8 0 0.2 0.6-0.1 0.6-1-0.2-2.4 1.1-0.9 0.7-0.8-0.1-0.6 0.7-0.6 0-1.2 0.6-0.1 0.7-0.4 1.1-2.7 1.1 0-0.8-0.4-1.7 0.3-0.7-0.4-0.4 0-1.2 0.4-0.2 0.1-0.3 0.1-0.3 0.3-0.2 0.5 0 0.3-0.2 0.5 0.2 1.6 0.2-0.2 0.3 1 0.2 0.3-0.2 1.2-0.3 0.4-1 2.2-1.3z" id="MA09" name="MA09 District"/>
    </g>
  </g>
</svg>