<?xml version="1.0" encoding="utf-8"?>
<svg xmlns="http://www.w3.org/2000/svg" enable_background="new 0 0 1000 589" height="589px" pretty_print="False" style="stroke-linejoin: round; stroke:#000; fill: none;" version="1.1" viewBox="0 0 1000 589" width="1000px" id="svg">
  <defs id="defs4">
    <style type="text/css" id="style6">path { fill-rule: evenodd; }</style>
  </defs>
  <path id="PA" data-name="Montana" data-id="MT" d="M 400.496 70.292 L 400.399 74.174 L 399.137 97.858 L 397.584 128.336 L 397.39 132.218 L 397.293 134.451 L 396.905 143.283 L 396.613 149.981 L 396.516 151.34 L 396.225 151.34 L 396.128 153.863 L 395.157 174.246 L 394.381 189.388 L 394.284 192.009 L 394.187 194.533 L 393.799 202.104 L 392.925 219.866 L 392.44 230.058 L 392.343 232.581 L 394.672 232.678 L 418.356 233.552 L 423.015 233.746 L 422.626 252.771 L 422.529 254.032 L 422.529 255.877 L 422.432 261.603 L 421.364 312.95 L 421.364 314.891 L 419.811 314.891 L 413.696 314.697 L 411.755 314.6 L 407.679 314.503 L 405.737 314.406 L 405.64 316.929 L 405.446 321.977 L 405.349 324.597 L 404.67 324.5 L 401.37 415.545 L 382.151 414.672 L 351.382 412.925 L 339.055 412.051 L 341.482 416.807 L 341.288 416.807 L 314.11 414.381 L 311.683 416.322 L 310.421 423.116 L 297.027 421.854 L 296.638 421.757 L 296.25 421.757 L 261.696 417.487 L 220.929 395.842 L 207.728 388.465 L 200.74 384.097 L 202.778 380.311 L 163.079 376.429 L 160.071 372.449 L 160.459 364.102 L 155.023 355.075 L 149.199 348.184 L 145.317 346.339 L 143.376 341.001 L 138.717 340.127 L 134.446 337.701 L 132.893 334.595 L 128.428 329.839 L 113.868 324.597 L 112.801 323.044 L 113.48 310.135 L 111.345 308.97 L 104.55 290.334 L 100.668 284.316 L 100.086 278.395 L 103.677 273.736 L 98.241 267.039 L 96.882 256.653 L 97.368 251.412 L 99.018 255.197 L 101.93 258.012 L 100.862 251.8 L 100.959 246.85 L 103.633 246.355 L 100.959 244.229 L 97.465 250.053 L 91.447 244.326 L 91.641 234.911 L 89.117 231.611 L 85.138 222.972 L 86.303 220.351 L 85.914 214.042 L 88.244 207.733 L 86.594 199.968 L 83.294 194.047 L 83.488 189.777 L 90.282 181.332 L 94.359 169.976 L 95.232 160.366 L 95.232 159.881 L 93.971 154.057 L 96.106 147.651 L 96.785 140.468 L 100.28 133.674 L 101.639 132.703 L 105.424 126.977 L 111.054 113.582 L 112.121 113.485 L 113.868 105.429 L 119.886 90.772 L 121.245 88.443 L 123.284 80.095 L 125.225 81.066 L 128.137 80.192 L 132.99 82.716 L 133.669 82.231 L 133.958 82.134 L 132.213 82.134 L 130.757 79.319 L 127.846 77.572 L 125.419 77.766 L 123.187 75.048 L 124.837 69.418 L 125.71 74.271 L 127.554 68.059 L 125.225 66.895 L 129.593 63.789 L 125.225 63.4 L 126.001 61.168 L 127.069 46.706 L 125.419 42.241 L 125.613 39.717 L 127.749 33.796 L 135.611 39.911 L 144.54 43.794 L 146.191 42.92 L 147.549 45.25 L 150.267 45.929 L 151.169 50.525 L 151.723 49.812 L 152.597 50.685 L 149.976 56.509 L 148.714 56.315 L 149.297 61.168 L 147.355 60.78 L 144.929 63.4 L 145.996 59.615 L 144.388 61.699 L 144.54 61.75 L 143.958 63.692 L 143.958 62.256 L 141.726 65.148 L 144.055 63.983 L 145.769 65.08 L 145.705 64.371 L 146.385 64.468 L 145.949 65.195 L 146.482 65.536 L 152.208 61.556 L 152.208 57.868 L 153.47 54.276 L 156.188 50.394 L 154.231 41.286 L 152.014 43.502 L 153.761 40.785 L 154.132 40.826 L 153.664 38.649 L 156.285 40.008 L 157.741 37.29 L 156.188 28.846 L 162.885 30.496 L 185.307 36.708 L 205.108 41.755 L 227.821 47.094 L 229.374 47.385 L 230.635 47.676 L 233.45 48.356 L 242.089 50.103 L 242.186 50.103 L 244.904 50.685 L 270.723 55.635 L 282.273 57.577 L 305.374 61.168 L 319.836 63.109 L 343.132 65.827 L 366.524 68.059 L 398.652 70.195 L 400.496 70.292 Z M 359.341 517.753 L 359.438 520.471 L 364.68 524.936 L 359.341 529.497 L 354.488 530.759 L 350.508 533.671 L 348.276 537.263 L 344.685 534.933 L 343.811 527.653 L 340.705 520.568 L 344.296 516.103 L 343.714 510.667 L 346.335 509.988 L 349.344 512.22 L 359.341 517.753 Z M 328.863 504.941 L 330.222 503.096 L 331.678 504.358 L 328.863 504.941 Z M 322.942 496.302 L 324.787 496.593 L 324.398 500.184 L 322.942 496.302 Z M 336.434 495.817 L 342.064 500.476 L 336.046 503.29 L 333.328 502.126 L 332.552 498.923 L 330.028 498.728 L 328.863 495.04 L 330.513 494.264 L 336.434 495.817 Z M 323.234 490.575 L 325.272 493.778 L 321.389 492.808 L 317.216 492.905 L 318.089 490.284 L 323.234 490.575 Z M 309.062 485.625 L 309.548 487.954 L 304.015 486.79 L 302.074 488.828 L 299.356 483.781 L 303.627 480.481 L 305.859 482.616 L 309.062 485.625 Z M 262.375 478.345 L 262.957 476.986 L 264.608 476.113 L 262.375 478.345 Z M 279.555 471.454 L 276.837 476.792 L 273.052 475.822 L 270.334 473.88 L 271.014 472.036 L 277.808 469.512 L 279.555 471.454 Z M 230.538 451.556 L 230.733 451.556 L 230.733 451.653 L 230.538 451.556 Z M 179.386 439.132 L 179.289 439.132 L 179.289 438.938 L 179.386 439.132 Z M 150.17 431.658 L 150.17 431.561 L 150.364 431.561 L 150.17 431.658 Z M 120.372 406.227 L 120.372 406.13 L 120.469 406.421 L 120.372 406.227 Z M 53.883 385.553 L 53.689 385.456 L 53.981 385.165 L 53.883 385.553 Z M -55.604 317.706 L -55.604 317.9 L -55.895 317.997 L -55.604 317.706 Z M 149.297 61.459 L 150.947 58.935 L 151.044 60.877 L 149.297 61.459 Z M 151.335 54.373 L 151.529 54.859 L 151.238 56.8 L 151.335 54.373 Z M 151.044 46.123 L 151.432 46.22 L 151.529 47.288 L 151.044 46.123 Z M 152.791 37.582 L 152.694 37.873 L 152.208 38.261 L 152.791 37.582 Z M 150.558 38.261 L 151.432 36.611 L 151.723 38.552 L 150.558 38.261 Z M 151.044 36.417 L 150.364 35.446 L 151.238 35.834 L 151.044 36.417 Z M 153.859 36.708 L 154.15 36.223 L 154.15 37.485 L 153.859 36.708 Z M 154.538 35.931 L 154.635 35.931 L 155.023 36.223 L 154.538 35.931 Z M 148.811 33.602 L 149.005 33.699 L 149.491 34.087 L 148.811 33.602 Z M 151.141 34.573 L 150.461 34.378 L 153.082 33.699 L 151.141 34.573 Z M 150.364 33.02 L 150.461 32.923 L 150.947 33.505 L 150.364 33.02 Z M 153.082 32.534 L 152.597 32.34 L 152.985 32.34 L 153.082 32.534 Z M 150.81 50.986 L 148.52 51.559 L 146.093 54.276 L 148.326 54.179 L 150.81 50.986 Z M 139.008 360.996 L 139.396 363.131 L 139.396 363.52 L 139.008 360.996 Z M 125.807 354.007 L 125.419 354.104 L 124.74 352.648 L 125.807 354.007 Z M 143.764 356.143 L 142.017 354.881 L 141.726 352.357 L 143.764 356.143 Z M 129.787 338.671 L 128.913 338.283 L 129.981 338.574 L 129.787 338.671 Z M 117.266 337.895 L 116.586 337.215 L 119.207 335.662 L 117.266 337.895 Z M 114.839 334.789 L 113.966 334.595 L 114.16 333.818 L 114.839 334.789 Z M 127.749 337.507 L 126.972 338.186 L 122.701 335.759 L 127.749 337.507 Z M 99.891 250.829 L 99.891 250.441 L 99.988 250.732 L 99.891 250.829 Z M 130.369 80.095 L 130.466 79.416 L 130.757 80.289 L 130.369 80.095 Z M 34.18 540.466 L 33.791 540.369 L 34.277 540.174 L 34.18 540.466 Z M 36.315 539.301 L 36.121 539.398 L 36.121 539.107 L 36.315 539.301 Z M 36.994 539.495 L 37.092 539.398 L 37.092 539.592 L 36.994 539.495 Z M 36.703 539.301 L 36.897 539.301 L 36.897 539.398 L 36.703 539.301 Z M -38.715 478.248 L -38.909 476.307 L -38.812 475.627 L -38.715 478.248 Z M -39.103 473.589 L -39.2 473.88 L -39.297 473.007 L -39.103 473.589 Z M 36.606 537.845 L 36.995 537.651 L 36.897 538.233 L 36.606 537.845 Z M 48.06 543.28 L 47.866 542.892 L 47.963 542.989 L 48.06 543.28 Z M 39.712 540.951 L 39.712 538.621 L 40.78 539.592 L 39.712 540.951 Z M 41.459 540.951 L 43.109 541.048 L 43.207 541.727 L 41.459 540.951 Z M 49.127 543.28 L 48.933 543.28 L 49.03 543.086 L 49.127 543.28 Z M 49.613 543.28 L 49.224 543.183 L 49.419 543.183 L 49.613 543.28 Z M -34.444 477.763 L -34.735 477.86 L -35.123 477.763 L -34.444 477.763 Z M 47.963 542.407 L 47.671 542.116 L 48.448 542.213 L 47.963 542.407 Z M -41.821 469.901 L -41.724 469.61 L -40.365 470.192 L -41.821 469.901 Z M 50.68 542.407 L 50.68 542.31 L 50.875 542.407 L 50.68 542.407 Z M 52.136 544.251 L 53.01 543.863 L 56.795 543.572 L 52.136 544.251 Z M -48.13 455.244 L -48.324 454.953 L -47.256 454.953 L -48.13 455.244 Z M 68.346 547.648 L 68.54 547.648 L 68.54 548.037 L 68.346 547.648 Z M 73.587 547.745 L 73.781 547.94 L 73.587 548.134 L 73.587 547.745 Z M 77.47 549.104 L 77.567 549.104 L 77.373 549.201 L 77.47 549.104 Z M 73.976 547.066 L 74.17 547.066 L 74.267 547.454 L 73.976 547.066 Z M 80.77 549.007 L 80.673 549.007 L 80.77 548.91 L 80.77 549.007 Z M -46.286 451.847 L -48.13 450.197 L -46.674 450.003 L -46.286 451.847 Z M 75.723 546.872 L 75.82 546.872 L 75.626 547.454 L 75.723 546.872 Z M 91.932 545.707 L 92.126 545.804 L 92.029 545.998 L 91.932 545.707 Z M 91.447 545.707 L 88.632 547.94 L 86.206 548.134 L 89.603 545.125 L 91.447 545.707 Z M 95.524 546.387 L 95.038 545.998 L 95.718 546.192 L 95.524 546.387 Z M 97.077 546.29 L 95.815 546.095 L 96.009 545.998 L 97.077 546.289 L 97.077 546.29 Z M 94.165 545.416 L 92.321 544.931 L 93.388 544.931 L 94.165 545.416 Z M 97.368 545.804 L 97.756 545.707 L 97.853 545.901 L 97.368 545.804 Z M 94.553 545.61 L 94.553 544.542 L 94.941 544.736 L 94.553 545.61 Z M 107.074 547.066 L 107.268 547.066 L 107.365 547.163 L 107.074 547.066 Z M 107.365 546.872 L 107.559 546.969 L 107.559 547.066 L 107.365 546.872 Z M 106.103 546.775 L 106.103 546.872 L 105.909 546.484 L 106.103 546.775 Z M 106.977 546.969 L 105.909 546.192 L 106.783 546.484 L 106.977 546.969 Z M 119.304 546.581 L 119.401 546.581 L 119.595 546.969 L 119.304 546.581 Z M 223.938 540.466 L 223.841 540.272 L 224.035 540.466 L 223.938 540.466 Z M 106.298 543.475 L 106.395 543.378 L 106.395 543.475 L 106.298 543.475 Z M 227.335 539.107 L 227.141 539.107 L 226.85 538.719 L 227.335 539.107 Z M 120.663 546.387 L 120.663 546.095 L 120.76 545.998 L 120.663 546.387 Z M 108.821 543.475 L 108.918 543.475 L 108.724 544.251 L 108.821 543.475 Z M 232.383 537.36 L 231.606 536.971 L 232.48 536.486 L 232.383 537.36 Z M 98.63 544.931 L 100.765 542.116 L 103.192 541.63 L 98.63 544.931 Z M 120.566 545.707 L 119.983 545.804 L 120.566 545.319 L 120.566 545.707 Z M 232.188 535.807 L 232.286 535.613 L 232.48 536.001 L 232.188 535.807 Z M 111.248 543.378 L 110.568 542.698 L 111.248 542.795 L 111.248 543.378 Z M 226.073 538.136 L 225.879 537.457 L 226.073 537.263 L 226.073 538.136 Z M 112.898 543.086 L 112.51 542.795 L 112.801 542.698 L 112.898 543.086 Z M 119.983 544.736 L 119.692 544.736 L 119.498 544.542 L 119.983 544.736 Z M 111.733 542.698 L 111.539 542.407 L 112.024 542.698 L 111.733 542.698 Z M 117.072 545.61 L 117.654 544.057 L 118.528 543.766 L 117.072 545.61 Z M 224.326 537.166 L 223.938 537.651 L 223.938 536.971 L 224.326 537.166 Z M 107.754 540.466 L 107.851 540.466 L 107.074 540.66 L 107.754 540.466 Z M 105.909 539.98 L 105.909 539.883 L 106.103 540.077 L 105.909 539.98 Z M 223.647 536.486 L 223.744 536.195 L 223.938 536.292 L 223.647 536.486 Z M 117.072 542.31 L 117.266 542.019 L 117.46 542.116 L 117.072 542.31 Z M 222.967 536.486 L 222.968 536.483 L 222.968 536.486 L 222.967 536.486 Z M 222.968 536.483 L 222.87 535.904 L 223.065 536.001 L 222.968 536.483 Z M 222.385 536.486 L 221.9 536.389 L 222.191 536.001 L 222.385 536.486 Z M 121.536 540.757 L 121.245 540.563 L 121.342 540.563 L 121.537 540.757 L 121.536 540.757 Z M 222.967 534.157 L 222.676 534.545 L 221.9 534.254 L 222.967 534.157 Z M 222.781 533.763 L 221.844 532.341 L 221.318 533.769 L 221.124 532.799 L 221.74 532.183 L 220.93 530.954 L 222.58 530.663 L 228.598 535.808 L 230.054 539.205 L 223.745 535.225 L 222.793 533.78 L 222.774 533.769 L 222.781 533.763 Z M 220.444 533.962 L 220.638 533.768 L 220.832 534.157 L 220.444 533.962 Z M 230.538 533.38 L 229.277 534.157 L 230.538 530.565 L 230.538 533.38 Z M 131.534 539.495 L 131.631 539.301 L 131.631 539.689 L 131.534 539.495 Z M 127.457 537.942 L 127.651 537.845 L 127.749 538.136 L 127.457 537.942 Z M 224.52 530.274 L 223.841 530.759 L 224.229 529.303 L 224.52 530.274 Z M 227.044 530.565 L 226.171 530.274 L 226.268 529.303 L 227.044 530.565 Z M 129.884 536.971 L 130.369 536.777 L 130.855 536.874 L 129.884 536.971 Z M 140.852 537.651 L 140.464 538.33 L 140.658 537.748 L 140.852 537.651 Z M 141.92 538.427 L 141.434 537.845 L 142.308 537.748 L 141.92 538.427 Z M 84.264 525.615 L 84.458 525.809 L 83.488 525.324 L 84.264 525.615 Z M 224.132 528.624 L 223.162 529.206 L 222.676 527.362 L 224.132 528.624 Z M 219.959 531.633 L 218.988 532.604 L 218.503 528.139 L 219.959 531.633 Z M 220.929 527.75 L 221.22 529.789 L 218.988 526.683 L 220.929 527.75 Z M 212.291 528.042 L 211.514 529.303 L 212.096 527.459 L 212.291 528.042 Z M 143.57 532.263 L 144.346 531.245 L 146.87 529.595 L 149.976 531.633 L 142.793 536.971 L 141.24 535.321 L 143.555 532.283 L 143.473 532.118 L 143.57 532.263 Z M 215.591 528.042 L 216.173 532.409 L 212.291 526.003 L 215.591 528.042 Z M 149.297 529.886 L 148.811 529.692 L 149.102 529.4 L 149.297 529.886 Z M 147.549 529.303 L 147.938 529.303 L 147.841 529.595 L 147.549 529.303 Z M 207.437 523.48 L 207.437 522.897 L 208.117 523.286 L 207.437 523.48 Z M 147.064 529.206 L 146.385 528.818 L 146.288 528.43 L 147.064 529.206 Z M 209.864 522.994 L 208.02 522.412 L 209.961 521.441 L 209.864 522.994 Z M 208.408 521.441 L 208.505 521.247 L 208.699 521.441 L 208.408 521.441 Z M 214.099 520.044 L 215.494 520.277 L 216.561 525.615 L 212.582 519.791 L 213.716 519.98 L 213.844 519.597 L 214.62 519.888 L 214.099 520.044 Z M 209.767 520.665 L 209.767 520.471 L 210.446 520.568 L 209.767 520.665 Z M 150.364 526.683 L 147.258 529.012 L 146.191 527.847 L 148.52 526.1 L 150.364 526.683 Z M 122.022 522.412 L 122.022 522.315 L 122.119 522.412 L 122.022 522.412 Z M 120.954 521.635 L 120.954 521.441 L 121.051 521.927 L 120.954 521.635 Z M 150.85 523.189 L 150.655 523.383 L 150.655 523.286 L 150.85 523.188 L 150.85 523.189 Z M 149.588 523.286 L 149.782 522.994 L 149.879 522.994 L 149.588 523.286 Z M 151.917 522.121 L 151.917 522.024 L 152.208 522.218 L 151.917 522.121 Z M 152.694 522.024 L 152.694 521.927 L 152.985 522.121 L 152.694 522.024 Z M 151.335 521.927 L 151.335 521.83 L 151.723 521.83 L 151.335 521.927 Z M 170.942 519.791 L 171.136 519.597 L 171.039 519.888 L 170.942 519.791 Z M 177.736 515.617 L 178.124 515.326 L 176.96 516.782 L 177.736 515.617 Z M 165.603 515.909 L 165.506 516.297 L 165.118 516.588 L 165.603 515.909 Z M 165.409 515.617 L 164.73 515.812 L 165.118 515.52 L 165.409 515.617 Z M 149.005 515.132 L 149.102 515.132 L 149.199 515.52 L 149.005 515.132 Z M 164.147 516.2 L 164.341 515.812 L 164.73 515.423 L 164.147 516.2 Z M 175.698 514.259 L 175.698 514.161 L 175.892 514.259 L 175.698 514.259 Z M 174.824 514.161 L 174.824 514.259 L 174.727 514.161 L 174.824 514.161 Z M 166.671 514.744 L 167.156 514.356 L 166.768 514.744 L 166.671 514.744 Z M 168.612 514.161 L 165.603 517.656 L 167.933 513.87 L 168.612 514.161 Z M 164.619 514.203 L 164.244 515.326 L 153.956 521.538 L 151.82 521.732 L 151.626 518.238 L 153.276 511.735 L 159.391 509.988 L 157.838 508.92 L 152.791 509.891 L 146.191 517.753 L 143.667 521.926 L 145.608 524.256 L 138.134 530.177 L 137.455 529.788 L 128.913 535.709 L 124.837 539.786 L 124.545 538.427 L 114.16 541.824 L 112.995 540.077 L 104.939 542.407 L 110.083 539.009 L 113.674 538.136 L 115.907 539.009 L 117.46 537.456 L 129.302 529.788 L 130.757 524.644 L 132.602 522.12 L 128.622 523.285 L 126.778 521.344 L 122.895 521.053 L 121.245 519.209 L 116.78 518.238 L 115.713 516.879 L 116.489 510.667 L 112.801 512.22 L 106.977 507.173 L 108.336 502.999 L 106.589 502.223 L 106.589 497.272 L 111.054 493.875 L 112.316 491.06 L 115.033 489.993 L 115.324 491.643 L 120.566 489.313 L 125.031 489.313 L 126.487 483.198 L 125.613 481.16 L 120.275 483.878 L 112.898 480.966 L 110.665 478.248 L 111.151 475.918 L 107.754 472.133 L 115.227 469.318 L 119.595 468.542 L 125.128 473.589 L 126.875 472.521 L 125.516 469.512 L 128.137 471.551 L 130.272 471.162 L 126.196 469.415 L 127.069 467.377 L 121.634 462.135 L 118.722 458.156 L 118.139 454.662 L 124.643 453.206 L 131.049 446.023 L 132.116 446.702 L 137.746 443.499 L 140.173 444.179 L 144.152 440.879 L 144.735 445.247 L 146.773 442.917 L 147.549 444.567 L 152.111 445.247 L 153.567 447.964 L 159.294 447.576 L 164.73 449.711 L 169 450.585 L 174.533 449.517 L 178.221 451.75 L 179.774 454.468 L 188.898 512.026 L 195.304 512.317 L 201.808 516.588 L 204.623 516.588 L 209.379 511.929 L 215.591 516.491 L 227.044 527.459 L 234.518 528.235 L 236.459 533.186 L 234.033 537.165 L 230.441 530.177 L 228.694 534.156 L 226.85 529.012 L 219.764 525.032 L 219.085 522.606 L 210.932 516.685 L 209.282 513.385 L 209.087 520.665 L 206.952 521.926 L 194.334 515.908 L 193.363 514.453 L 189.966 515.52 L 175.407 513.676 L 175.892 512.608 L 169.486 508.726 L 167.253 510.182 L 164.147 509.405 L 165.021 512.997 L 164.678 514.027 L 164.924 514.356 L 164.619 514.203 Z M 172.203 513.482 L 172.106 513.385 L 172.301 513.482 L 172.203 513.482 Z M 174.63 513.288 L 174.824 512.997 L 174.824 513.676 L 174.63 513.288 Z M 102.124 509.405 L 98.921 506.008 L 103.58 506.202 L 102.124 509.405 Z M 170.553 512.997 L 170.068 513.773 L 169.874 513.094 L 170.553 512.997 Z M 166.186 513.773 L 165.7 515.132 L 165.991 512.997 L 166.186 513.773 Z M 165.312 511.832 L 165.118 511.929 L 165.021 511.638 L 165.312 511.832 Z M 168.806 510.667 L 169.097 510.473 L 169.097 510.861 L 168.806 510.667 Z M 165.021 510.57 L 164.73 511.25 L 164.73 510.279 L 165.021 510.57 Z M 106.783 496.593 L 106.88 496.496 L 106.686 497.078 L 106.783 496.593 Z M 106.783 496.108 L 106.88 496.011 L 106.977 496.108 L 106.783 496.108 Z M 112.801 490.672 L 112.995 490.478 L 112.995 490.672 L 112.801 490.672 Z M 97.465 486.11 L 97.271 485.625 L 97.174 485.334 L 97.465 486.11 Z M 99.115 484.46 L 99.018 484.363 L 98.921 484.363 L 99.115 484.46 Z M 96.106 483.684 L 95.546 482.937 L 95.329 482.713 L 92.903 482.325 L 93.679 479.413 L 100.474 485.14 L 98.533 486.013 L 95.555 482.946 L 96.3 483.878 L 96.106 483.684 Z M 119.983 489.216 L 119.401 488.925 L 120.469 488.828 L 119.983 489.216 Z M 105.715 470.289 L 105.618 470.192 L 105.812 470.289 L 105.715 470.289 Z M 108.821 471.162 L 108.918 471.162 L 108.627 471.259 L 108.821 471.162 Z M 111.733 470.289 L 110.86 470.677 L 110.568 470.677 L 111.733 470.289 Z M 113.966 469.609 L 114.257 469.415 L 114.063 469.609 L 113.966 469.609 Z M 114.645 469.318 L 115.13 469.221 L 114.548 469.512 L 114.645 469.318 Z M 115.519 469.124 L 115.519 469.027 L 116.004 468.93 L 115.519 469.124 Z M 177.251 450.779 L 177.93 451.07 L 178.318 451.361 L 177.251 450.779 Z M 127.846 448.45 L 128.331 448.061 L 127.457 449.226 L 127.846 448.45 Z M 128.816 447.479 L 129.01 447.285 L 128.622 447.867 L 128.816 447.479 Z M 129.496 446.702 L 129.884 446.508 L 129.204 447.091 L 129.496 446.702 Z M 160.556 447.77 L 160.265 447.77 L 159.779 447.285 L 160.556 447.77 Z" style="stroke-linecap: round; stroke: rgb(255, 255, 255); paint-order: stroke; stroke-width: 14px; fill: rgb(153, 153, 153);"/>
  <path id="DX" data-name="South Carolina" data-id="SC" d="M 813.956 333.712 L 810.365 338.274 L 805.027 348.174 L 804.833 353.124 L 801.436 355.259 L 801.921 357.006 L 797.262 360.597 L 798.136 362.247 L 790.565 368.653 L 785.712 368.944 L 789.692 372.244 L 787.362 374.088 L 783.188 370.982 L 784.741 375.253 L 783.77 379.718 L 780.355 376.531 L 783.77 379.719 L 783.867 379.719 L 780.47 383.892 L 781.926 385.251 L 779.888 387.484 L 778.529 391.463 L 779.208 395.637 L 777.947 397.869 L 778.529 408.352 L 778.528 408.354 L 778.625 408.451 L 779.11 411.557 L 781.246 413.984 L 783.964 420.778 L 787.943 428.835 L 790.952 433.591 L 803.473 448.83 L 803.279 452.712 L 807.453 460.865 L 803.182 454.75 L 801.532 446.694 L 800.755 447.277 L 796.97 444.073 L 801.435 453.294 L 809.394 464.554 L 818.712 480.084 L 819.1 482.025 L 820.848 501.049 L 820.467 502.381 L 820.75 503.088 L 820.373 502.711 L 817.353 513.279 L 813.568 515.415 L 805.9 517.938 L 803.764 515.512 L 808.423 515.221 L 807.453 514.709 L 807.453 514.832 L 807.356 514.832 L 807.425 514.694 L 805.079 513.456 L 804.735 513.571 L 804.735 513.376 L 804.928 513.376 L 798.232 504.835 L 793.379 503.573 L 789.593 501.244 L 786.778 493.673 L 782.605 490.373 L 783.381 484.161 L 781.537 485.325 L 778.431 484.937 L 780.955 488.334 L 777.946 488.237 L 769.889 477.172 L 772.219 471.154 L 771.831 467.271 L 767.463 467.369 L 769.016 472.707 L 765.619 465.913 L 765.036 463.195 L 766.298 457.759 L 765.522 449.121 L 761.445 443.685 L 757.562 444.462 L 738.538 430.096 L 733.879 429.902 L 715.922 441.356 L 714.272 437.473 L 707.09 433.979 L 698.742 431.164 L 699.81 429.514 L 695.248 428.835 L 688.551 431.261 L 682.727 431.455 L 679.33 434.464 L 676.223 435.823 L 677.131 432.439 L 671.176 435.92 L 667.876 432.911 L 664.77 436.697 L 660.402 435.823 L 660.014 435.92 L 660.014 436.017 L 658.946 437.376 L 651.958 436.6 L 644.387 438.25 L 640.795 442.326 L 640.795 442.423 L 636.719 442.035 L 631.089 440.191 L 627.789 440.288 L 624.974 445.238 L 626.721 446.597 L 632.836 446.209 L 637.107 443.2 L 638.854 443.685 L 636.233 447.956 L 640.019 448.635 L 641.669 444.656 L 644.678 448.83 L 642.348 453.586 L 639.339 453.197 L 639.437 456.109 L 642.154 457.662 L 649.434 459.507 L 651.084 461.642 L 646.716 465.719 L 647.105 463.68 L 643.999 461.157 L 637.787 460.38 L 637.204 458.633 L 631.963 456.595 L 632.545 462.418 L 630.604 466.107 L 627.789 462.03 L 623.809 464.166 L 621.965 466.398 L 618.859 466.398 L 610.609 463.971 L 614.2 462.71 L 608.376 458.73 L 606.144 459.507 L 603.523 455.43 L 600.32 456.206 L 600.514 454.071 L 594.302 456.012 L 596.146 458.439 L 592.749 460.865 L 586.052 459.992 L 576.637 457.371 L 564.601 458.73 L 566.251 456.4 L 565.96 453.877 L 565.766 453.877 L 567.222 450.286 L 567.222 450.285 L 565.766 453.877 L 565.377 453.877 L 564.018 460.089 L 561.883 460.186 L 548.974 466.98 L 552.177 464.263 L 549.265 464.263 L 549.653 459.118 L 544.8 461.254 L 544.509 464.166 L 545.965 468.825 L 543.247 471.639 L 542.568 474.357 L 538.103 478.046 L 530.726 482.996 L 524.126 484.452 L 519.078 484.161 L 516.36 483.093 L 520.728 487.655 L 516.263 490.178 L 512.769 488.334 L 513.837 492.12 L 511.119 494.255 L 511.701 491.44 L 509.275 494.643 L 509.663 496.099 L 506.945 500.273 L 501.122 499.594 L 505.004 504.835 L 503.063 509.979 L 499.472 511.241 L 496.365 507.941 L 499.083 512.406 L 501.122 512.6 L 500.442 517.356 L 501.995 519.686 L 503.063 526.771 L 505.781 534.925 L 508.79 537.739 L 502.092 539.195 L 496.463 536.089 L 488.698 536.089 L 483.65 533.08 L 479.671 532.207 L 471.711 522.5 L 470.547 522.792 L 470.353 519.297 L 465.791 516.774 L 464.238 505.709 L 462.393 505.126 L 458.22 500.855 L 454.92 495.42 L 450.649 491.829 L 446.378 481.54 L 444.534 479.113 L 443.951 475.522 L 441.137 472.125 L 438.128 470.183 L 439.584 467.466 L 434.342 466.495 L 426.674 461.739 L 418.23 461.06 L 415.318 459.604 L 407.747 462.613 L 405.32 467.369 L 403.864 472.319 L 399.205 476.978 L 395.808 475.716 L 388.334 470.96 L 383.19 469.116 L 379.599 465.136 L 375.037 462.127 L 372.901 451.353 L 367.272 441.065 L 359.312 435.144 L 353.294 428.058 L 342.812 417.575 L 342.715 417.478 L 340.288 412.722 L 352.615 413.596 L 383.384 415.343 L 402.602 416.216 L 405.903 325.171 L 406.582 325.268 L 406.679 322.647 L 406.776 320.124 L 406.97 315.076 L 408.912 315.174 L 412.988 315.271 L 414.929 315.368 L 421.044 315.562 L 422.597 315.562 L 426.771 315.659 L 449.29 315.95 L 501.995 315.174 L 539.559 313.427 L 543.247 313.135 L 543.441 315.659 L 543.538 318.183 L 543.732 320.803 L 543.829 323.327 C 544.412 326.045 543.829 323.327 543.829 323.327 L 548.391 323.036 L 579.646 320.512 L 616.627 316.921 L 618.471 320.706 L 614.2 327.501 L 624.683 325.948 L 624.78 325.948 L 624.78 325.171 L 624.974 320.706 L 626.915 318.28 L 626.333 315.562 L 626.236 315.465 L 627.304 315.368 L 627.304 316.241 L 627.692 316.338 L 628.468 315.368 L 628.468 315.271 L 631.283 314.882 L 650.89 312.262 L 649.919 308.379 L 653.219 308.282 L 692.724 303.041 L 720.484 298.382 L 720.872 298.091 L 722.62 297.8 L 722.62 297.799 L 720.872 298.091 L 721.552 297.314 L 728.832 293.432 L 734.461 286.055 L 735.238 283.531 L 738.926 280.619 L 743.585 274.698 L 744.265 273.728 L 744.459 273.825 L 745.526 276.834 L 751.641 279.066 L 754.068 276.931 L 756.592 276.542 L 761.93 272.369 L 768.433 270.427 L 770.181 267.613 L 770.569 261.789 L 772.898 257.324 L 775.81 244.123 L 781.731 246.162 L 783.672 240.435 L 786.681 237.135 L 791.631 227.72 L 791.437 222.09 L 800.464 225.973 L 801.047 221.896 L 801.047 221.799 L 801.338 221.896 L 805.803 223.061 L 809.006 225.39 L 812.112 226.749 L 812.403 227.04 L 812.888 227.429 L 813.082 227.526 L 813.277 227.429 L 813.471 227.623 L 813.665 233.058 L 812.694 232.864 L 813.568 239.561 L 815.897 238.105 L 818.712 240.629 L 824.439 241.017 L 831.039 243.541 L 830.166 244.997 L 831.039 249.462 L 821 244.517 L 828.418 250.53 L 832.301 250.335 L 833.951 254.8 L 830.845 254.606 L 835.213 260.139 L 833.66 262.565 L 828.224 258.877 L 818.421 259.751 L 823.468 259.945 L 830.748 262.371 L 832.883 264.313 L 835.116 262.468 L 840.066 261.595 L 844.046 267.71 L 844.434 268.486 L 853.558 281.881 L 849.384 277.707 L 844.046 268.68 L 843.948 268.68 L 842.395 265.769 L 841.91 265.671 L 842.59 268.972 L 842.784 269.166 L 842.978 269.069 L 842.978 268.875 L 843.366 268.292 L 843.56 268.777 L 843.269 268.875 L 843.56 268.778 L 843.754 269.36 L 842.104 269.36 L 841.91 269.263 L 841.231 268.583 L 841.328 268.875 L 841.619 269.36 L 843.852 271.301 L 847.055 276.057 L 844.046 274.31 L 842.784 277.61 L 838.319 278.678 L 838.125 280.328 L 833.854 284.502 L 843.463 280.522 L 844.725 280.813 L 846.375 287.122 L 845.89 281.978 L 848.122 279.94 L 850.355 282.075 L 850.646 287.414 L 848.899 287.899 L 846.958 291.684 L 844.337 293.626 L 841.134 293.917 L 838.61 292.655 L 830.845 294.111 L 831.233 294.596 L 840.357 296.052 L 838.707 299.546 L 840.163 301.1 L 835.407 304.594 L 839.29 304.497 L 843.366 303.138 L 844.531 300.905 L 843.56 307.312 L 841.425 306.341 L 840.357 308.282 L 832.301 313.621 L 828.419 317.309 L 824.827 323.812 L 824.803 325.152 L 825.215 324.492 L 824.924 326.045 L 824.796 325.531 L 824.73 329.151 L 814.733 333.227 L 814.344 333.519 L 814.343 333.518 L 813.956 333.712 Z M 677.291 431.843 L 677 431.746 L 676.806 431.649 L 677.242 432.024 L 677.291 431.843 Z M 780.081 393.989 L 779.304 393.601 L 779.984 391.077 L 780.081 393.989 Z M 781.149 389.524 L 780.469 388.65 L 780.76 387.292 L 781.149 389.524 Z M 788.914 533.177 L 788.817 533.275 L 788.72 533.177 L 788.914 533.177 Z M 788.137 533.177 L 788.04 533.177 L 788.04 533.08 L 788.137 533.177 Z M 773.869 534.633 L 773.869 534.536 L 773.966 534.536 L 773.869 534.633 Z M 801.532 528.615 L 801.435 528.421 L 801.532 528.421 L 801.532 528.615 Z M 804.153 527.742 L 803.959 527.839 L 804.153 527.548 L 804.153 527.742 Z M 803.182 527.548 L 802.697 527.257 L 802.794 527.159 L 803.182 527.548 Z M 802.406 528.13 L 801.726 526.868 L 802.891 528.324 L 802.406 528.13 Z M 812.306 522.792 L 812.112 522.986 L 812.112 522.597 L 812.306 522.792 Z M 813.471 521.627 L 813.374 521.53 L 813.762 521.142 L 813.471 521.627 Z M 813.665 520.753 L 813.665 520.656 L 813.762 520.656 L 813.665 520.753 Z M 812.888 518.909 L 812.791 519.006 L 812.791 518.812 L 812.888 518.909 Z M 813.568 516.58 L 813.665 516.774 L 813.374 516.677 L 813.568 516.58 Z M 813.956 516.58 L 813.859 516.677 L 813.762 516.385 L 813.956 516.58 Z M 813.277 516.385 L 813.179 516.482 L 813.179 516.288 L 813.277 516.385 Z M 816.868 515.706 L 816.674 515.997 L 816.868 515.609 L 816.868 515.706 Z M 812.791 516.191 L 812.597 516.094 L 812.791 516.094 L 812.791 516.191 Z M 814.83 514.929 L 814.441 515.027 L 814.538 514.929 L 814.83 514.929 Z M 805.997 514.638 L 805.512 514.153 L 805.997 514.056 L 805.997 514.638 Z M 805.123 513.959 L 805.123 514.153 L 804.638 513.668 L 805.123 513.959 Z M 818.906 514.25 L 817.741 515.124 L 817.159 515.027 L 818.906 514.25 Z M 820.653 508.523 L 820.848 506.776 L 820.75 508.038 L 820.653 508.523 Z M 798.329 505.514 L 798.62 505.903 L 798.135 505.806 L 798.329 505.514 Z M 796.485 504.641 L 796.291 505.029 L 795.611 504.932 L 796.485 504.641 Z M 794.543 504.835 L 794.446 504.641 L 794.543 504.544 L 794.543 504.835 Z M 792.505 504.738 L 792.699 505.514 L 791.923 505.126 L 792.505 504.738 Z M 795.223 504.835 L 794.64 504.447 L 795.126 504.544 L 795.223 504.835 Z M 782.508 495.323 L 783.09 496.002 L 781.925 495.614 L 782.508 495.323 Z M 780.178 492.217 L 779.693 491.926 L 779.402 491.052 L 780.178 492.217 Z M 780.858 490.761 L 781.828 491.052 L 783.187 494.158 L 780.858 490.761 Z M 778.819 489.014 L 779.013 489.499 L 779.305 490.275 L 778.819 489.014 Z M 770.181 478.919 L 769.501 478.24 L 771.248 479.501 L 770.181 478.919 Z M 807.453 461.157 L 807.841 461.157 L 814.927 472.998 L 807.453 461.157 Z M 765.91 454.071 L 765.91 454.168 L 765.619 453.974 L 765.91 454.071 Z M 765.327 453.586 L 765.23 453.489 L 765.327 453.391 L 765.327 453.586 Z M 764.551 452.421 L 764.648 452.324 L 764.648 452.421 L 764.551 452.421 Z M 765.327 452.033 L 765.327 452.227 L 765.036 452.033 L 765.327 452.033 Z M 765.619 451.644 L 765.327 451.741 L 765.23 451.741 L 765.619 451.644 Z M 764.26 450.48 L 764.357 450.577 L 764.066 450.48 L 764.26 450.48 Z M 764.939 449.315 L 764.454 449.412 L 764.551 449.315 L 764.939 449.315 Z M 764.842 449.024 L 765.036 449.121 L 765.327 449.509 L 764.842 449.024 Z M 761.445 445.335 L 761.445 445.238 L 761.639 445.335 L 761.445 445.335 Z M 757.465 445.335 L 757.271 445.432 L 757.174 444.947 L 757.465 445.335 Z M 691.074 430.97 L 686.318 432.717 L 680.494 434.367 L 691.074 430.97 Z M 621.383 468.048 L 621.965 467.466 L 623.227 467.175 L 621.383 468.048 Z M 626.43 467.175 L 626.624 466.883 L 627.304 467.175 L 626.43 467.175 Z M 628.565 466.883 L 628.954 466.398 L 629.633 466.398 L 628.565 466.883 Z M 628.468 465.719 L 628.177 465.719 L 628.274 465.427 L 628.468 465.719 Z M 636.428 460.768 L 635.942 460.768 L 636.233 460.574 L 636.428 460.768 Z M 601.873 460.865 L 597.602 459.409 L 599.349 457.954 L 603.329 459.021 L 601.873 460.865 Z M 642.64 443.2 L 642.543 443.394 L 642.445 443.394 L 642.64 443.2 Z M 508.207 534.827 L 503.548 520.559 L 503.548 517.259 L 508.207 534.827 Z M 507.139 503.961 L 503.451 512.212 L 503.839 510.173 L 507.139 503.961 Z M 509.76 499.399 L 510.634 496.682 L 512.866 495.323 L 509.76 499.399 Z M 515.487 492.896 L 513.449 493.284 L 520.728 489.499 L 515.487 492.896 Z M 521.699 488.14 L 522.961 486.684 L 523.737 486.49 L 521.699 488.14 Z M 823.565 331.383 L 823.371 331.189 L 824.439 330.121 L 823.565 331.383 Z M 831.039 315.465 L 828.807 317.6 L 829.583 316.435 L 831.039 315.465 Z M 843.56 309.35 L 841.716 308.865 L 842.978 308.962 L 843.56 309.35 Z M 838.61 309.544 L 840.066 308.767 L 840.94 308.767 L 838.61 309.544 Z M 844.822 305.759 L 846.763 302.847 L 843.948 309.835 L 844.822 305.759 Z M 856.276 293.043 L 854.14 282.269 L 855.984 287.899 L 856.276 293.043 Z" style="stroke-linecap: round; stroke: rgb(255, 255, 255); paint-order: stroke; stroke-width: 14px; fill: rgb(153, 153, 153);"/>
  <path id="NE" data-name="Maine" data-id="ME" d="M 886.049 93.075 L 882.182 94.875 L 880.532 99.922 L 881.406 100.796 L 880.435 105.94 L 878.882 107.881 L 878.688 113.414 L 877.717 113.705 L 877.717 113.802 L 877.814 114.385 L 878.493 114.094 L 878.202 116.617 L 878.202 118.17 L 878.299 118.364 L 879.658 121.568 L 882.958 121.762 L 879.755 125.159 L 882.958 130.012 L 890.141 137.68 L 893.732 137.389 L 896.935 134.962 L 896.256 131.662 L 898.877 136.806 L 892.665 140.107 L 891.791 142.048 L 888.006 140.786 L 883.444 146.319 L 882.861 147.483 L 881.988 145.93 L 881.308 144.183 L 881.308 143.504 L 881.405 141.174 L 881.114 142.63 L 880.532 143.116 L 878.591 143.504 L 879.464 150.104 L 874.805 153.793 L 874.611 154.084 L 874.32 154.375 L 860.149 160.684 L 859.566 159.519 L 856.557 163.693 L 850.928 169.128 L 850.928 169.226 L 849.86 173.593 L 847.919 174.079 L 847.213 170.867 L 846.56 178.058 L 846.201 179.492 L 846.948 178.447 L 846.195 179.516 L 845.395 182.717 L 849.957 182.62 L 850.636 186.017 L 850.636 196.403 L 848.598 201.159 L 849.666 205.139 L 846.948 206.983 L 846.56 212.322 L 843.939 216.01 L 843.842 211.545 L 832.388 207.663 L 831.968 203.044 L 831.612 208.536 L 842.968 219.31 L 845.298 225.522 L 845.492 225.91 L 845.492 226.59 L 845.298 226.008 L 845.395 228.143 L 845.395 228.434 L 842.871 235.908 L 842.968 236.102 L 841.707 236.587 L 839.765 237.461 L 839.086 238.334 L 838.989 238.334 L 836.853 235.908 L 833.553 236.005 L 833.747 231.249 L 831.806 234.646 L 828.312 233.481 L 826.176 229.502 L 830.253 228.143 L 825.497 226.396 L 827.147 222.416 L 826.274 216.981 L 824.72 220.281 L 823.07 217.466 L 823.653 209.119 L 822.1 214.748 L 819.964 216.495 L 822.003 220.863 L 821.517 224.843 L 823.362 231.734 L 825.691 234.064 L 823.07 233.675 L 819.867 229.405 L 821.129 233.384 L 826.274 235.131 L 827.924 239.79 L 823.944 237.946 L 817.926 237.655 L 811.908 233.773 L 813.752 228.143 L 813.752 228.046 L 815.014 225.716 L 813.655 224.94 L 812.005 225.037 L 811.617 225.813 L 811.326 225.522 L 808.22 224.163 L 805.017 221.834 L 800.552 220.669 L 800.261 220.572 L 800.261 220.667 L 799.678 224.744 L 790.651 220.861 L 790.845 226.491 L 785.895 235.906 L 782.886 239.206 L 780.945 244.933 L 775.024 242.895 L 772.112 256.095 L 769.783 260.56 L 769.395 266.384 L 767.647 269.199 L 761.144 271.14 L 755.806 275.314 L 753.282 275.702 L 750.855 277.837 L 744.74 275.605 L 743.673 272.596 L 743.479 272.499 L 743.187 272.402 L 740.761 272.402 L 737.655 270.655 L 732.122 263.957 L 730.181 257.163 L 730.181 256.969 L 734.355 254.93 L 735.811 251.727 L 734.646 248.427 L 737.946 243.38 L 740.373 242.992 L 740.081 238.721 L 744.061 233.285 L 744.74 234.062 L 748.332 231.344 L 751.438 226.685 L 751.923 205.428 L 752.117 205.331 L 751.632 203.293 L 749.205 192.81 L 748.72 190.675 L 746.002 178.736 L 746.584 178.251 L 751.34 173.398 L 753.961 171.554 C 755.612 170.293 755.709 170.196 755.709 170.196 L 762.697 162.043 L 764.444 153.501 L 763.679 152.832 L 763.571 153.21 L 762.54 151.835 L 761.338 150.784 L 760.853 147.969 L 769.686 142.63 L 779.198 141.271 L 781.624 142.242 L 794.437 134.477 L 798.708 128.847 L 797.64 121.956 L 796.302 121.498 L 796.1 121.429 L 793.951 120.694 L 799.969 111.57 L 799.775 109.629 L 804.337 100.893 L 808.414 96.525 L 828.7 89.731 L 829.282 89.44 L 829.962 89.246 L 841.998 84.878 L 847.239 82.839 L 852.578 80.898 L 853.839 80.413 L 853.839 80.316 L 854.616 73.91 L 856.072 74.201 L 857.334 72.648 L 857.528 72.454 L 860.052 72.842 L 862.382 68.377 L 860.441 66.921 L 863.256 57.797 L 862.188 45.955 L 860.926 40.131 L 864.517 22.271 L 867.041 21.3 L 868.885 24.697 L 871.02 25.085 L 878.882 18.485 L 885.968 22.173 L 895.674 43.139 L 895.674 47.119 L 899.265 48.381 L 902.468 47.41 L 902.468 49.74 L 904.409 53.72 L 909.65 54.788 L 912.853 57.991 L 912.852 57.991 L 914.599 59.738 L 912.464 64.882 L 911.949 65.304 L 911.785 65.561 L 911.841 65.393 L 907.611 68.861 L 905.864 68.473 L 905.379 72.841 L 898.002 75.656 L 898.257 76.961 L 898.973 77.597 L 898.368 77.53 L 898.779 79.636 L 892.858 80.024 L 891.499 87.789 L 887.811 92.254 L 886.064 93.067 L 886.049 93.075 Z M 900.429 81.772 L 900.041 81.772 L 900.429 81.772 Z M 895.577 83.228 L 894.703 83.033 L 895.577 83.227 L 895.577 83.228 Z M 900.527 80.219 L 901.109 80.122 L 901.4 80.899 L 900.526 80.22 L 900.527 80.219 Z M 898.197 81.383 L 897.906 80.315 L 898.197 81.383 Z M 893.732 80.413 L 893.635 81.869 L 893.344 80.995 L 893.732 80.413 Z M 899.071 76.919 L 899.362 76.434 L 899.459 77.21 L 899.071 76.919 Z M 902.759 76.433 L 901.303 78.568 L 901.206 77.015 L 902.759 76.433 Z M 865.051 169.36 L 858.693 172.72 L 852.578 177.67 L 848.404 179.32 L 848.016 176.408 L 850.733 174.176 L 850.928 172.04 L 853.548 169.808 L 863.546 165.537 L 870.049 159.519 L 869.193 160.931 L 870.146 161.169 L 868.787 161.752 L 868.84 161.514 L 866.166 165.925 L 868.496 164.955 L 875.776 159.422 L 865.487 169.129 L 865.196 169.283 L 865.196 169.42 L 865.051 169.36 Z M 847.336 175.146 L 847.627 173.399 L 847.627 176.699 L 847.336 175.146 Z M 879.949 148.745 L 879.561 147.483 L 879.852 146.707 L 879.949 148.745 Z M 881.891 147.192 L 880.532 147.289 L 880.629 144.766 L 881.891 147.192 Z M 849.763 203.974 L 849.763 202.809 L 850.248 203.974 L 849.763 203.974 Z" style="stroke-linecap: round; stroke: rgb(255, 255, 255); paint-order: stroke; stroke-width: 14px; fill: rgb(153, 153, 153);"/>
  <path id="LN" data-name="Michigan" data-id="MI" d="M 651.963 135.2 L 651.381 135.394 L 651.478 134.423 L 651.963 135.2 Z M 652.157 132.579 L 652.351 131.9 L 653.516 133.453 L 652.157 132.579 Z M 653.516 125.785 L 653.516 125.591 L 654.487 126.465 L 653.516 125.785 Z M 645.969 205.831 L 657.301 191.4 L 658.175 181.888 L 657.301 176.744 L 650.312 163.349 L 651.283 159.952 L 650.506 153.061 L 651.865 147.528 L 650.797 142.19 L 652.932 140.54 L 656.135 135.493 L 658.853 129.766 L 658.853 137.337 L 661.862 135.202 L 661.183 129.184 L 664.289 125.301 L 663.901 120.933 L 667.978 115.886 L 677.005 118.507 L 677.976 119.963 L 687.682 121.613 L 692.05 131.319 L 691.759 142.772 L 688.944 149.275 L 687.585 149.76 L 688.556 156.263 L 691.759 156.845 L 695.059 150.633 L 694.38 149.759 L 700.689 145.391 L 702.436 145.876 L 705.833 149.661 L 709.716 159.95 L 712.337 164.803 L 712.628 172.568 L 711.56 174.606 L 708.745 172.956 L 705.154 181.983 L 705.445 187.224 L 702.242 193.533 M 671.861 116.37 L 670.308 115.205 L 672.832 115.011 L 671.861 116.37 Z M 658.078 117.535 L 658.175 117.923 L 657.301 117.535 L 658.078 117.535 Z M 675.064 105.208 L 673.705 103.752 L 674.093 103.655 L 675.064 105.208 Z M 701.792 193.765 L 724.955 193.535 L 728.74 192.953 L 733.593 187.032 L 741.067 181.305 L 744.561 179.073 L 747.279 191.011 L 747.764 193.147 L 750.191 203.63 L 750.676 205.668 L 750.482 205.765 L 749.997 227.022 L 746.891 231.681 L 743.299 234.399 L 742.62 233.622 L 738.64 239.058 L 738.932 243.329 L 736.505 243.717 L 733.205 248.764 L 734.37 252.064 L 732.914 255.267 L 728.74 257.306 L 728.74 257.5 L 730.681 264.294 L 736.214 270.992 L 739.32 272.739 L 741.746 272.739 L 742.038 272.836 L 741.358 273.806 L 736.699 279.727 L 733.011 282.639 L 732.234 285.163 L 726.605 292.54 L 719.325 296.422 L 718.645 297.199 L 718.257 297.49 L 690.497 302.149 L 650.992 307.39 L 647.692 307.487 L 648.663 311.37 L 629.056 313.991 L 626.241 314.379 L 626.338 314.088 L 628.862 312.535 L 629.25 312.34 L 628.862 312.534 L 626.338 314.087 L 626.241 314.379 L 626.241 314.476 L 625.465 315.446 L 625.077 315.349 L 625.077 314.476 L 624.009 314.573 L 624.106 314.67 L 624.688 317.388 L 622.747 319.814 L 622.553 324.279 L 622.553 325.056 L 622.456 325.056 L 611.973 326.609 L 616.244 319.814 L 614.4 316.029 L 577.419 319.62 L 546.164 322.144 L 541.602 322.435 L 541.505 319.911 L 541.311 317.291 L 541.214 314.767 L 541.02 312.243 L 537.331 312.535 L 499.768 314.282 L 447.063 315.058 L 424.544 314.767 L 420.37 314.67 L 420.37 312.729 L 421.438 261.382 L 421.535 255.656 L 421.535 253.811 L 421.632 252.549 L 422.02 233.525 L 417.361 233.331 L 393.678 232.457 L 391.349 232.36 L 391.446 229.837 L 391.931 219.645 L 392.805 201.882 L 393.193 194.312 L 393.29 191.788 L 393.387 189.167 L 394.163 174.025 L 395.134 153.642 L 395.231 151.119 L 395.522 151.119 L 395.619 149.76 L 395.911 143.062 L 396.299 134.23 L 396.396 131.997 L 396.59 128.115 L 398.143 97.637 L 399.405 73.953 L 399.502 70.071 L 400.57 70.168 L 421.147 70.944 L 438.715 71.333 L 459.196 71.43 L 488.509 70.847 L 490.547 70.847 L 491.518 70.75 L 506.174 70.168 L 518.016 69.294 L 517.628 61.82 L 522.093 63.082 L 522.481 65.703 L 525.975 74.439 L 536.264 75.895 L 537.526 77.836 L 544.029 75.021 L 548.106 75.021 L 552.667 76.477 L 551.503 77.836 L 555.094 79.68 L 560.433 79.292 L 562.277 81.524 L 568.974 84.339 L 577.322 80.942 L 578.777 82.689 L 588.096 81.427 L 590.522 83.271 L 594.599 82.495 L 588.484 87.057 L 582.66 89.872 L 579.36 92.201 L 570.721 103.266 L 563.15 111.226 L 563.247 111.42 L 572.954 109.867 L 580.913 105.79 L 580.233 112.876 L 581.884 111.905 L 586.834 112.584 L 587.125 112.293 L 587.416 112.099 L 594.987 106.372 L 600.325 105.013 L 609.74 95.986 L 610.031 97.733 L 612.926 98.615 L 610.128 95.889 L 618.932 91.524 L 615.369 95.889 L 614.146 98.987 L 624.687 102.198 L 631.287 107.925 L 634.587 106.469 L 639.828 107.731 L 640.799 105.79 L 649.341 100.549 L 654.097 100.258 L 661.474 96.764 L 660.892 98.123 L 662.639 102.297 L 668.075 102.976 L 673.996 99.676 L 673.414 105.985 L 676.423 107.732 L 678.073 110.45 L 671.279 111.518 L 669.726 110.547 L 668.076 114.818 L 664.679 113.071 L 655.943 112.003 L 655.264 113.362 L 646.625 116.662 L 643.034 122.195 L 642.452 118.701 L 638.958 122.584 L 634.396 125.787 L 630.611 136.755 L 630.611 136.852 L 630.609 136.85 L 630.512 136.947 L 630.318 138.889 L 627.018 143.256 L 625.853 148.401 L 629.541 146.265 L 631.094 142.189 L 633.909 141.218 L 635.365 142.771 L 634.103 147.333 L 633.909 153.351 L 634.783 154.419 L 632.453 160.922 L 633.133 166.163 L 631.871 172.958 L 632.55 179.073 L 635.171 183.926 L 635.171 188.488 L 635.559 189.944 L 635.559 190.138 L 636.433 195.768 L 638.471 197.903 L 640.995 203.63 L 641.966 204.697 L 642.548 205.28 L 644.295 206.153 L 646.332 205.632 M 625.174 314.184 L 624.883 313.408 L 624.3 313.214 L 624.882 313.408 L 625.174 314.185 L 625.174 314.184 Z M 619.253 91.134 L 621.485 90.26 L 618.933 91.525 L 619.253 91.134 Z M 634.589 141.606 L 633.909 139.18 L 635.365 134.812 L 637.792 131.803 L 634.589 141.606 Z M 582.078 108.993 L 582.466 107.925 L 583.534 106.955 L 582.078 108.993 Z M 584.31 105.79 L 582.757 105.887 L 583.825 105.208 L 584.31 105.79 Z M 581.301 105.693 L 581.981 105.402 L 582.175 106.081 L 581.301 105.693 Z M 578.68 105.402 L 578.777 104.625 L 578.972 104.819 L 578.68 105.402 Z M 585.766 103.752 L 585.184 104.043 L 585.475 102.393 L 585.766 103.752 Z" style="stroke-linecap: round; stroke: rgb(255, 255, 255); paint-order: stroke; stroke-width: 14px; fill: rgb(153, 153, 153);"/>
</svg>