<?xml version="1.0" encoding="utf-8"?>
<svg xmlns="http://www.w3.org/2000/svg" enable_background="new 0 0 1000 589" height="589px" pretty_print="False" style="stroke-linejoin: round; stroke:#000; fill: none;" version="1.1" viewBox="0 0 1000 589" width="1000px" id="svg">
  <defs id="defs4">
    <style type="text/css" id="style6">path { fill-rule: evenodd; }</style>
  </defs>
  <path id="PA" data-name="Montana" data-id="MT" d="M 384.502 84.071 L 384.405 87.953 L 383.143 111.637 L 381.59 142.115 L 381.396 145.997 L 381.299 148.23 L 380.911 157.062 L 380.619 163.76 L 380.522 165.119 L 380.231 165.119 L 380.134 167.642 L 379.163 188.025 L 378.387 203.167 L 378.29 205.788 L 378.193 208.312 L 377.805 215.883 L 376.931 233.645 L 376.446 243.837 L 376.349 246.36 L 378.678 246.457 L 402.362 247.331 L 407.021 247.525 L 406.632 266.55 L 406.535 267.811 L 406.535 269.656 L 406.438 275.382 L 405.37 326.729 L 405.37 328.67 L 403.817 328.67 L 397.702 328.476 L 395.761 328.379 L 391.685 328.282 L 389.743 328.185 L 389.646 330.708 L 389.452 335.756 L 389.355 338.376 L 388.676 338.279 L 385.376 429.324 L 366.157 428.451 L 335.388 426.704 L 323.061 425.83 L 325.488 430.586 L 325.294 430.586 L 298.116 428.16 L 295.689 430.101 L 294.427 436.895 L 281.033 435.633 L 280.644 435.536 L 280.256 435.536 L 245.702 431.266 L 204.935 409.621 L 191.734 402.244 L 184.746 397.876 L 186.784 394.09 L 147.085 390.208 L 144.077 386.228 L 144.465 377.881 L 139.029 368.854 L 133.205 361.963 L 129.323 360.118 L 127.382 354.78 L 122.723 353.906 L 118.452 351.48 L 116.899 348.374 L 112.434 343.618 L 97.874 338.376 L 96.807 336.823 L 97.486 323.914 L 95.351 322.749 L 88.556 304.113 L 84.674 298.095 L 84.092 292.174 L 87.683 287.515 L 82.247 280.818 L 80.888 270.432 L 81.374 265.191 L 83.024 268.976 L 85.936 271.791 L 84.868 265.579 L 84.965 260.629 L 87.639 260.134 L 84.965 258.008 L 81.471 263.832 L 75.453 258.105 L 75.647 248.69 L 73.123 245.39 L 69.144 236.751 L 70.309 234.13 L 69.92 227.821 L 72.25 221.512 L 70.6 213.747 L 67.3 207.826 L 67.494 203.556 L 74.288 195.111 L 78.365 183.755 L 79.238 174.145 L 79.238 173.66 L 77.977 167.836 L 80.112 161.43 L 80.791 154.247 L 84.286 147.453 L 85.645 146.482 L 89.43 140.756 L 95.06 127.361 L 96.127 127.264 L 97.874 119.208 L 103.892 104.551 L 105.251 102.222 L 107.29 93.874 L 109.231 94.845 L 112.143 93.971 L 116.996 96.495 L 117.675 96.01 L 117.964 95.913 L 116.219 95.913 L 114.763 93.098 L 111.852 91.351 L 109.425 91.545 L 107.193 88.827 L 108.843 83.197 L 109.716 88.05 L 111.56 81.838 L 109.231 80.674 L 113.599 77.568 L 109.231 77.179 L 110.007 74.947 L 111.075 60.485 L 109.425 56.02 L 109.619 53.496 L 111.755 47.575 L 119.617 53.69 L 128.546 57.573 L 130.197 56.699 L 131.555 59.029 L 134.273 59.708 L 135.175 64.304 L 135.729 63.591 L 136.603 64.464 L 133.982 70.288 L 132.72 70.094 L 133.303 74.947 L 131.361 74.559 L 128.935 77.179 L 130.002 73.394 L 128.394 75.478 L 128.546 75.529 L 127.964 77.471 L 127.964 76.035 L 125.732 78.927 L 128.061 77.762 L 129.775 78.859 L 129.711 78.15 L 130.391 78.247 L 129.955 78.974 L 130.488 79.315 L 136.214 75.335 L 136.214 71.647 L 137.476 68.055 L 140.194 64.173 L 138.237 55.065 L 136.02 57.281 L 137.767 54.564 L 138.138 54.605 L 137.67 52.428 L 140.291 53.787 L 141.747 51.069 L 140.194 42.625 L 146.891 44.275 L 169.313 50.487 L 189.114 55.534 L 211.827 60.873 L 213.38 61.164 L 214.641 61.455 L 217.456 62.135 L 226.095 63.882 L 226.192 63.882 L 228.91 64.464 L 254.729 69.414 L 266.279 71.356 L 289.38 74.947 L 303.842 76.888 L 327.138 79.606 L 350.53 81.838 L 382.658 83.974 L 384.502 84.071 Z M 343.347 531.532 L 343.444 534.25 L 348.686 538.715 L 343.347 543.276 L 338.494 544.538 L 334.514 547.45 L 332.282 551.042 L 328.691 548.712 L 327.817 541.432 L 324.711 534.347 L 328.302 529.882 L 327.72 524.446 L 330.341 523.767 L 333.35 525.999 L 343.347 531.532 Z M 312.869 518.72 L 314.228 516.875 L 315.684 518.137 L 312.869 518.72 Z M 306.948 510.081 L 308.793 510.372 L 308.404 513.963 L 306.948 510.081 Z M 320.44 509.596 L 326.07 514.255 L 320.052 517.069 L 317.334 515.905 L 316.558 512.702 L 314.034 512.507 L 312.869 508.819 L 314.519 508.043 L 320.44 509.596 Z M 307.24 504.354 L 309.278 507.557 L 305.395 506.587 L 301.222 506.684 L 302.095 504.063 L 307.24 504.354 Z M 293.068 499.404 L 293.554 501.733 L 288.021 500.569 L 286.08 502.607 L 283.362 497.56 L 287.633 494.26 L 289.865 496.395 L 293.068 499.404 Z M 246.381 492.124 L 246.963 490.765 L 248.614 489.892 L 246.381 492.124 Z M 263.561 485.233 L 260.843 490.571 L 257.058 489.601 L 254.34 487.659 L 255.02 485.815 L 261.814 483.291 L 263.561 485.233 Z M 214.544 465.335 L 214.739 465.335 L 214.739 465.432 L 214.544 465.335 Z M 163.392 452.911 L 163.295 452.911 L 163.295 452.717 L 163.392 452.911 Z M 134.176 445.437 L 134.176 445.34 L 134.37 445.34 L 134.176 445.437 Z M 104.378 420.006 L 104.378 419.909 L 104.475 420.2 L 104.378 420.006 Z M 37.889 399.332 L 37.695 399.235 L 37.987 398.944 L 37.889 399.332 Z M -71.598 331.485 L -71.598 331.679 L -71.889 331.776 L -71.598 331.485 Z M 133.303 75.238 L 134.953 72.714 L 135.05 74.656 L 133.303 75.238 Z M 135.341 68.152 L 135.535 68.638 L 135.244 70.579 L 135.341 68.152 Z M 135.05 59.902 L 135.438 59.999 L 135.535 61.067 L 135.05 59.902 Z M 136.797 51.361 L 136.7 51.652 L 136.214 52.04 L 136.797 51.361 Z M 134.564 52.04 L 135.438 50.39 L 135.729 52.331 L 134.564 52.04 Z M 135.05 50.196 L 134.37 49.225 L 135.244 49.613 L 135.05 50.196 Z M 137.865 50.487 L 138.156 50.002 L 138.156 51.264 L 137.865 50.487 Z M 138.544 49.71 L 138.641 49.71 L 139.029 50.002 L 138.544 49.71 Z M 132.817 47.381 L 133.011 47.478 L 133.497 47.866 L 132.817 47.381 Z M 135.147 48.352 L 134.467 48.157 L 137.088 47.478 L 135.147 48.352 Z M 134.37 46.799 L 134.467 46.702 L 134.953 47.284 L 134.37 46.799 Z M 137.088 46.313 L 136.603 46.119 L 136.991 46.119 L 137.088 46.313 Z M 134.816 64.765 L 132.526 65.338 L 130.099 68.055 L 132.332 67.958 L 134.816 64.765 Z M 123.014 374.775 L 123.402 376.91 L 123.402 377.299 L 123.014 374.775 Z M 109.813 367.786 L 109.425 367.883 L 108.746 366.427 L 109.813 367.786 Z M 127.77 369.922 L 126.023 368.66 L 125.732 366.136 L 127.77 369.922 Z M 113.793 352.45 L 112.919 352.062 L 113.987 352.353 L 113.793 352.45 Z M 101.272 351.674 L 100.592 350.994 L 103.213 349.441 L 101.272 351.674 Z M 98.845 348.568 L 97.972 348.374 L 98.166 347.597 L 98.845 348.568 Z M 111.755 351.286 L 110.978 351.965 L 106.707 349.538 L 111.755 351.286 Z M 83.897 264.608 L 83.897 264.22 L 83.994 264.511 L 83.897 264.608 Z M 114.375 93.874 L 114.472 93.195 L 114.763 94.068 L 114.375 93.874 Z M 18.186 554.245 L 17.797 554.148 L 18.283 553.953 L 18.186 554.245 Z M 20.321 553.08 L 20.127 553.177 L 20.127 552.886 L 20.321 553.08 Z M 21 553.274 L 21.098 553.177 L 21.098 553.371 L 21 553.274 Z M 20.709 553.08 L 20.903 553.08 L 20.903 553.177 L 20.709 553.08 Z M -54.709 492.027 L -54.903 490.086 L -54.806 489.406 L -54.709 492.027 Z M -55.097 487.368 L -55.194 487.659 L -55.291 486.786 L -55.097 487.368 Z M 20.612 551.624 L 21.001 551.43 L 20.903 552.012 L 20.612 551.624 Z M 32.066 557.059 L 31.872 556.671 L 31.969 556.768 L 32.066 557.059 Z M 23.718 554.73 L 23.718 552.4 L 24.786 553.371 L 23.718 554.73 Z M 25.465 554.73 L 27.115 554.827 L 27.213 555.506 L 25.465 554.73 Z M 33.133 557.059 L 32.939 557.059 L 33.036 556.865 L 33.133 557.059 Z M 33.619 557.059 L 33.23 556.962 L 33.425 556.962 L 33.619 557.059 Z M -50.438 491.542 L -50.729 491.639 L -51.117 491.542 L -50.438 491.542 Z M 31.969 556.186 L 31.677 555.895 L 32.454 555.992 L 31.969 556.186 Z M -57.815 483.68 L -57.718 483.389 L -56.359 483.971 L -57.815 483.68 Z M 34.686 556.186 L 34.686 556.089 L 34.881 556.186 L 34.686 556.186 Z M 36.142 558.03 L 37.016 557.642 L 40.801 557.351 L 36.142 558.03 Z M -64.124 469.023 L -64.318 468.732 L -63.25 468.732 L -64.124 469.023 Z M 52.352 561.427 L 52.546 561.427 L 52.546 561.816 L 52.352 561.427 Z M 57.593 561.524 L 57.787 561.719 L 57.593 561.913 L 57.593 561.524 Z M 61.476 562.883 L 61.573 562.883 L 61.379 562.98 L 61.476 562.883 Z M 57.982 560.845 L 58.176 560.845 L 58.273 561.233 L 57.982 560.845 Z M 64.776 562.786 L 64.679 562.786 L 64.776 562.689 L 64.776 562.786 Z M -62.28 465.626 L -64.124 463.976 L -62.668 463.782 L -62.28 465.626 Z M 59.729 560.651 L 59.826 560.651 L 59.632 561.233 L 59.729 560.651 Z M 75.938 559.486 L 76.132 559.583 L 76.035 559.777 L 75.938 559.486 Z M 75.453 559.486 L 72.638 561.719 L 70.212 561.913 L 73.609 558.904 L 75.453 559.486 Z M 79.53 560.166 L 79.044 559.777 L 79.724 559.971 L 79.53 560.166 Z M 81.083 560.069 L 79.821 559.874 L 80.015 559.777 L 81.083 560.068 L 81.083 560.069 Z M 78.171 559.195 L 76.327 558.71 L 77.394 558.71 L 78.171 559.195 Z M 81.374 559.583 L 81.762 559.486 L 81.859 559.68 L 81.374 559.583 Z M 78.559 559.389 L 78.559 558.321 L 78.947 558.515 L 78.559 559.389 Z M 91.08 560.845 L 91.274 560.845 L 91.371 560.942 L 91.08 560.845 Z M 91.371 560.651 L 91.565 560.748 L 91.565 560.845 L 91.371 560.651 Z M 90.109 560.554 L 90.109 560.651 L 89.915 560.263 L 90.109 560.554 Z M 90.983 560.748 L 89.915 559.971 L 90.789 560.263 L 90.983 560.748 Z M 103.31 560.36 L 103.407 560.36 L 103.601 560.748 L 103.31 560.36 Z M 207.944 554.245 L 207.847 554.051 L 208.041 554.245 L 207.944 554.245 Z M 90.304 557.254 L 90.401 557.157 L 90.401 557.254 L 90.304 557.254 Z M 211.341 552.886 L 211.147 552.886 L 210.856 552.498 L 211.341 552.886 Z M 104.669 560.166 L 104.669 559.874 L 104.766 559.777 L 104.669 560.166 Z M 92.827 557.254 L 92.924 557.254 L 92.73 558.03 L 92.827 557.254 Z M 216.389 551.139 L 215.612 550.75 L 216.486 550.265 L 216.389 551.139 Z M 82.636 558.71 L 84.771 555.895 L 87.198 555.409 L 82.636 558.71 Z M 104.572 559.486 L 103.989 559.583 L 104.572 559.098 L 104.572 559.486 Z M 216.194 549.586 L 216.292 549.392 L 216.486 549.78 L 216.194 549.586 Z M 95.254 557.157 L 94.574 556.477 L 95.254 556.574 L 95.254 557.157 Z M 210.079 551.915 L 209.885 551.236 L 210.079 551.042 L 210.079 551.915 Z M 96.904 556.865 L 96.516 556.574 L 96.807 556.477 L 96.904 556.865 Z M 103.989 558.515 L 103.698 558.515 L 103.504 558.321 L 103.989 558.515 Z M 95.739 556.477 L 95.545 556.186 L 96.03 556.477 L 95.739 556.477 Z M 101.078 559.389 L 101.66 557.836 L 102.534 557.545 L 101.078 559.389 Z M 208.332 550.945 L 207.944 551.43 L 207.944 550.75 L 208.332 550.945 Z M 91.76 554.245 L 91.857 554.245 L 91.08 554.439 L 91.76 554.245 Z M 89.915 553.759 L 89.915 553.662 L 90.109 553.856 L 89.915 553.759 Z M 207.653 550.265 L 207.75 549.974 L 207.944 550.071 L 207.653 550.265 Z M 101.078 556.089 L 101.272 555.798 L 101.466 555.895 L 101.078 556.089 Z M 206.973 550.265 L 206.974 550.262 L 206.974 550.265 L 206.973 550.265 Z M 206.974 550.262 L 206.876 549.683 L 207.071 549.78 L 206.974 550.262 Z M 206.391 550.265 L 205.906 550.168 L 206.197 549.78 L 206.391 550.265 Z M 105.542 554.536 L 105.251 554.342 L 105.348 554.342 L 105.543 554.536 L 105.542 554.536 Z M 206.973 547.936 L 206.682 548.324 L 205.906 548.033 L 206.973 547.936 Z M 206.787 547.542 L 205.85 546.12 L 205.324 547.548 L 205.13 546.578 L 205.746 545.962 L 204.936 544.733 L 206.586 544.442 L 212.604 549.587 L 214.06 552.984 L 207.751 549.004 L 206.799 547.559 L 206.78 547.548 L 206.787 547.542 Z M 204.45 547.741 L 204.644 547.547 L 204.838 547.936 L 204.45 547.741 Z M 214.544 547.159 L 213.283 547.936 L 214.544 544.344 L 214.544 547.159 Z M 115.54 553.274 L 115.637 553.08 L 115.637 553.468 L 115.54 553.274 Z M 111.463 551.721 L 111.657 551.624 L 111.755 551.915 L 111.463 551.721 Z M 208.526 544.053 L 207.847 544.538 L 208.235 543.082 L 208.526 544.053 Z M 211.05 544.344 L 210.177 544.053 L 210.274 543.082 L 211.05 544.344 Z M 113.89 550.75 L 114.375 550.556 L 114.861 550.653 L 113.89 550.75 Z M 124.858 551.43 L 124.47 552.109 L 124.664 551.527 L 124.858 551.43 Z M 125.926 552.206 L 125.44 551.624 L 126.314 551.527 L 125.926 552.206 Z M 68.27 539.394 L 68.464 539.588 L 67.494 539.103 L 68.27 539.394 Z M 208.138 542.403 L 207.168 542.985 L 206.682 541.141 L 208.138 542.403 Z M 203.965 545.412 L 202.994 546.383 L 202.509 541.918 L 203.965 545.412 Z M 204.935 541.529 L 205.226 543.568 L 202.994 540.462 L 204.935 541.529 Z M 196.297 541.821 L 195.52 543.082 L 196.102 541.238 L 196.297 541.821 Z M 127.576 546.042 L 128.352 545.024 L 130.876 543.374 L 133.982 545.412 L 126.799 550.75 L 125.246 549.1 L 127.561 546.062 L 127.479 545.897 L 127.576 546.042 Z M 199.597 541.821 L 200.179 546.188 L 196.297 539.782 L 199.597 541.821 Z M 133.303 543.665 L 132.817 543.471 L 133.108 543.179 L 133.303 543.665 Z M 131.555 543.082 L 131.944 543.082 L 131.847 543.374 L 131.555 543.082 Z M 191.443 537.259 L 191.443 536.676 L 192.123 537.065 L 191.443 537.259 Z M 131.07 542.985 L 130.391 542.597 L 130.294 542.209 L 131.07 542.985 Z M 193.87 536.773 L 192.026 536.191 L 193.967 535.22 L 193.87 536.773 Z M 192.414 535.22 L 192.511 535.026 L 192.705 535.22 L 192.414 535.22 Z M 198.105 533.823 L 199.5 534.056 L 200.567 539.394 L 196.588 533.57 L 197.722 533.759 L 197.85 533.376 L 198.626 533.667 L 198.105 533.823 Z M 193.773 534.444 L 193.773 534.25 L 194.452 534.347 L 193.773 534.444 Z M 134.37 540.462 L 131.264 542.791 L 130.197 541.626 L 132.526 539.879 L 134.37 540.462 Z M 106.028 536.191 L 106.028 536.094 L 106.125 536.191 L 106.028 536.191 Z M 104.96 535.414 L 104.96 535.22 L 105.057 535.706 L 104.96 535.414 Z M 134.856 536.968 L 134.661 537.162 L 134.661 537.065 L 134.856 536.967 L 134.856 536.968 Z M 133.594 537.065 L 133.788 536.773 L 133.885 536.773 L 133.594 537.065 Z M 135.923 535.9 L 135.923 535.803 L 136.214 535.997 L 135.923 535.9 Z M 136.7 535.803 L 136.7 535.706 L 136.991 535.9 L 136.7 535.803 Z M 135.341 535.706 L 135.341 535.609 L 135.729 535.609 L 135.341 535.706 Z M 154.948 533.57 L 155.142 533.376 L 155.045 533.667 L 154.948 533.57 Z M 161.742 529.396 L 162.13 529.105 L 160.966 530.561 L 161.742 529.396 Z M 149.609 529.688 L 149.512 530.076 L 149.124 530.367 L 149.609 529.688 Z M 149.415 529.396 L 148.736 529.591 L 149.124 529.299 L 149.415 529.396 Z M 133.011 528.911 L 133.108 528.911 L 133.205 529.299 L 133.011 528.911 Z M 148.153 529.979 L 148.347 529.591 L 148.736 529.202 L 148.153 529.979 Z M 159.704 528.038 L 159.704 527.94 L 159.898 528.038 L 159.704 528.038 Z M 158.83 527.94 L 158.83 528.038 L 158.733 527.94 L 158.83 527.94 Z M 150.677 528.523 L 151.162 528.135 L 150.774 528.523 L 150.677 528.523 Z M 152.618 527.94 L 149.609 531.435 L 151.939 527.649 L 152.618 527.94 Z M 148.625 527.982 L 148.25 529.105 L 137.962 535.317 L 135.826 535.511 L 135.632 532.017 L 137.282 525.514 L 143.397 523.767 L 141.844 522.699 L 136.797 523.67 L 130.197 531.532 L 127.673 535.705 L 129.614 538.035 L 122.14 543.956 L 121.461 543.567 L 112.919 549.488 L 108.843 553.565 L 108.551 552.206 L 98.166 555.603 L 97.001 553.856 L 88.945 556.186 L 94.089 552.788 L 97.68 551.915 L 99.913 552.788 L 101.466 551.235 L 113.308 543.567 L 114.763 538.423 L 116.608 535.899 L 112.628 537.064 L 110.784 535.123 L 106.901 534.832 L 105.251 532.988 L 100.786 532.017 L 99.719 530.658 L 100.495 524.446 L 96.807 525.999 L 90.983 520.952 L 92.342 516.778 L 90.595 516.002 L 90.595 511.051 L 95.06 507.654 L 96.322 504.839 L 99.039 503.772 L 99.33 505.422 L 104.572 503.092 L 109.037 503.092 L 110.493 496.977 L 109.619 494.939 L 104.281 497.657 L 96.904 494.745 L 94.671 492.027 L 95.157 489.697 L 91.76 485.912 L 99.233 483.097 L 103.601 482.321 L 109.134 487.368 L 110.881 486.3 L 109.522 483.291 L 112.143 485.33 L 114.278 484.941 L 110.202 483.194 L 111.075 481.156 L 105.64 475.914 L 102.728 471.935 L 102.145 468.441 L 108.649 466.985 L 115.055 459.802 L 116.122 460.481 L 121.752 457.278 L 124.179 457.958 L 128.158 454.658 L 128.741 459.026 L 130.779 456.696 L 131.555 458.346 L 136.117 459.026 L 137.573 461.743 L 143.3 461.355 L 148.736 463.49 L 153.006 464.364 L 158.539 463.296 L 162.227 465.529 L 163.78 468.247 L 172.904 525.805 L 179.31 526.096 L 185.814 530.367 L 188.629 530.367 L 193.385 525.708 L 199.597 530.27 L 211.05 541.238 L 218.524 542.014 L 220.465 546.965 L 218.039 550.944 L 214.447 543.956 L 212.7 547.935 L 210.856 542.791 L 203.77 538.811 L 203.091 536.385 L 194.938 530.464 L 193.288 527.164 L 193.093 534.444 L 190.958 535.705 L 178.34 529.687 L 177.369 528.232 L 173.972 529.299 L 159.413 527.455 L 159.898 526.387 L 153.492 522.505 L 151.259 523.961 L 148.153 523.184 L 149.027 526.776 L 148.684 527.806 L 148.93 528.135 L 148.625 527.982 Z M 156.209 527.261 L 156.112 527.164 L 156.307 527.261 L 156.209 527.261 Z M 158.636 527.067 L 158.83 526.776 L 158.83 527.455 L 158.636 527.067 Z M 86.13 523.184 L 82.927 519.787 L 87.586 519.981 L 86.13 523.184 Z M 154.559 526.776 L 154.074 527.552 L 153.88 526.873 L 154.559 526.776 Z M 150.192 527.552 L 149.706 528.911 L 149.997 526.776 L 150.192 527.552 Z M 149.318 525.611 L 149.124 525.708 L 149.027 525.417 L 149.318 525.611 Z M 152.812 524.446 L 153.103 524.252 L 153.103 524.64 L 152.812 524.446 Z M 149.027 524.349 L 148.736 525.029 L 148.736 524.058 L 149.027 524.349 Z M 90.789 510.372 L 90.886 510.275 L 90.692 510.857 L 90.789 510.372 Z M 90.789 509.887 L 90.886 509.79 L 90.983 509.887 L 90.789 509.887 Z M 96.807 504.451 L 97.001 504.257 L 97.001 504.451 L 96.807 504.451 Z M 81.471 499.889 L 81.277 499.404 L 81.18 499.113 L 81.471 499.889 Z M 83.121 498.239 L 83.024 498.142 L 82.927 498.142 L 83.121 498.239 Z M 80.112 497.463 L 79.552 496.716 L 79.335 496.492 L 76.909 496.104 L 77.685 493.192 L 84.48 498.919 L 82.539 499.792 L 79.561 496.725 L 80.306 497.657 L 80.112 497.463 Z M 103.989 502.995 L 103.407 502.704 L 104.475 502.607 L 103.989 502.995 Z M 89.721 484.068 L 89.624 483.971 L 89.818 484.068 L 89.721 484.068 Z M 92.827 484.941 L 92.924 484.941 L 92.633 485.038 L 92.827 484.941 Z M 95.739 484.068 L 94.866 484.456 L 94.574 484.456 L 95.739 484.068 Z M 97.972 483.388 L 98.263 483.194 L 98.069 483.388 L 97.972 483.388 Z M 98.651 483.097 L 99.136 483 L 98.554 483.291 L 98.651 483.097 Z M 99.525 482.903 L 99.525 482.806 L 100.01 482.709 L 99.525 482.903 Z M 161.257 464.558 L 161.936 464.849 L 162.324 465.14 L 161.257 464.558 Z M 111.852 462.229 L 112.337 461.84 L 111.463 463.005 L 111.852 462.229 Z M 112.822 461.258 L 113.016 461.064 L 112.628 461.646 L 112.822 461.258 Z M 113.502 460.481 L 113.89 460.287 L 113.21 460.87 L 113.502 460.481 Z M 144.562 461.549 L 144.271 461.549 L 143.785 461.064 L 144.562 461.549 Z" style="stroke-width: 0.971; fill: rgb(249, 249, 249);"/>
  <path id="DX" data-name="South Carolina" data-id="SC" d="M 821.633 359.955 L 818.042 364.517 L 812.704 374.417 L 812.51 379.367 L 809.113 381.502 L 809.598 383.249 L 804.939 386.84 L 805.813 388.49 L 798.242 394.896 L 793.389 395.187 L 797.369 398.487 L 795.039 400.331 L 790.865 397.225 L 792.418 401.496 L 791.447 405.961 L 788.032 402.774 L 791.447 405.962 L 791.544 405.962 L 788.147 410.135 L 789.603 411.494 L 787.565 413.727 L 786.206 417.706 L 786.885 421.88 L 785.624 424.112 L 786.206 434.595 L 786.205 434.597 L 786.302 434.694 L 786.787 437.8 L 788.923 440.227 L 791.641 447.021 L 795.62 455.078 L 798.629 459.834 L 811.15 475.073 L 810.956 478.955 L 815.13 487.108 L 810.859 480.993 L 809.209 472.937 L 808.432 473.52 L 804.647 470.316 L 809.112 479.537 L 817.071 490.797 L 826.389 506.327 L 826.777 508.268 L 828.525 527.292 L 828.144 528.624 L 828.427 529.331 L 828.05 528.954 L 825.03 539.522 L 821.245 541.658 L 813.577 544.181 L 811.441 541.755 L 816.1 541.464 L 815.13 540.952 L 815.13 541.075 L 815.033 541.075 L 815.102 540.937 L 812.756 539.699 L 812.412 539.814 L 812.412 539.619 L 812.605 539.619 L 805.909 531.078 L 801.056 529.816 L 797.27 527.487 L 794.455 519.916 L 790.282 516.616 L 791.058 510.404 L 789.214 511.568 L 786.108 511.18 L 788.632 514.577 L 785.623 514.48 L 777.566 503.415 L 779.896 497.397 L 779.508 493.514 L 775.14 493.612 L 776.693 498.95 L 773.296 492.156 L 772.713 489.438 L 773.975 484.002 L 773.199 475.364 L 769.122 469.928 L 765.239 470.705 L 746.215 456.339 L 741.556 456.145 L 723.599 467.599 L 721.949 463.716 L 714.767 460.222 L 706.419 457.407 L 707.487 455.757 L 702.925 455.078 L 696.228 457.504 L 690.404 457.698 L 687.007 460.707 L 683.9 462.066 L 684.808 458.682 L 678.853 462.163 L 675.553 459.154 L 672.447 462.94 L 668.079 462.066 L 667.691 462.163 L 667.691 462.26 L 666.623 463.619 L 659.635 462.843 L 652.064 464.493 L 648.472 468.569 L 648.472 468.666 L 644.396 468.278 L 638.766 466.434 L 635.466 466.531 L 632.651 471.481 L 634.398 472.84 L 640.513 472.452 L 644.784 469.443 L 646.531 469.928 L 643.91 474.199 L 647.696 474.878 L 649.346 470.899 L 652.355 475.073 L 650.025 479.829 L 647.016 479.44 L 647.114 482.352 L 649.831 483.905 L 657.111 485.75 L 658.761 487.885 L 654.393 491.962 L 654.782 489.923 L 651.676 487.4 L 645.464 486.623 L 644.881 484.876 L 639.64 482.838 L 640.222 488.661 L 638.281 492.35 L 635.466 488.273 L 631.486 490.409 L 629.642 492.641 L 626.536 492.641 L 618.286 490.214 L 621.877 488.953 L 616.053 484.973 L 613.821 485.75 L 611.2 481.673 L 607.997 482.449 L 608.191 480.314 L 601.979 482.255 L 603.823 484.682 L 600.426 487.108 L 593.729 486.235 L 584.314 483.614 L 572.278 484.973 L 573.928 482.643 L 573.637 480.12 L 573.443 480.12 L 574.899 476.529 L 574.899 476.528 L 573.443 480.12 L 573.054 480.12 L 571.695 486.332 L 569.56 486.429 L 556.651 493.223 L 559.854 490.506 L 556.942 490.506 L 557.33 485.361 L 552.477 487.497 L 552.186 490.409 L 553.642 495.068 L 550.924 497.882 L 550.245 500.6 L 545.78 504.289 L 538.403 509.239 L 531.803 510.695 L 526.755 510.404 L 524.037 509.336 L 528.405 513.898 L 523.94 516.421 L 520.446 514.577 L 521.514 518.363 L 518.796 520.498 L 519.378 517.683 L 516.952 520.886 L 517.34 522.342 L 514.622 526.516 L 508.799 525.837 L 512.681 531.078 L 510.74 536.222 L 507.149 537.484 L 504.042 534.184 L 506.76 538.649 L 508.799 538.843 L 508.119 543.599 L 509.672 545.929 L 510.74 553.014 L 513.458 561.168 L 516.467 563.982 L 509.769 565.438 L 504.14 562.332 L 496.375 562.332 L 491.327 559.323 L 487.348 558.45 L 479.388 548.743 L 478.224 549.035 L 478.03 545.54 L 473.468 543.017 L 471.915 531.952 L 470.07 531.369 L 465.897 527.098 L 462.597 521.663 L 458.326 518.072 L 454.055 507.783 L 452.211 505.356 L 451.628 501.765 L 448.814 498.368 L 445.805 496.426 L 447.261 493.709 L 442.019 492.738 L 434.351 487.982 L 425.907 487.303 L 422.995 485.847 L 415.424 488.856 L 412.997 493.612 L 411.541 498.562 L 406.882 503.221 L 403.485 501.959 L 396.011 497.203 L 390.867 495.359 L 387.276 491.379 L 382.714 488.37 L 380.578 477.596 L 374.949 467.308 L 366.989 461.387 L 360.971 454.301 L 350.489 443.818 L 350.392 443.721 L 347.965 438.965 L 360.292 439.839 L 391.061 441.586 L 410.279 442.459 L 413.58 351.414 L 414.259 351.511 L 414.356 348.89 L 414.453 346.367 L 414.647 341.319 L 416.589 341.417 L 420.665 341.514 L 422.606 341.611 L 428.721 341.805 L 430.274 341.805 L 434.448 341.902 L 456.967 342.193 L 509.672 341.417 L 547.236 339.67 L 550.924 339.378 L 551.118 341.902 L 551.215 344.426 L 551.409 347.046 L 551.506 349.57 C 552.089 352.288 551.506 349.57 551.506 349.57 L 556.068 349.279 L 587.323 346.755 L 624.304 343.164 L 626.148 346.949 L 621.877 353.744 L 632.36 352.191 L 632.457 352.191 L 632.457 351.414 L 632.651 346.949 L 634.592 344.523 L 634.01 341.805 L 633.913 341.708 L 634.981 341.611 L 634.981 342.484 L 635.369 342.581 L 636.145 341.611 L 636.145 341.514 L 638.96 341.125 L 658.567 338.505 L 657.596 334.622 L 660.896 334.525 L 700.401 329.284 L 728.161 324.625 L 728.549 324.334 L 730.297 324.043 L 730.297 324.042 L 728.549 324.334 L 729.229 323.557 L 736.509 319.675 L 742.138 312.298 L 742.915 309.774 L 746.603 306.862 L 751.262 300.941 L 751.942 299.971 L 752.136 300.068 L 753.203 303.077 L 759.318 305.309 L 761.745 303.174 L 764.269 302.785 L 769.607 298.612 L 776.11 296.67 L 777.858 293.856 L 778.246 288.032 L 780.575 283.567 L 783.487 270.366 L 789.408 272.405 L 791.349 266.678 L 794.358 263.378 L 799.308 253.963 L 799.114 248.333 L 808.141 252.216 L 808.724 248.139 L 808.724 248.042 L 809.015 248.139 L 813.48 249.304 L 816.683 251.633 L 819.789 252.992 L 820.08 253.283 L 820.565 253.672 L 820.759 253.769 L 820.954 253.672 L 821.148 253.866 L 821.342 259.301 L 820.371 259.107 L 821.245 265.804 L 823.574 264.348 L 826.389 266.872 L 832.116 267.26 L 838.716 269.784 L 837.843 271.24 L 838.716 275.705 L 828.677 270.76 L 836.095 276.773 L 839.978 276.578 L 841.628 281.043 L 838.522 280.849 L 842.89 286.382 L 841.337 288.808 L 835.901 285.12 L 826.098 285.994 L 831.145 286.188 L 838.425 288.614 L 840.56 290.556 L 842.793 288.711 L 847.743 287.838 L 851.723 293.953 L 852.111 294.729 L 861.235 308.124 L 857.061 303.95 L 851.723 294.923 L 851.625 294.923 L 850.072 292.012 L 849.587 291.914 L 850.267 295.215 L 850.461 295.409 L 850.655 295.312 L 850.655 295.118 L 851.043 294.535 L 851.237 295.02 L 850.946 295.118 L 851.237 295.021 L 851.431 295.603 L 849.781 295.603 L 849.587 295.506 L 848.908 294.826 L 849.005 295.118 L 849.296 295.603 L 851.529 297.544 L 854.732 302.3 L 851.723 300.553 L 850.461 303.853 L 845.996 304.921 L 845.802 306.571 L 841.531 310.745 L 851.14 306.765 L 852.402 307.056 L 854.052 313.365 L 853.567 308.221 L 855.799 306.183 L 858.032 308.318 L 858.323 313.657 L 856.576 314.142 L 854.635 317.927 L 852.014 319.869 L 848.811 320.16 L 846.287 318.898 L 838.522 320.354 L 838.91 320.839 L 848.034 322.295 L 846.384 325.789 L 847.84 327.343 L 843.084 330.837 L 846.967 330.74 L 851.043 329.381 L 852.208 327.148 L 851.237 333.555 L 849.102 332.584 L 848.034 334.525 L 839.978 339.864 L 836.096 343.552 L 832.504 350.055 L 832.48 351.395 L 832.892 350.735 L 832.601 352.288 L 832.473 351.774 L 832.407 355.394 L 822.41 359.47 L 822.021 359.762 L 822.02 359.761 L 821.633 359.955 Z M 684.968 458.086 L 684.677 457.989 L 684.483 457.892 L 684.919 458.267 L 684.968 458.086 Z M 787.758 420.232 L 786.981 419.844 L 787.661 417.32 L 787.758 420.232 Z M 788.826 415.767 L 788.146 414.893 L 788.437 413.535 L 788.826 415.767 Z M 796.591 559.42 L 796.494 559.518 L 796.397 559.42 L 796.591 559.42 Z M 795.814 559.42 L 795.717 559.42 L 795.717 559.323 L 795.814 559.42 Z M 781.546 560.876 L 781.546 560.779 L 781.643 560.779 L 781.546 560.876 Z M 809.209 554.858 L 809.112 554.664 L 809.209 554.664 L 809.209 554.858 Z M 811.83 553.985 L 811.636 554.082 L 811.83 553.791 L 811.83 553.985 Z M 810.859 553.791 L 810.374 553.5 L 810.471 553.402 L 810.859 553.791 Z M 810.083 554.373 L 809.403 553.111 L 810.568 554.567 L 810.083 554.373 Z M 819.983 549.035 L 819.789 549.229 L 819.789 548.84 L 819.983 549.035 Z M 821.148 547.87 L 821.051 547.773 L 821.439 547.385 L 821.148 547.87 Z M 821.342 546.996 L 821.342 546.899 L 821.439 546.899 L 821.342 546.996 Z M 820.565 545.152 L 820.468 545.249 L 820.468 545.055 L 820.565 545.152 Z M 821.245 542.823 L 821.342 543.017 L 821.051 542.92 L 821.245 542.823 Z M 821.633 542.823 L 821.536 542.92 L 821.439 542.628 L 821.633 542.823 Z M 820.954 542.628 L 820.856 542.725 L 820.856 542.531 L 820.954 542.628 Z M 824.545 541.949 L 824.351 542.24 L 824.545 541.852 L 824.545 541.949 Z M 820.468 542.434 L 820.274 542.337 L 820.468 542.337 L 820.468 542.434 Z M 822.507 541.172 L 822.118 541.27 L 822.215 541.172 L 822.507 541.172 Z M 813.674 540.881 L 813.189 540.396 L 813.674 540.299 L 813.674 540.881 Z M 812.8 540.202 L 812.8 540.396 L 812.315 539.911 L 812.8 540.202 Z M 826.583 540.493 L 825.418 541.367 L 824.836 541.27 L 826.583 540.493 Z M 828.33 534.766 L 828.525 533.019 L 828.427 534.281 L 828.33 534.766 Z M 806.006 531.757 L 806.297 532.146 L 805.812 532.049 L 806.006 531.757 Z M 804.162 530.884 L 803.968 531.272 L 803.288 531.175 L 804.162 530.884 Z M 802.22 531.078 L 802.123 530.884 L 802.22 530.787 L 802.22 531.078 Z M 800.182 530.981 L 800.376 531.757 L 799.6 531.369 L 800.182 530.981 Z M 802.9 531.078 L 802.317 530.69 L 802.803 530.787 L 802.9 531.078 Z M 790.185 521.566 L 790.767 522.245 L 789.602 521.857 L 790.185 521.566 Z M 787.855 518.46 L 787.37 518.169 L 787.079 517.295 L 787.855 518.46 Z M 788.535 517.004 L 789.505 517.295 L 790.864 520.401 L 788.535 517.004 Z M 786.496 515.257 L 786.69 515.742 L 786.982 516.518 L 786.496 515.257 Z M 777.858 505.162 L 777.178 504.483 L 778.925 505.744 L 777.858 505.162 Z M 815.13 487.4 L 815.518 487.4 L 822.604 499.241 L 815.13 487.4 Z M 773.587 480.314 L 773.587 480.411 L 773.296 480.217 L 773.587 480.314 Z M 773.004 479.829 L 772.907 479.732 L 773.004 479.634 L 773.004 479.829 Z M 772.228 478.664 L 772.325 478.567 L 772.325 478.664 L 772.228 478.664 Z M 773.004 478.276 L 773.004 478.47 L 772.713 478.276 L 773.004 478.276 Z M 773.296 477.887 L 773.004 477.984 L 772.907 477.984 L 773.296 477.887 Z M 771.937 476.723 L 772.034 476.82 L 771.743 476.723 L 771.937 476.723 Z M 772.616 475.558 L 772.131 475.655 L 772.228 475.558 L 772.616 475.558 Z M 772.519 475.267 L 772.713 475.364 L 773.004 475.752 L 772.519 475.267 Z M 769.122 471.578 L 769.122 471.481 L 769.316 471.578 L 769.122 471.578 Z M 765.142 471.578 L 764.948 471.675 L 764.851 471.19 L 765.142 471.578 Z M 698.751 457.213 L 693.995 458.96 L 688.171 460.61 L 698.751 457.213 Z M 629.06 494.291 L 629.642 493.709 L 630.904 493.418 L 629.06 494.291 Z M 634.107 493.418 L 634.301 493.126 L 634.981 493.418 L 634.107 493.418 Z M 636.242 493.126 L 636.631 492.641 L 637.31 492.641 L 636.242 493.126 Z M 636.145 491.962 L 635.854 491.962 L 635.951 491.67 L 636.145 491.962 Z M 644.105 487.011 L 643.619 487.011 L 643.91 486.817 L 644.105 487.011 Z M 609.55 487.108 L 605.279 485.652 L 607.026 484.197 L 611.006 485.264 L 609.55 487.108 Z M 650.317 469.443 L 650.22 469.637 L 650.122 469.637 L 650.317 469.443 Z M 515.884 561.07 L 511.225 546.802 L 511.225 543.502 L 515.884 561.07 Z M 514.816 530.204 L 511.128 538.455 L 511.516 536.416 L 514.816 530.204 Z M 517.437 525.642 L 518.311 522.925 L 520.543 521.566 L 517.437 525.642 Z M 523.164 519.139 L 521.126 519.527 L 528.405 515.742 L 523.164 519.139 Z M 529.376 514.383 L 530.638 512.927 L 531.414 512.733 L 529.376 514.383 Z M 831.242 357.626 L 831.048 357.432 L 832.116 356.364 L 831.242 357.626 Z M 838.716 341.708 L 836.484 343.843 L 837.26 342.678 L 838.716 341.708 Z M 851.237 335.593 L 849.393 335.108 L 850.655 335.205 L 851.237 335.593 Z M 846.287 335.787 L 847.743 335.01 L 848.617 335.01 L 846.287 335.787 Z M 852.499 332.002 L 854.44 329.09 L 851.625 336.078 L 852.499 332.002 Z M 863.953 319.286 L 861.817 308.512 L 863.661 314.142 L 863.953 319.286 Z" style="stroke-width:0.97063118000000004;fill:#f9f9f9"/>
  <path id="NE" data-name="Maine" data-id="ME" d="M 900.608 87.41 L 896.741 89.21 L 895.091 94.257 L 895.965 95.131 L 894.994 100.275 L 893.441 102.216 L 893.247 107.749 L 892.276 108.04 L 892.276 108.137 L 892.373 108.72 L 893.052 108.429 L 892.761 110.952 L 892.761 112.505 L 892.858 112.699 L 894.217 115.903 L 897.517 116.097 L 894.314 119.494 L 897.517 124.347 L 904.7 132.015 L 908.291 131.724 L 911.494 129.297 L 910.815 125.997 L 913.436 131.141 L 907.224 134.442 L 906.35 136.383 L 902.565 135.121 L 898.003 140.654 L 897.42 141.818 L 896.547 140.265 L 895.867 138.518 L 895.867 137.839 L 895.964 135.509 L 895.673 136.965 L 895.091 137.451 L 893.15 137.839 L 894.023 144.439 L 889.364 148.128 L 889.17 148.419 L 888.879 148.71 L 874.708 155.019 L 874.125 153.854 L 871.116 158.028 L 865.487 163.463 L 865.487 163.561 L 864.419 167.928 L 862.478 168.414 L 861.772 165.202 L 861.119 172.393 L 860.76 173.827 L 861.507 172.782 L 860.754 173.851 L 859.954 177.052 L 864.516 176.955 L 865.195 180.352 L 865.195 190.738 L 863.157 195.494 L 864.225 199.474 L 861.507 201.318 L 861.119 206.657 L 858.498 210.345 L 858.401 205.88 L 846.947 201.998 L 846.527 197.379 L 846.171 202.871 L 857.527 213.645 L 859.857 219.857 L 860.051 220.245 L 860.051 220.925 L 859.857 220.343 L 859.954 222.478 L 859.954 222.769 L 857.43 230.243 L 857.527 230.437 L 856.266 230.922 L 854.324 231.796 L 853.645 232.669 L 853.548 232.669 L 851.412 230.243 L 848.112 230.34 L 848.306 225.584 L 846.365 228.981 L 842.871 227.816 L 840.735 223.837 L 844.812 222.478 L 840.056 220.731 L 841.706 216.751 L 840.833 211.316 L 839.279 214.616 L 837.629 211.801 L 838.212 203.454 L 836.659 209.083 L 834.523 210.83 L 836.562 215.198 L 836.076 219.178 L 837.921 226.069 L 840.25 228.399 L 837.629 228.01 L 834.426 223.74 L 835.688 227.719 L 840.833 229.466 L 842.483 234.125 L 838.503 232.281 L 832.485 231.99 L 826.467 228.108 L 828.311 222.478 L 828.311 222.381 L 829.573 220.051 L 828.214 219.275 L 826.564 219.372 L 826.176 220.148 L 825.885 219.857 L 822.779 218.498 L 819.576 216.169 L 815.111 215.004 L 814.82 214.907 L 814.82 215.002 L 814.237 219.079 L 805.21 215.196 L 805.404 220.826 L 800.454 230.241 L 797.445 233.541 L 795.504 239.268 L 789.583 237.23 L 786.671 250.43 L 784.342 254.895 L 783.954 260.719 L 782.206 263.534 L 775.703 265.475 L 770.365 269.649 L 767.841 270.037 L 765.414 272.172 L 759.299 269.94 L 758.232 266.931 L 758.038 266.834 L 757.746 266.737 L 755.32 266.737 L 752.214 264.99 L 746.681 258.292 L 744.74 251.498 L 744.74 251.304 L 748.914 249.265 L 750.37 246.062 L 749.205 242.762 L 752.505 237.715 L 754.932 237.327 L 754.64 233.056 L 758.62 227.62 L 759.299 228.397 L 762.891 225.679 L 765.997 221.02 L 766.482 199.763 L 766.676 199.666 L 766.191 197.628 L 763.764 187.145 L 763.279 185.01 L 760.561 173.071 L 761.143 172.586 L 765.899 167.733 L 768.52 165.889 C 770.171 164.628 770.268 164.531 770.268 164.531 L 777.256 156.378 L 779.003 147.836 L 778.238 147.167 L 778.13 147.545 L 777.099 146.17 L 775.897 145.119 L 775.412 142.304 L 784.245 136.965 L 793.757 135.606 L 796.183 136.577 L 808.996 128.812 L 813.267 123.182 L 812.199 116.291 L 810.861 115.833 L 810.659 115.764 L 808.51 115.029 L 814.528 105.905 L 814.334 103.964 L 818.896 95.228 L 822.973 90.86 L 843.259 84.066 L 843.841 83.775 L 844.521 83.581 L 856.557 79.213 L 861.798 77.174 L 867.137 75.233 L 868.398 74.748 L 868.398 74.651 L 869.175 68.245 L 870.631 68.536 L 871.893 66.983 L 872.087 66.789 L 874.611 67.177 L 876.941 62.712 L 875 61.256 L 877.815 52.132 L 876.747 40.29 L 875.485 34.466 L 879.076 16.606 L 881.6 15.635 L 883.444 19.032 L 885.579 19.42 L 893.441 12.82 L 900.527 16.508 L 910.233 37.474 L 910.233 41.454 L 913.824 42.716 L 917.027 41.745 L 917.027 44.075 L 918.968 48.055 L 924.209 49.123 L 927.412 52.326 L 927.411 52.326 L 929.158 54.073 L 927.023 59.217 L 926.508 59.639 L 926.344 59.896 L 926.4 59.728 L 922.17 63.196 L 920.423 62.808 L 919.938 67.176 L 912.561 69.991 L 912.816 71.296 L 913.532 71.932 L 912.927 71.865 L 913.338 73.971 L 907.417 74.359 L 906.058 82.124 L 902.37 86.589 L 900.623 87.402 L 900.608 87.41 Z M 914.988 76.107 L 914.6 76.107 L 914.988 76.107 Z M 910.136 77.563 L 909.262 77.368 L 910.136 77.562 L 910.136 77.563 Z M 915.086 74.554 L 915.668 74.457 L 915.959 75.234 L 915.085 74.555 L 915.086 74.554 Z M 912.756 75.718 L 912.465 74.65 L 912.756 75.718 Z M 908.291 74.748 L 908.194 76.204 L 907.903 75.33 L 908.291 74.748 Z M 913.63 71.254 L 913.921 70.769 L 914.018 71.545 L 913.63 71.254 Z M 917.318 70.768 L 915.862 72.903 L 915.765 71.35 L 917.318 70.768 Z M 879.61 163.695 L 873.252 167.055 L 867.137 172.005 L 862.963 173.655 L 862.575 170.743 L 865.292 168.511 L 865.487 166.375 L 868.107 164.143 L 878.105 159.872 L 884.608 153.854 L 883.752 155.266 L 884.705 155.504 L 883.346 156.087 L 883.399 155.849 L 880.725 160.26 L 883.055 159.29 L 890.335 153.757 L 880.046 163.464 L 879.755 163.618 L 879.755 163.755 L 879.61 163.695 Z M 861.895 169.481 L 862.186 167.734 L 862.186 171.034 L 861.895 169.481 Z M 894.508 143.08 L 894.12 141.818 L 894.411 141.042 L 894.508 143.08 Z M 896.45 141.527 L 895.091 141.624 L 895.188 139.101 L 896.45 141.527 Z M 864.322 198.309 L 864.322 197.144 L 864.807 198.309 L 864.322 198.309 Z" style="stroke-width:0.97063118000000004;fill:#f9f9f9"/>
  <path id="LN" data-name="Michigan" data-id="MI" d="M 651.963 135.2 L 651.381 135.394 L 651.478 134.423 L 651.963 135.2 Z M 652.157 132.579 L 652.351 131.9 L 653.516 133.453 L 652.157 132.579 Z M 653.516 125.785 L 653.516 125.591 L 654.487 126.465 L 653.516 125.785 Z M 645.969 205.831 L 657.301 191.4 L 658.175 181.888 L 657.301 176.744 L 650.312 163.349 L 651.283 159.952 L 650.506 153.061 L 651.865 147.528 L 650.797 142.19 L 652.932 140.54 L 656.135 135.493 L 658.853 129.766 L 658.853 137.337 L 661.862 135.202 L 661.183 129.184 L 664.289 125.301 L 663.901 120.933 L 667.978 115.886 L 677.005 118.507 L 677.976 119.963 L 687.682 121.613 L 692.05 131.319 L 691.759 142.772 L 688.944 149.275 L 687.585 149.76 L 688.556 156.263 L 691.759 156.845 L 695.059 150.633 L 694.38 149.759 L 700.689 145.391 L 702.436 145.876 L 705.833 149.661 L 709.716 159.95 L 712.337 164.803 L 712.628 172.568 L 711.56 174.606 L 708.745 172.956 L 705.154 181.983 L 705.445 187.224 L 702.242 193.533 M 671.861 116.37 L 670.308 115.205 L 672.832 115.011 L 671.861 116.37 Z M 658.078 117.535 L 658.175 117.923 L 657.301 117.535 L 658.078 117.535 Z M 675.064 105.208 L 673.705 103.752 L 674.093 103.655 L 675.064 105.208 Z M 701.792 193.765 L 724.955 193.535 L 728.74 192.953 L 733.593 187.032 L 741.067 181.305 L 744.561 179.073 L 747.279 191.011 L 747.764 193.147 L 750.191 203.63 L 750.676 205.668 L 750.482 205.765 L 749.997 227.022 L 746.891 231.681 L 743.299 234.399 L 742.62 233.622 L 738.64 239.058 L 738.932 243.329 L 736.505 243.717 L 733.205 248.764 L 734.37 252.064 L 732.914 255.267 L 728.74 257.306 L 728.74 257.5 L 730.681 264.294 L 736.214 270.992 L 739.32 272.739 L 741.746 272.739 L 742.038 272.836 L 741.358 273.806 L 736.699 279.727 L 733.011 282.639 L 732.234 285.163 L 726.605 292.54 L 719.325 296.422 L 718.645 297.199 L 718.257 297.49 L 690.497 302.149 L 650.992 307.39 L 647.692 307.487 L 648.663 311.37 L 629.056 313.991 L 626.241 314.379 L 626.338 314.088 L 628.862 312.535 L 629.25 312.34 L 628.862 312.534 L 626.338 314.087 L 626.241 314.379 L 626.241 314.476 L 625.465 315.446 L 625.077 315.349 L 625.077 314.476 L 624.009 314.573 L 624.106 314.67 L 624.688 317.388 L 622.747 319.814 L 622.553 324.279 L 622.553 325.056 L 622.456 325.056 L 611.973 326.609 L 616.244 319.814 L 614.4 316.029 L 577.419 319.62 L 546.164 322.144 L 541.602 322.435 L 541.505 319.911 L 541.311 317.291 L 541.214 314.767 L 541.02 312.243 L 537.331 312.535 L 499.768 314.282 L 447.063 315.058 L 424.544 314.767 L 420.37 314.67 L 420.37 312.729 L 421.438 261.382 L 421.535 255.656 L 421.535 253.811 L 421.632 252.549 L 422.02 233.525 L 417.361 233.331 L 393.678 232.457 L 391.349 232.36 L 391.446 229.837 L 391.931 219.645 L 392.805 201.882 L 393.193 194.312 L 393.29 191.788 L 393.387 189.167 L 394.163 174.025 L 395.134 153.642 L 395.231 151.119 L 395.522 151.119 L 395.619 149.76 L 395.911 143.062 L 396.299 134.23 L 396.396 131.997 L 396.59 128.115 L 398.143 97.637 L 399.405 73.953 L 399.502 70.071 L 400.57 70.168 L 421.147 70.944 L 438.715 71.333 L 459.196 71.43 L 488.509 70.847 L 490.547 70.847 L 491.518 70.75 L 506.174 70.168 L 518.016 69.294 L 517.628 61.82 L 522.093 63.082 L 522.481 65.703 L 525.975 74.439 L 536.264 75.895 L 537.526 77.836 L 544.029 75.021 L 548.106 75.021 L 552.667 76.477 L 551.503 77.836 L 555.094 79.68 L 560.433 79.292 L 562.277 81.524 L 568.974 84.339 L 577.322 80.942 L 578.777 82.689 L 588.096 81.427 L 590.522 83.271 L 594.599 82.495 L 588.484 87.057 L 582.66 89.872 L 579.36 92.201 L 570.721 103.266 L 563.15 111.226 L 563.247 111.42 L 572.954 109.867 L 580.913 105.79 L 580.233 112.876 L 581.884 111.905 L 586.834 112.584 L 587.125 112.293 L 587.416 112.099 L 594.987 106.372 L 600.325 105.013 L 609.74 95.986 L 610.031 97.733 L 612.926 98.615 L 610.128 95.889 L 618.932 91.524 L 615.369 95.889 L 614.146 98.987 L 624.687 102.198 L 631.287 107.925 L 634.587 106.469 L 639.828 107.731 L 640.799 105.79 L 649.341 100.549 L 654.097 100.258 L 661.474 96.764 L 660.892 98.123 L 662.639 102.297 L 668.075 102.976 L 673.996 99.676 L 673.414 105.985 L 676.423 107.732 L 678.073 110.45 L 671.279 111.518 L 669.726 110.547 L 668.076 114.818 L 664.679 113.071 L 655.943 112.003 L 655.264 113.362 L 646.625 116.662 L 643.034 122.195 L 642.452 118.701 L 638.958 122.584 L 634.396 125.787 L 630.611 136.755 L 630.611 136.852 L 630.609 136.85 L 630.512 136.947 L 630.318 138.889 L 627.018 143.256 L 625.853 148.401 L 629.541 146.265 L 631.094 142.189 L 633.909 141.218 L 635.365 142.771 L 634.103 147.333 L 633.909 153.351 L 634.783 154.419 L 632.453 160.922 L 633.133 166.163 L 631.871 172.958 L 632.55 179.073 L 635.171 183.926 L 635.171 188.488 L 635.559 189.944 L 635.559 190.138 L 636.433 195.768 L 638.471 197.903 L 640.995 203.63 L 641.966 204.697 L 642.548 205.28 L 644.295 206.153 L 646.332 205.632 M 625.174 314.184 L 624.883 313.408 L 624.3 313.214 L 624.882 313.408 L 625.174 314.185 L 625.174 314.184 Z M 619.253 91.134 L 621.485 90.26 L 618.933 91.525 L 619.253 91.134 Z M 634.589 141.606 L 633.909 139.18 L 635.365 134.812 L 637.792 131.803 L 634.589 141.606 Z M 582.078 108.993 L 582.466 107.925 L 583.534 106.955 L 582.078 108.993 Z M 584.31 105.79 L 582.757 105.887 L 583.825 105.208 L 584.31 105.79 Z M 581.301 105.693 L 581.981 105.402 L 582.175 106.081 L 581.301 105.693 Z M 578.68 105.402 L 578.777 104.625 L 578.972 104.819 L 578.68 105.402 Z M 585.766 103.752 L 585.184 104.043 L 585.475 102.393 L 585.766 103.752 Z" style="stroke-width:0.97063118000000004;fill:#f9f9f9"/>
</svg>
